<svg width="373" height="373" viewBox="0 0 373 373" fill="none" xmlns="http://www.w3.org/2000/svg">
<circle cx="186.5" cy="186.5" r="186.5" fill="#D0AA22"/>
<g filter="url(#filter0_d)">
<path d="M303.361 93.7737H253.476V37.6987C253.476 33.9983 250.951 31 247.837 31C244.724 31 242.199 33.9983 242.199 37.6987V93.7737H172.85C140.66 93.7737 114.471 124.887 114.471 163.128V245.055H64.6387C61.525 245.055 59 248.053 59 251.754C59 255.454 61.525 258.453 64.6387 258.453H114.471V314.529C114.471 318.229 116.996 321.228 120.11 321.228C123.223 321.228 125.748 318.229 125.748 314.529V258.453H195.097C227.287 258.453 253.476 227.34 253.476 189.098V107.171H303.361C306.475 107.171 309 104.173 309 100.472C309 96.7721 306.475 93.7737 303.361 93.7737ZM151.463 247.911C150.361 249.22 148.919 249.874 147.475 249.874C146.032 249.874 144.589 249.22 143.487 247.911L123.73 224.439C121.527 221.824 121.527 217.582 123.73 214.967C125.932 212.351 129.501 212.351 131.704 214.967L151.462 238.439C153.664 241.055 153.664 245.296 151.463 247.911ZM151.463 206.115C150.361 207.423 148.919 207.228 147.475 207.228C146.032 207.228 144.589 206.537 143.487 205.228L128.535 188.171C126.332 185.556 126.332 181.314 128.535 178.699C130.737 176.082 134.307 176.082 136.509 178.699L151.463 196.615C153.665 199.23 153.664 203.499 151.463 206.115ZM214.351 238.673C213.249 239.981 211.806 240.635 210.363 240.635C208.919 240.635 207.477 239.981 206.375 238.673L131.507 149.728C129.305 147.113 129.305 142.871 131.507 140.256C133.71 137.641 137.28 137.641 139.482 140.256L214.35 229.201C216.553 231.814 216.553 236.056 214.351 238.673ZM206.375 186.605C205.274 187.914 203.943 188.567 202.5 188.567C201.057 188.567 200.602 187.914 199.5 186.605C198.398 185.296 148.422 127.847 148.422 127.847C146.22 125.232 146.22 120.991 148.422 118.375C150.625 115.759 154.194 115.759 156.397 118.375L206.375 177.133C208.578 179.747 208.578 183.988 206.375 186.605ZM241.188 186.605C240.087 187.914 238.644 188.567 237.201 188.567C235.757 188.567 234.315 187.914 233.213 186.605L175.335 117.845C173.132 115.23 173.132 110.988 175.335 108.373C177.537 105.756 181.106 105.756 183.309 108.373L241.187 177.133C243.391 179.748 243.391 183.989 241.188 186.605ZM244.247 148.263C243.145 149.571 241.703 150.225 240.259 150.225C238.816 150.225 237.373 149.571 236.271 148.263L207.609 114.212C205.407 111.596 205.407 107.355 207.609 104.74C209.813 102.123 213.382 102.124 215.583 104.74L244.246 138.791C246.448 141.406 246.448 145.647 244.247 148.263Z" fill="black"/>
</g>
<g filter="url(#filter1_d)">
<path d="M270.648 153.033C270.712 153.097 270.744 153.193 270.744 153.321C270.744 153.481 270.664 153.529 270.504 153.465C269.416 152.793 268.552 152.009 267.912 151.113C267.304 150.217 267 149.257 267 148.233C267 146.825 267.4 145.625 268.2 144.633C269.032 143.641 270.12 142.777 271.464 142.041C272.84 141.337 274.424 140.745 276.216 140.265C278.008 139.785 279.88 139.337 281.832 138.921C282.056 138.921 282.184 138.985 282.216 139.113C282.312 139.273 282.408 139.561 282.504 139.977C282.632 140.425 282.76 140.825 282.888 141.177C282.92 141.273 282.904 141.417 282.84 141.609C282.808 141.833 282.76 142.089 282.696 142.377C282.664 142.697 282.632 143.065 282.6 143.481C282.6 143.897 282.664 144.377 282.792 144.921C283.112 146.297 283.816 147.369 284.904 148.137C286.024 148.905 287.528 149.289 289.416 149.289C290.344 149.289 291.224 149.129 292.056 148.809C292.888 148.521 293.608 148.073 294.216 147.465C294.856 146.889 295.368 146.153 295.752 145.257C296.168 144.393 296.424 143.369 296.52 142.185C295.464 141.353 294.152 140.601 292.584 139.929C291.016 139.289 289.208 138.697 287.16 138.153C283.64 137.193 280.6 136.073 278.04 134.793C275.512 133.545 273.432 132.153 271.8 130.617C270.168 129.081 268.952 127.417 268.152 125.625C267.384 123.833 267 121.961 267 120.009C267 117.801 267.496 116.185 268.488 115.161C269.512 114.169 270.84 113.673 272.472 113.673C273.944 113.673 275.24 114.089 276.36 114.921C277.48 115.785 278.264 116.825 278.712 118.041C278.84 118.361 278.728 118.457 278.376 118.329C277.384 116.473 275.912 115.545 273.96 115.545C272.392 115.545 271.128 116.041 270.168 117.033C269.24 118.025 268.776 119.513 268.776 121.497C268.776 123.097 268.952 124.489 269.304 125.673C269.688 126.889 270.44 127.993 271.56 128.985C272.712 129.977 274.344 130.905 276.456 131.769C278.568 132.665 281.368 133.593 284.856 134.553C290.168 135.993 294.056 137.993 296.52 140.553C296.424 137.577 295.848 135.017 294.792 132.873C293.768 130.761 292.152 128.937 289.944 127.401C289.88 127.273 289.88 127.161 289.944 127.065C290.008 126.969 290.12 126.953 290.28 127.017C292.488 128.521 294.264 130.537 295.608 133.065C296.984 135.593 297.752 138.649 297.912 142.233C298.712 143.417 299.304 144.729 299.688 146.169C299.688 146.329 299.624 146.409 299.496 146.409C299.4 146.409 299.32 146.329 299.256 146.169C299.032 145.305 298.584 144.457 297.912 143.625C297.912 144.969 297.704 146.169 297.288 147.225C296.872 148.281 296.312 149.177 295.608 149.913C294.904 150.649 294.104 151.209 293.208 151.593C292.312 151.977 291.384 152.169 290.424 152.169C289.08 152.169 287.864 151.913 286.776 151.401C285.688 150.921 284.76 150.217 283.992 149.289C283.224 148.393 282.648 147.289 282.264 145.977C281.912 144.697 281.816 143.257 281.976 141.657C279.48 142.137 277.384 142.665 275.688 143.241C274.024 143.817 272.696 144.441 271.704 145.113C270.712 145.817 270.008 146.585 269.592 147.417C269.176 148.281 268.968 149.209 268.968 150.201C268.968 151.289 269.528 152.233 270.648 153.033ZM270.024 167.631C270.088 167.695 270.088 167.775 270.024 167.871C269.96 167.967 269.864 167.999 269.736 167.967C268.904 167.391 268.232 166.751 267.72 166.047C267.24 165.343 267 164.671 267 164.031C267 163.295 267.512 162.815 268.536 162.591C269.592 162.399 270.84 162.511 272.28 162.927C270.904 162.063 269.72 161.119 268.728 160.095C267.768 159.103 267.192 158.047 267 156.927C267 156.159 267.352 155.567 268.056 155.151C268.76 154.735 269.576 154.527 270.504 154.527C271.56 154.527 272.6 154.783 273.624 155.295C274.68 155.807 275.624 156.479 276.456 157.311C277.288 158.175 277.96 159.119 278.472 160.143C279.016 161.199 279.288 162.255 279.288 163.311C279.288 164.431 279.016 165.311 278.472 165.951C278.696 166.271 278.888 166.671 279.048 167.151C279.208 167.663 279.288 168.111 279.288 168.495C279.288 168.623 279.208 168.687 279.048 168.687C278.152 167.951 277.16 167.311 276.072 166.767C275.016 166.255 273.992 165.855 273 165.567C272.04 165.279 271.176 165.103 270.408 165.039C269.64 164.975 269.112 165.039 268.824 165.231C268.632 165.391 268.568 165.663 268.632 166.047C268.728 166.431 269.192 166.959 270.024 167.631ZM268.776 158.415C268.776 158.799 269.016 159.263 269.496 159.807C269.976 160.383 270.616 160.975 271.416 161.583C272.216 162.191 273.112 162.783 274.104 163.359C275.096 163.967 276.104 164.495 277.128 164.943C277.544 164.815 277.88 164.511 278.136 164.031C278.392 163.583 278.52 163.055 278.52 162.447C278.52 161.711 278.328 161.023 277.944 160.383C277.592 159.743 277.08 159.183 276.408 158.703C275.768 158.255 274.984 157.887 274.056 157.599C273.16 157.343 272.168 157.215 271.08 157.215C270.376 157.215 269.816 157.327 269.4 157.551C268.984 157.807 268.776 158.095 268.776 158.415ZM277.08 187.366C277.752 187.366 278.088 187.126 278.088 186.646C278.088 185.686 277.192 184.55 275.4 183.238C273.64 181.926 271.112 180.71 267.816 179.59C267.624 179.526 267.432 179.254 267.24 178.774C267.08 178.326 267 177.894 267 177.478C267 177.094 267.144 176.95 267.432 177.046C268.008 177.238 268.728 177.494 269.592 177.814C270.456 178.166 271.336 178.486 272.232 178.774C273.16 179.094 274.024 179.366 274.824 179.59C275.656 179.814 276.296 179.926 276.744 179.926C277.608 179.926 278.04 179.654 278.04 179.11C278.04 178.278 277.176 177.222 275.448 175.942C273.752 174.694 271.208 173.478 267.816 172.294C267.624 172.23 267.432 171.974 267.24 171.526C267.08 171.078 267 170.678 267 170.326C267 170.166 267.032 170.038 267.096 169.942C267.16 169.846 267.272 169.83 267.432 169.894C268.136 170.15 268.904 170.422 269.736 170.71C270.6 170.998 271.464 171.286 272.328 171.574C273.192 171.862 274.04 172.118 274.872 172.342C275.704 172.598 276.488 172.822 277.224 173.014C277.8 173.11 278.088 173.014 278.088 172.726C278.088 172.47 277.912 172.166 277.56 171.814C277.208 171.462 276.792 171.11 276.312 170.758C276.248 170.662 276.248 170.566 276.312 170.47C276.408 170.374 276.504 170.358 276.6 170.422C277.336 170.902 277.96 171.478 278.472 172.15C279.016 172.822 279.288 173.542 279.288 174.31C279.288 174.822 279.128 175.158 278.808 175.318C278.488 175.51 278.104 175.558 277.656 175.462C276.952 175.334 276.36 175.206 275.88 175.078C275.4 174.95 274.856 174.774 274.248 174.55C275.72 175.382 276.92 176.294 277.848 177.286C278.808 178.31 279.288 179.398 279.288 180.55C279.288 181.126 279.128 181.558 278.808 181.846C278.488 182.166 278.104 182.326 277.656 182.326C276.408 182.326 275.144 182.102 273.864 181.654C275.624 182.678 276.968 183.67 277.896 184.63C278.824 185.622 279.288 186.806 279.288 188.182C279.288 188.822 279.112 189.27 278.76 189.526C278.44 189.814 278.104 189.958 277.752 189.958C277.208 189.958 276.6 189.83 275.928 189.574C275.288 189.35 274.6 189.078 273.864 188.758C273.16 188.47 272.44 188.198 271.704 187.942C271 187.718 270.312 187.606 269.64 187.606C268.84 187.606 268.44 187.862 268.44 188.374C268.44 188.886 268.968 189.574 270.024 190.438C270.088 190.534 270.072 190.614 269.976 190.678C269.88 190.774 269.768 190.79 269.64 190.726C268.84 190.086 268.2 189.43 267.72 188.758C267.24 188.086 267 187.43 267 186.79C267 185.734 267.608 185.206 268.824 185.206C269.592 185.206 270.36 185.318 271.128 185.542C271.928 185.766 272.68 186.006 273.384 186.262C274.12 186.55 274.808 186.806 275.448 187.03C276.088 187.254 276.632 187.366 277.08 187.366ZM270.024 205.506C270.088 205.57 270.088 205.65 270.024 205.746C269.96 205.842 269.864 205.874 269.736 205.842C268.904 205.266 268.232 204.626 267.72 203.922C267.24 203.218 267 202.546 267 201.906C267 201.17 267.512 200.69 268.536 200.466C269.592 200.274 270.84 200.386 272.28 200.802C270.904 199.938 269.72 198.994 268.728 197.97C267.768 196.978 267.192 195.922 267 194.802C267 194.034 267.352 193.442 268.056 193.026C268.76 192.61 269.576 192.402 270.504 192.402C271.56 192.402 272.6 192.658 273.624 193.17C274.68 193.682 275.624 194.354 276.456 195.186C277.288 196.05 277.96 196.994 278.472 198.018C279.016 199.074 279.288 200.13 279.288 201.186C279.288 202.306 279.016 203.186 278.472 203.826C278.696 204.146 278.888 204.546 279.048 205.026C279.208 205.538 279.288 205.986 279.288 206.37C279.288 206.498 279.208 206.562 279.048 206.562C278.152 205.826 277.16 205.186 276.072 204.642C275.016 204.13 273.992 203.73 273 203.442C272.04 203.154 271.176 202.978 270.408 202.914C269.64 202.85 269.112 202.914 268.824 203.106C268.632 203.266 268.568 203.538 268.632 203.922C268.728 204.306 269.192 204.834 270.024 205.506ZM268.776 196.29C268.776 196.674 269.016 197.138 269.496 197.682C269.976 198.258 270.616 198.85 271.416 199.458C272.216 200.066 273.112 200.658 274.104 201.234C275.096 201.842 276.104 202.37 277.128 202.818C277.544 202.69 277.88 202.386 278.136 201.906C278.392 201.458 278.52 200.93 278.52 200.322C278.52 199.586 278.328 198.898 277.944 198.258C277.592 197.618 277.08 197.058 276.408 196.578C275.768 196.13 274.984 195.762 274.056 195.474C273.16 195.218 272.168 195.09 271.08 195.09C270.376 195.09 269.816 195.202 269.4 195.426C268.984 195.682 268.776 195.97 268.776 196.29ZM270.36 221.689C270.424 221.753 270.408 221.833 270.312 221.929C270.248 222.025 270.152 222.057 270.024 222.025C269.224 221.449 268.52 220.777 267.912 220.009C267.304 219.273 267 218.537 267 217.801C267 217.257 267.176 216.825 267.528 216.505C267.88 216.217 268.344 216.073 268.92 216.073C270.04 216.073 271.256 216.265 272.568 216.649C273.88 217.065 275.208 217.609 276.552 218.281C276.776 218.377 277.016 218.425 277.272 218.425C277.592 218.425 277.752 218.281 277.752 217.993C277.752 216.809 276.936 215.497 275.304 214.057C273.704 212.617 271.144 211.289 267.624 210.073C267.528 210.041 267.432 209.929 267.336 209.737C267.272 209.577 267.208 209.385 267.144 209.161C267.112 208.937 267.08 208.713 267.048 208.489C267.016 208.265 267 208.089 267 207.961C267 207.801 267.032 207.673 267.096 207.577C267.16 207.513 267.272 207.513 267.432 207.577C268.808 208.121 270.312 208.665 271.944 209.209C273.608 209.785 275.272 210.281 276.936 210.697C277.256 210.793 277.48 210.809 277.608 210.745C277.768 210.681 277.848 210.569 277.848 210.409C277.848 210.057 277.688 209.721 277.368 209.401C277.08 209.081 276.76 208.793 276.408 208.537C276.344 208.441 276.36 208.345 276.456 208.249C276.552 208.185 276.648 208.169 276.744 208.201C276.968 208.361 277.224 208.569 277.512 208.825C277.8 209.113 278.072 209.433 278.328 209.785C278.616 210.137 278.84 210.505 279 210.889C279.192 211.273 279.288 211.657 279.288 212.041C279.288 212.585 279.112 212.937 278.76 213.097C278.44 213.289 278.04 213.337 277.56 213.241C276.856 213.081 276.184 212.905 275.544 212.713C274.936 212.553 274.248 212.345 273.48 212.089C274.184 212.473 274.872 212.937 275.544 213.481C276.248 214.057 276.872 214.681 277.416 215.353C277.992 216.057 278.44 216.809 278.76 217.609C279.112 218.409 279.288 219.257 279.288 220.153C279.288 220.537 279.192 220.825 279 221.017C278.808 221.241 278.584 221.353 278.328 221.353C277.88 221.353 277.48 221.241 277.128 221.017C275.912 220.345 274.648 219.769 273.336 219.289C272.056 218.841 270.904 218.617 269.88 218.617C269.048 218.617 268.632 218.889 268.632 219.433C268.632 219.785 268.776 220.137 269.064 220.489C269.352 220.841 269.784 221.241 270.36 221.689ZM281.352 229.718C281.256 229.622 281.256 229.51 281.352 229.382C281.448 229.286 281.576 229.206 281.736 229.142C281.928 229.078 282.12 229.046 282.312 229.046C282.536 229.046 282.728 229.094 282.888 229.19C283.336 229.542 283.896 230.054 284.568 230.726C285.272 231.43 285.864 232.15 286.344 232.886C286.376 232.95 286.344 233.03 286.248 233.126C286.184 233.222 286.12 233.254 286.056 233.222C285.448 232.55 284.712 231.91 283.848 231.302C283.016 230.694 282.184 230.166 281.352 229.718ZM275.928 224.582C275.864 224.486 275.88 224.406 275.976 224.342C276.104 224.278 276.216 224.262 276.312 224.294C277.272 225.478 278.264 227.126 279.288 229.238C279.288 229.494 279.144 229.622 278.856 229.622C278.12 229.206 277.32 228.79 276.456 228.374C275.592 227.99 274.728 227.638 273.864 227.318C273.032 227.03 272.216 226.79 271.416 226.598C270.648 226.406 270.008 226.31 269.496 226.31C268.856 226.31 268.536 226.534 268.536 226.982C268.536 227.334 268.68 227.67 268.968 227.99C269.288 228.342 269.688 228.742 270.168 229.19C270.232 229.254 270.216 229.334 270.12 229.43C270.056 229.526 269.944 229.542 269.784 229.478C268.952 228.774 268.28 228.07 267.768 227.366C267.256 226.694 267 226.038 267 225.398C267 224.278 267.528 223.718 268.584 223.718C269.16 223.718 269.832 223.798 270.6 223.958C271.4 224.15 272.2 224.39 273 224.678C273.832 224.998 274.632 225.334 275.4 225.686C276.2 226.07 276.888 226.454 277.464 226.838C277.272 226.486 277.032 226.086 276.744 225.638C276.456 225.222 276.184 224.87 275.928 224.582ZM273.336 238.503C271.64 238.855 270.328 239.303 269.4 239.847C268.504 240.423 268.056 241.111 268.056 241.911C268.056 242.263 268.136 242.583 268.296 242.871C268.456 243.159 268.76 243.479 269.208 243.831C269.24 243.927 269.208 244.007 269.112 244.071C269.048 244.167 268.968 244.199 268.872 244.167C267.624 243.175 267 241.927 267 240.423C267 239.207 267.528 238.279 268.584 237.639C269.672 237.031 271.288 236.535 273.432 236.151C273.688 236.055 273.848 236.119 273.912 236.343C273.784 236.919 273.768 237.495 273.864 238.071C273.96 238.647 274.136 239.159 274.392 239.607C274.648 240.087 274.984 240.455 275.4 240.711C275.816 240.999 276.28 241.143 276.792 241.143C277.592 241.143 277.992 240.743 277.992 239.943C277.992 238.823 277.448 237.783 276.36 236.823C275.304 235.863 273.736 235.159 271.656 234.711C271.112 234.551 270.536 234.407 269.928 234.279C269.352 234.151 268.84 234.039 268.392 233.943C268.136 233.879 267.944 233.815 267.816 233.751C267.72 233.687 267.608 233.543 267.48 233.319C267.352 233.063 267.24 232.743 267.144 232.359C267.048 231.975 267 231.687 267 231.495C267 231.271 267.16 231.175 267.48 231.207C271.032 231.879 274.376 232.727 277.512 233.751C280.68 234.807 283.592 235.975 286.248 237.255C288.904 238.535 291.288 239.895 293.4 241.335C295.512 242.807 297.288 244.279 298.728 245.751C300.2 247.223 301.32 248.679 302.088 250.119C302.888 251.559 303.288 252.919 303.288 254.199C303.288 254.999 303.128 255.623 302.808 256.071C302.488 256.551 302.072 256.871 301.56 257.031C301.08 257.191 300.552 257.207 299.976 257.079C299.4 256.983 298.872 256.759 298.392 256.407C298.168 256.183 298.216 256.039 298.536 255.975C299.176 256.135 299.8 255.975 300.408 255.495C301.016 255.015 301.32 254.215 301.32 253.095C301.32 251.367 300.808 249.687 299.784 248.055C298.792 246.455 297.224 244.903 295.08 243.399C292.968 241.895 290.248 240.455 286.92 239.079C283.624 237.735 279.672 236.471 275.064 235.287C276.248 235.895 277.24 236.695 278.04 237.687C278.872 238.711 279.288 239.911 279.288 241.287C279.288 242.215 279.048 242.823 278.568 243.111C278.12 243.431 277.672 243.591 277.224 243.591C276.2 243.591 275.32 243.111 274.584 242.151C273.88 241.191 273.464 239.975 273.336 238.503ZM270.024 258.615C270.088 258.679 270.088 258.759 270.024 258.855C269.96 258.951 269.864 258.983 269.736 258.951C268.904 258.375 268.232 257.735 267.72 257.031C267.24 256.327 267 255.655 267 255.015C267 254.279 267.512 253.799 268.536 253.575C269.592 253.383 270.84 253.495 272.28 253.911C270.904 253.047 269.72 252.103 268.728 251.079C267.768 250.087 267.192 249.031 267 247.911C267 247.143 267.352 246.551 268.056 246.135C268.76 245.719 269.576 245.511 270.504 245.511C271.56 245.511 272.6 245.767 273.624 246.279C274.68 246.791 275.624 247.463 276.456 248.295C277.288 249.159 277.96 250.103 278.472 251.127C279.016 252.183 279.288 253.239 279.288 254.295C279.288 255.415 279.016 256.295 278.472 256.935C278.696 257.255 278.888 257.655 279.048 258.135C279.208 258.647 279.288 259.095 279.288 259.479C279.288 259.607 279.208 259.671 279.048 259.671C278.152 258.935 277.16 258.295 276.072 257.751C275.016 257.239 273.992 256.839 273 256.551C272.04 256.263 271.176 256.087 270.408 256.023C269.64 255.959 269.112 256.023 268.824 256.215C268.632 256.375 268.568 256.647 268.632 257.031C268.728 257.415 269.192 257.943 270.024 258.615ZM268.776 249.399C268.776 249.783 269.016 250.247 269.496 250.791C269.976 251.367 270.616 251.959 271.416 252.567C272.216 253.175 273.112 253.767 274.104 254.343C275.096 254.951 276.104 255.479 277.128 255.927C277.544 255.799 277.88 255.495 278.136 255.015C278.392 254.567 278.52 254.039 278.52 253.431C278.52 252.695 278.328 252.007 277.944 251.367C277.592 250.727 277.08 250.167 276.408 249.687C275.768 249.239 274.984 248.871 274.056 248.583C273.16 248.327 272.168 248.199 271.08 248.199C270.376 248.199 269.816 248.311 269.4 248.535C268.984 248.791 268.776 249.079 268.776 249.399Z" fill="black"/>
<path d="M270.648 153.033L271.355 152.326L271.297 152.268L271.229 152.22L270.648 153.033ZM270.504 153.465L269.979 154.316L270.052 154.362L270.133 154.394L270.504 153.465ZM267.912 151.113L267.085 151.675L267.091 151.685L267.098 151.695L267.912 151.113ZM268.2 144.633L267.434 143.991L267.428 143.998L267.422 144.006L268.2 144.633ZM271.464 142.041L271.009 141.151L270.996 141.158L270.984 141.164L271.464 142.041ZM276.216 140.265L275.957 139.299L276.216 140.265ZM281.832 138.921V137.921H281.727L281.624 137.943L281.832 138.921ZM282.216 139.113L281.246 139.356L281.282 139.5L281.359 139.628L282.216 139.113ZM282.504 139.977L281.53 140.202L281.535 140.227L281.542 140.252L282.504 139.977ZM282.888 141.177L283.837 140.861L283.832 140.848L283.828 140.836L282.888 141.177ZM282.84 141.609L281.891 141.293L281.863 141.379L281.85 141.468L282.84 141.609ZM282.696 142.377L281.72 142.161L281.707 142.219L281.701 142.278L282.696 142.377ZM282.6 143.481L281.603 143.405L281.6 143.443V143.481H282.6ZM282.792 144.921L283.766 144.695L283.765 144.692L282.792 144.921ZM284.904 148.137L284.327 148.954L284.338 148.962L284.904 148.137ZM292.056 148.809L291.729 147.864L291.713 147.87L291.697 147.876L292.056 148.809ZM294.216 147.465L293.547 146.722L293.527 146.74L293.509 146.758L294.216 147.465ZM295.752 145.257L294.851 144.824L294.841 144.843L294.833 144.864L295.752 145.257ZM296.52 142.185L297.517 142.266L297.56 141.732L297.139 141.4L296.52 142.185ZM292.584 139.929L292.978 139.01L292.97 139.007L292.962 139.004L292.584 139.929ZM287.16 138.153L286.897 139.118L286.903 139.12L287.16 138.153ZM278.04 134.793L278.487 133.899L278.483 133.897L278.04 134.793ZM271.8 130.617L271.115 131.346L271.8 130.617ZM268.152 125.625L267.233 126.019L267.236 126.026L267.239 126.033L268.152 125.625ZM268.488 115.161L267.792 114.443L267.781 114.454L267.77 114.466L268.488 115.161ZM276.36 114.921L276.971 114.13L276.964 114.124L276.956 114.119L276.36 114.921ZM278.712 118.041L277.774 118.387L277.778 118.4L277.784 118.413L278.712 118.041ZM278.376 118.329L277.494 118.801L277.675 119.138L278.034 119.269L278.376 118.329ZM270.168 117.033L269.449 116.338L269.444 116.344L269.438 116.35L270.168 117.033ZM269.304 125.673L268.345 125.958L268.348 125.967L268.35 125.975L269.304 125.673ZM271.56 128.985L270.897 129.734L270.907 129.743L271.56 128.985ZM276.456 131.769L276.847 130.849L276.835 130.844L276.456 131.769ZM284.856 134.553L284.591 135.518L284.594 135.519L284.856 134.553ZM296.52 140.553L295.8 141.247L297.603 143.121L297.519 140.521L296.52 140.553ZM294.792 132.873L293.892 133.31L293.895 133.315L294.792 132.873ZM289.944 127.401L289.05 127.849L289.164 128.077L289.373 128.222L289.944 127.401ZM289.944 127.065L290.776 127.62L290.776 127.62L289.944 127.065ZM290.28 127.017L290.843 126.191L290.753 126.13L290.651 126.089L290.28 127.017ZM295.608 133.065L294.725 133.535L294.73 133.544L295.608 133.065ZM297.912 142.233L296.913 142.278L296.926 142.56L297.083 142.793L297.912 142.233ZM299.688 146.169H300.688V146.038L300.654 145.912L299.688 146.169ZM299.256 146.169L298.288 146.42L298.304 146.482L298.328 146.541L299.256 146.169ZM297.912 143.625L298.69 142.997L296.912 140.796V143.625H297.912ZM297.288 147.225L296.358 146.859H296.358L297.288 147.225ZM293.208 151.593L292.814 150.674H292.814L293.208 151.593ZM286.776 151.401L287.202 150.497L287.191 150.491L287.18 150.487L286.776 151.401ZM283.992 149.289L284.762 148.652L284.757 148.645L284.751 148.639L283.992 149.289ZM282.264 145.977L281.3 146.243L281.302 146.25L281.304 146.258L282.264 145.977ZM281.976 141.657L282.971 141.757L283.105 140.422L281.787 140.675L281.976 141.657ZM275.688 143.241L275.366 142.295L275.361 142.296L275.688 143.241ZM271.704 145.113L271.143 144.286L271.134 144.292L271.125 144.298L271.704 145.113ZM269.592 147.417L268.698 146.97L268.694 146.977L268.691 146.984L269.592 147.417ZM269.941 153.741C269.751 153.551 269.744 153.348 269.744 153.321H271.744C271.744 153.039 271.673 152.644 271.355 152.326L269.941 153.741ZM269.744 153.321C269.744 153.306 269.74 152.878 270.17 152.62C270.369 152.5 270.561 152.487 270.676 152.495C270.785 152.502 270.856 152.529 270.875 152.537L270.133 154.394C270.271 154.449 270.732 154.615 271.199 154.335C271.708 154.029 271.744 153.497 271.744 153.321H269.744ZM271.029 152.615C270.036 152.001 269.277 151.304 268.726 150.532L267.098 151.695C267.827 152.715 268.796 153.586 269.979 154.316L271.029 152.615ZM268.739 150.552C268.237 149.812 268 149.045 268 148.233H266C266 149.469 266.371 150.623 267.085 151.675L268.739 150.552ZM268 148.233C268 147.028 268.337 146.057 268.978 145.261L267.422 144.006C266.463 145.194 266 146.623 266 148.233H268ZM268.966 145.276C269.705 144.395 270.69 143.606 271.944 142.919L270.984 141.164C269.55 141.949 268.359 142.888 267.434 143.991L268.966 145.276ZM271.919 142.932C273.222 142.265 274.738 141.697 276.475 141.231L275.957 139.299C274.11 139.794 272.458 140.409 271.009 141.151L271.919 142.932ZM276.475 141.231C278.249 140.756 280.104 140.312 282.04 139.899L281.624 137.943C279.656 138.363 277.767 138.815 275.957 139.299L276.475 141.231ZM281.832 139.921C281.868 139.921 281.78 139.93 281.649 139.864C281.575 139.827 281.486 139.766 281.406 139.67C281.324 139.572 281.272 139.462 281.246 139.356L283.186 138.871C283.093 138.498 282.843 138.225 282.543 138.075C282.284 137.945 282.02 137.921 281.832 137.921V139.921ZM281.359 139.628C281.353 139.619 281.374 139.654 281.411 139.766C281.446 139.87 281.486 140.014 281.53 140.202L283.478 139.753C283.381 139.332 283.258 138.906 283.073 138.599L281.359 139.628ZM281.542 140.252C281.675 140.718 281.811 141.141 281.948 141.519L283.828 140.836C283.709 140.51 283.589 140.133 283.466 139.703L281.542 140.252ZM281.939 141.494C281.916 141.423 281.908 141.364 281.905 141.325C281.903 141.285 281.905 141.258 281.906 141.247C281.908 141.228 281.909 141.24 281.891 141.293L283.789 141.926C283.864 141.7 283.978 141.285 283.837 140.861L281.939 141.494ZM281.85 141.468C281.823 141.66 281.78 141.89 281.72 142.161L283.672 142.594C283.74 142.288 283.793 142.006 283.83 141.751L281.85 141.468ZM281.701 142.278C281.668 142.607 281.635 142.983 281.603 143.405L283.597 143.558C283.629 143.148 283.66 142.788 283.691 142.477L281.701 142.278ZM281.6 143.481C281.6 143.996 281.679 144.555 281.819 145.15L283.765 144.692C283.649 144.2 283.6 143.799 283.6 143.481H281.6ZM281.818 145.148C282.19 146.747 283.026 148.036 284.327 148.954L285.481 147.32C284.606 146.703 284.034 145.848 283.766 144.695L281.818 145.148ZM284.338 148.962C285.678 149.881 287.402 150.289 289.416 150.289V148.289C287.654 148.289 286.37 147.93 285.47 147.313L284.338 148.962ZM289.416 150.289C290.462 150.289 291.464 150.109 292.415 149.743L291.697 147.876C290.984 148.15 290.226 148.289 289.416 148.289V150.289ZM292.383 149.754C293.355 149.418 294.205 148.89 294.923 148.173L293.509 146.758C293.011 147.257 292.421 147.625 291.729 147.864L292.383 149.754ZM294.885 148.209C295.646 147.524 296.238 146.663 296.671 145.651L294.833 144.864C294.498 145.644 294.066 146.255 293.547 146.722L294.885 148.209ZM296.653 145.691C297.133 144.694 297.413 143.545 297.517 142.266L295.523 142.105C295.435 143.194 295.203 144.093 294.851 144.824L296.653 145.691ZM297.139 141.4C295.999 140.501 294.606 139.708 292.978 139.01L292.19 140.849C293.698 141.495 294.929 142.205 295.901 142.971L297.139 141.4ZM292.962 139.004C291.346 138.344 289.496 137.739 287.417 137.187L286.903 139.12C288.92 139.656 290.686 140.235 292.206 140.855L292.962 139.004ZM287.423 137.189C283.95 136.242 280.975 135.143 278.487 133.899L277.593 135.688C280.225 137.004 283.33 138.145 286.897 139.118L287.423 137.189ZM278.483 133.897C276.022 132.682 274.029 131.343 272.485 129.889L271.115 131.346C272.835 132.964 275.002 134.409 277.597 135.69L278.483 133.897ZM272.485 129.889C270.936 128.431 269.804 126.873 269.065 125.218L267.239 126.033C268.1 127.962 269.4 129.732 271.115 131.346L272.485 129.889ZM269.071 125.232C268.357 123.564 268 121.826 268 120.009H266C266 122.097 266.411 124.103 267.233 126.019L269.071 125.232ZM268 120.009C268 117.923 268.473 116.615 269.206 115.857L267.77 114.466C266.519 115.756 266 117.68 266 120.009H268ZM269.184 115.88C269.994 115.095 271.059 114.673 272.472 114.673V112.673C270.621 112.673 269.03 113.244 267.792 114.443L269.184 115.88ZM272.472 114.673C273.742 114.673 274.826 115.028 275.764 115.724L276.956 114.119C275.654 113.151 274.146 112.673 272.472 112.673V114.673ZM275.749 115.713C276.734 116.473 277.397 117.364 277.774 118.387L279.65 117.696C279.131 116.287 278.226 115.098 276.971 114.13L275.749 115.713ZM277.784 118.413C277.797 118.447 277.768 118.391 277.764 118.278C277.759 118.157 277.785 117.841 278.073 117.594C278.333 117.371 278.606 117.382 278.664 117.386C278.738 117.391 278.764 117.407 278.718 117.39L278.034 119.269C278.164 119.316 278.336 119.368 278.526 119.381C278.7 119.393 279.059 119.384 279.375 119.113C279.719 118.818 279.771 118.426 279.762 118.201C279.754 117.984 279.691 117.796 279.64 117.67L277.784 118.413ZM279.258 117.858C278.697 116.809 277.972 115.97 277.061 115.396C276.147 114.819 275.101 114.545 273.96 114.545V116.545C274.771 116.545 275.437 116.736 275.995 117.087C276.556 117.441 277.063 117.994 277.494 118.801L279.258 117.858ZM273.96 114.545C272.161 114.545 270.624 115.124 269.449 116.338L270.887 117.729C271.632 116.959 272.623 116.545 273.96 116.545V114.545ZM269.438 116.35C268.271 117.597 267.776 119.375 267.776 121.497H269.776C269.776 119.652 270.209 118.453 270.898 117.717L269.438 116.35ZM267.776 121.497C267.776 123.167 267.959 124.659 268.345 125.958L270.263 125.388C269.945 124.32 269.776 123.028 269.776 121.497H267.776ZM268.35 125.975C268.798 127.391 269.665 128.643 270.897 129.734L272.223 128.237C271.215 127.344 270.578 126.388 270.258 125.372L268.35 125.975ZM270.907 129.743C272.171 130.831 273.91 131.809 276.077 132.695L276.835 130.844C274.778 130.002 273.253 129.124 272.213 128.228L270.907 129.743ZM276.065 132.69C278.234 133.61 281.081 134.552 284.591 135.518L285.121 133.589C281.655 132.635 278.902 131.721 276.847 130.849L276.065 132.69ZM284.594 135.519C289.82 136.935 293.512 138.87 295.8 141.247L297.24 139.86C294.6 137.117 290.516 135.052 285.118 133.588L284.594 135.519ZM297.519 140.521C297.42 137.437 296.821 134.731 295.689 132.432L293.895 133.315C294.875 135.304 295.428 137.718 295.521 140.586L297.519 140.521ZM295.692 132.437C294.583 130.15 292.843 128.2 290.515 126.581L289.373 128.222C291.461 129.675 292.953 131.373 293.892 133.31L295.692 132.437ZM290.838 126.954C290.857 126.992 290.896 127.085 290.896 127.221C290.896 127.369 290.85 127.509 290.776 127.62L289.112 126.511C288.799 126.981 288.87 127.49 289.05 127.849L290.838 126.954ZM290.776 127.62C290.723 127.7 290.645 127.784 290.538 127.852C290.43 127.921 290.318 127.957 290.217 127.971C290.032 127.998 289.913 127.948 289.909 127.946L290.651 126.089C290.487 126.023 290.232 125.949 289.935 125.991C289.591 126.041 289.298 126.231 289.112 126.511L290.776 127.62ZM289.717 127.844C291.781 129.25 293.452 131.14 294.725 133.535L296.491 132.596C295.076 129.935 293.195 127.793 290.843 126.191L289.717 127.844ZM294.73 133.544C296.017 135.909 296.758 138.809 296.913 142.278L298.911 142.189C298.746 138.49 297.951 135.278 296.486 132.587L294.73 133.544ZM297.083 142.793C297.818 143.881 298.365 145.09 298.722 146.427L300.654 145.912C300.243 144.369 299.606 142.954 298.741 141.674L297.083 142.793ZM298.688 146.169C298.688 146.143 298.689 145.937 298.859 145.725C299.063 145.469 299.339 145.409 299.496 145.409V147.409C299.781 147.409 300.153 147.309 300.421 146.974C300.655 146.681 300.688 146.356 300.688 146.169H298.688ZM299.496 145.409C299.76 145.409 299.96 145.531 300.071 145.642C300.121 145.692 300.15 145.736 300.164 145.76C300.172 145.773 300.177 145.783 300.18 145.789C300.182 145.792 300.183 145.794 300.184 145.796C300.184 145.797 300.184 145.797 300.184 145.797C300.184 145.798 300.184 145.798 300.184 145.798L298.328 146.541C298.414 146.758 298.73 147.409 299.496 147.409V145.409ZM300.224 145.918C299.958 144.892 299.434 143.918 298.69 142.997L297.134 144.254C297.734 144.997 298.106 145.719 298.288 146.42L300.224 145.918ZM296.912 143.625C296.912 144.867 296.72 145.939 296.358 146.859L298.218 147.592C298.688 146.4 298.912 145.072 298.912 143.625H296.912ZM296.358 146.859C295.984 147.808 295.49 148.59 294.885 149.222L296.331 150.605C297.134 149.765 297.76 148.755 298.218 147.592L296.358 146.859ZM294.885 149.222C294.27 149.865 293.581 150.346 292.814 150.674L293.602 152.513C294.627 152.073 295.538 151.434 296.331 150.605L294.885 149.222ZM292.814 150.674C292.041 151.006 291.246 151.169 290.424 151.169V153.169C291.522 153.169 292.583 152.949 293.602 152.513L292.814 150.674ZM290.424 151.169C289.21 151.169 288.142 150.939 287.202 150.497L286.35 152.306C287.586 152.888 288.95 153.169 290.424 153.169V151.169ZM287.18 150.487C286.236 150.07 285.433 149.462 284.762 148.652L283.222 149.927C284.087 150.973 285.14 151.773 286.372 152.316L287.18 150.487ZM284.751 148.639C284.089 147.866 283.574 146.894 283.224 145.697L281.304 146.258C281.722 147.685 282.359 148.921 283.233 149.94L284.751 148.639ZM283.228 145.712C282.915 144.573 282.821 143.26 282.971 141.757L280.981 141.558C280.811 143.255 280.909 144.822 281.3 146.243L283.228 145.712ZM281.787 140.675C279.263 141.161 277.12 141.699 275.366 142.295L276.01 144.188C277.648 143.632 279.697 143.114 282.165 142.639L281.787 140.675ZM275.361 142.296C273.649 142.889 272.233 143.547 271.143 144.286L272.265 145.941C273.159 145.336 274.399 144.746 276.015 144.186L275.361 142.296ZM271.125 144.298C270.039 145.069 269.206 145.953 268.698 146.97L270.486 147.865C270.81 147.218 271.385 146.566 272.283 145.929L271.125 144.298ZM268.691 146.984C268.208 147.988 267.968 149.065 267.968 150.201H269.968C269.968 149.354 270.144 148.575 270.493 147.851L268.691 146.984ZM267.968 150.201C267.968 151.697 268.762 152.915 270.067 153.847L271.229 152.22C270.294 151.552 269.968 150.882 269.968 150.201H267.968ZM270.024 167.631L270.731 166.924L270.694 166.886L270.652 166.853L270.024 167.631ZM270.024 167.871L269.192 167.316H269.192L270.024 167.871ZM269.736 167.967L269.167 168.789L269.317 168.893L269.493 168.937L269.736 167.967ZM267.72 166.047L266.894 166.61L266.902 166.623L266.911 166.635L267.72 166.047ZM268.536 162.591L268.357 161.607L268.34 161.61L268.322 161.614L268.536 162.591ZM272.28 162.927L272.002 163.888L272.812 162.08L272.28 162.927ZM268.728 160.095L268.009 160.79L268.01 160.791L268.728 160.095ZM267 156.927H266V157.012L266.014 157.096L267 156.927ZM268.056 155.151L268.565 156.012L268.056 155.151ZM273.624 155.295L273.177 156.19L273.188 156.195L273.624 155.295ZM276.456 157.311L277.176 156.617L277.17 156.611L277.163 156.604L276.456 157.311ZM278.472 160.143L277.578 160.59L277.583 160.601L278.472 160.143ZM278.472 165.951L277.71 165.303L277.21 165.892L277.653 166.525L278.472 165.951ZM279.048 167.151L280.002 166.853L280 166.844L279.997 166.835L279.048 167.151ZM279.048 168.687L278.413 169.46L278.69 169.687H279.048V168.687ZM276.072 166.767L276.519 165.873L276.508 165.867L276.072 166.767ZM273 165.567L272.713 166.525L272.721 166.527L273 165.567ZM270.408 165.039L270.491 164.043V164.043L270.408 165.039ZM268.824 165.231L268.269 164.399L268.225 164.429L268.184 164.463L268.824 165.231ZM268.632 166.047L267.646 166.211L267.652 166.251L267.662 166.29L268.632 166.047ZM269.496 159.807L270.264 159.167L270.255 159.156L270.246 159.145L269.496 159.807ZM271.416 161.583L272.021 160.787L271.416 161.583ZM274.104 163.359L274.627 162.506L274.616 162.5L274.606 162.494L274.104 163.359ZM277.128 164.943L276.727 165.859L277.067 166.008L277.422 165.899L277.128 164.943ZM278.136 164.031L277.268 163.535L277.261 163.548L277.254 163.56L278.136 164.031ZM277.944 160.383L277.068 160.865L277.077 160.881L277.087 160.898L277.944 160.383ZM276.408 158.703L276.989 157.889L276.981 157.884L276.408 158.703ZM274.056 157.599L274.352 156.644L274.342 156.641L274.331 156.638L274.056 157.599ZM269.4 157.551L268.926 156.671L268.9 156.684L268.876 156.699L269.4 157.551ZM269.317 168.338C269.188 168.209 269.072 168 269.072 167.739C269.072 167.512 269.161 167.363 269.192 167.316L270.856 168.426C270.951 168.283 271.072 168.046 271.072 167.739C271.072 167.398 270.924 167.117 270.731 166.924L269.317 168.338ZM269.192 167.316C269.265 167.207 269.396 167.082 269.588 167.018C269.767 166.958 269.913 166.981 269.979 166.997L269.493 168.937C269.687 168.986 269.945 169.008 270.22 168.916C270.508 168.82 270.719 168.632 270.856 168.426L269.192 167.316ZM270.305 167.145C269.551 166.623 268.965 166.059 268.529 165.459L266.911 166.635C267.499 167.444 268.257 168.159 269.167 168.789L270.305 167.145ZM268.546 165.484C268.143 164.892 268 164.413 268 164.031H266C266 164.929 266.337 165.794 266.894 166.61L268.546 165.484ZM268 164.031C268 163.965 268.011 163.931 268.018 163.915C268.024 163.9 268.036 163.879 268.068 163.849C268.143 163.778 268.333 163.659 268.75 163.568L268.322 161.614C267.715 161.747 267.137 161.98 266.7 162.39C266.232 162.829 266 163.402 266 164.031H268ZM268.715 163.575C269.571 163.419 270.655 163.499 272.002 163.888L272.558 161.966C271.025 161.523 269.613 161.379 268.357 161.607L268.715 163.575ZM272.812 162.08C271.495 161.253 270.375 160.358 269.446 159.399L268.01 160.791C269.065 161.88 270.313 162.873 271.748 163.774L272.812 162.08ZM269.447 159.4C268.596 158.521 268.137 157.641 267.986 156.758L266.014 157.096C266.247 158.454 266.94 159.685 268.009 160.79L269.447 159.4ZM268 156.927C268 156.54 268.141 156.262 268.565 156.012L267.547 154.29C266.563 154.872 266 155.778 266 156.927H268ZM268.565 156.012C269.095 155.699 269.73 155.527 270.504 155.527V153.527C269.422 153.527 268.425 153.771 267.547 154.29L268.565 156.012ZM270.504 155.527C271.392 155.527 272.28 155.741 273.177 156.189L274.071 154.401C272.92 153.825 271.728 153.527 270.504 153.527V155.527ZM273.188 156.195C274.143 156.658 274.996 157.265 275.749 158.018L277.163 156.604C276.252 155.693 275.217 154.956 274.06 154.395L273.188 156.195ZM275.736 158.005C276.501 158.799 277.113 159.661 277.578 160.59L279.366 159.696C278.807 158.577 278.075 157.551 277.176 156.617L275.736 158.005ZM277.583 160.601C278.063 161.533 278.288 162.433 278.288 163.311H280.288C280.288 162.077 279.969 160.865 279.361 159.685L277.583 160.601ZM278.288 163.311C278.288 164.274 278.056 164.897 277.71 165.303L279.234 166.599C279.976 165.725 280.288 164.589 280.288 163.311H278.288ZM277.653 166.525C277.808 166.746 277.961 167.053 278.099 167.467L279.997 166.835C279.815 166.289 279.584 165.796 279.291 165.378L277.653 166.525ZM278.094 167.449C278.234 167.9 278.288 168.243 278.288 168.495H280.288C280.288 167.979 280.182 167.426 280.002 166.853L278.094 167.449ZM278.288 168.495C278.288 168.338 278.348 168.062 278.603 167.858C278.816 167.688 279.021 167.687 279.048 167.687V169.687C279.235 169.687 279.56 169.654 279.853 169.42C280.188 169.152 280.288 168.78 280.288 168.495H278.288ZM279.683 167.914C278.726 167.129 277.671 166.448 276.519 165.873L275.625 167.661C276.649 168.174 277.578 168.774 278.413 169.46L279.683 167.914ZM276.508 165.867C275.408 165.334 274.332 164.912 273.279 164.607L272.721 166.527C273.652 166.798 274.624 167.176 275.636 167.667L276.508 165.867ZM273.287 164.609C272.279 164.307 271.345 164.114 270.491 164.043L270.325 166.036C271.007 166.092 271.801 166.251 272.713 166.525L273.287 164.609ZM270.491 164.043C270.067 164.007 269.67 164.003 269.316 164.046C268.972 164.088 268.595 164.182 268.269 164.399L269.379 166.063C269.341 166.088 269.372 166.054 269.556 166.032C269.73 166.011 269.981 166.007 270.325 166.036L270.491 164.043ZM268.184 164.463C267.588 164.959 267.558 165.686 267.646 166.211L269.618 165.883C269.6 165.774 269.613 165.751 269.605 165.784C269.601 165.804 269.59 165.839 269.564 165.882C269.538 165.925 269.504 165.966 269.464 165.999L268.184 164.463ZM267.662 166.29C267.768 166.714 268.033 167.087 268.301 167.391C268.584 167.714 268.956 168.054 269.396 168.409L270.652 166.853C270.26 166.536 269.984 166.276 269.803 166.071C269.607 165.847 269.592 165.764 269.602 165.805L267.662 166.29ZM267.776 158.415C267.776 159.182 268.231 159.884 268.746 160.469L270.246 159.145C270.041 158.913 269.915 158.729 269.844 158.592C269.772 158.453 269.776 158.4 269.776 158.415H267.776ZM268.728 160.447C269.269 161.097 269.97 161.74 270.811 162.379L272.021 160.787C271.262 160.21 270.683 159.669 270.264 159.167L268.728 160.447ZM270.811 162.379C271.648 163.015 272.579 163.63 273.602 164.224L274.606 162.494C273.645 161.936 272.784 161.367 272.021 160.787L270.811 162.379ZM273.581 164.212C274.611 164.843 275.66 165.392 276.727 165.859L277.529 164.027C276.548 163.598 275.581 163.091 274.627 162.506L273.581 164.212ZM277.422 165.899C278.15 165.675 278.671 165.153 279.018 164.502L277.254 163.56C277.089 163.869 276.938 163.955 276.834 163.987L277.422 165.899ZM279.004 164.527C279.361 163.903 279.52 163.198 279.52 162.447H277.52C277.52 162.912 277.423 163.263 277.268 163.535L279.004 164.527ZM279.52 162.447C279.52 161.527 279.277 160.662 278.801 159.869L277.087 160.898C277.379 161.384 277.52 161.895 277.52 162.447H279.52ZM278.82 159.901C278.387 159.114 277.767 158.445 276.989 157.889L275.827 159.517C276.393 159.921 276.797 160.373 277.068 160.865L278.82 159.901ZM276.981 157.884C276.239 157.364 275.356 156.956 274.352 156.644L273.76 158.554C274.612 158.819 275.297 159.146 275.835 159.522L276.981 157.884ZM274.331 156.638C273.332 156.352 272.246 156.215 271.08 156.215V158.215C272.09 158.215 272.988 158.334 273.781 158.561L274.331 156.638ZM271.08 156.215C270.285 156.215 269.542 156.339 268.926 156.671L269.874 158.432C270.09 158.315 270.467 158.215 271.08 158.215V156.215ZM268.876 156.699C268.33 157.035 267.776 157.59 267.776 158.415H269.776C269.776 158.446 269.771 158.477 269.761 158.505C269.752 158.532 269.742 158.545 269.743 158.545C269.743 158.543 269.754 158.529 269.784 158.503C269.814 158.477 269.859 158.443 269.924 158.403L268.876 156.699ZM275.4 183.238L274.802 184.04L274.809 184.045L275.4 183.238ZM267.816 179.59L268.138 178.643L268.132 178.642L267.816 179.59ZM267.24 178.774L266.298 179.111L266.305 179.128L266.312 179.146L267.24 178.774ZM267.432 177.046L267.116 177.995L267.432 177.046ZM269.592 177.814L269.969 176.888L269.954 176.882L269.939 176.876L269.592 177.814ZM272.232 178.774L272.558 177.829L272.548 177.825L272.538 177.822L272.232 178.774ZM274.824 179.59L274.554 180.553L274.564 180.556L274.824 179.59ZM275.448 175.942L276.043 175.139L276.041 175.137L275.448 175.942ZM267.816 172.294L268.146 171.35L268.132 171.346L267.816 172.294ZM267.24 171.526L266.298 171.863L266.309 171.892L266.321 171.92L267.24 171.526ZM267.096 169.942L266.264 169.387L267.096 169.942ZM267.432 169.894L267.061 170.823L267.075 170.829L267.09 170.834L267.432 169.894ZM269.736 170.71L269.409 171.655L269.42 171.659L269.736 170.71ZM272.328 171.574L272.012 172.523L272.328 171.574ZM274.872 172.342L275.166 171.386L275.149 171.381L275.132 171.377L274.872 172.342ZM277.224 173.014L276.972 173.982L277.015 173.993L277.06 174.001L277.224 173.014ZM277.56 171.814L278.267 171.107L277.56 171.814ZM276.312 170.758L275.48 171.313L275.578 171.46L275.721 171.565L276.312 170.758ZM276.312 170.47L275.605 169.763L275.535 169.833L275.48 169.915L276.312 170.47ZM276.6 170.422L276.045 171.254L276.054 171.26L276.6 170.422ZM278.472 172.15L277.677 172.756L277.685 172.768L277.695 172.779L278.472 172.15ZM278.808 175.318L278.361 174.424L278.326 174.441L278.294 174.461L278.808 175.318ZM277.656 175.462L277.866 174.484L277.85 174.481L277.835 174.478L277.656 175.462ZM275.88 175.078L276.138 174.112L275.88 175.078ZM274.248 174.55L274.594 173.612L273.756 175.421L274.248 174.55ZM277.848 177.286L277.118 177.969L277.118 177.97L277.848 177.286ZM278.808 181.846L278.139 181.103L278.119 181.12L278.101 181.139L278.808 181.846ZM273.864 181.654L274.194 180.71L273.361 182.519L273.864 181.654ZM277.896 184.63L278.626 183.947L278.621 183.941L278.615 183.935L277.896 184.63ZM278.76 189.526L278.172 188.717L278.13 188.748L278.091 188.783L278.76 189.526ZM275.928 189.574L276.284 188.64L276.271 188.635L276.258 188.63L275.928 189.574ZM273.864 188.758L274.263 187.841L274.253 187.837L274.243 187.833L273.864 188.758ZM271.704 187.942L272.033 186.998L272.02 186.993L272.007 186.989L271.704 187.942ZM270.024 190.438L270.856 189.883L270.773 189.759L270.657 189.664L270.024 190.438ZM269.976 190.678L269.421 189.846L269.339 189.901L269.269 189.971L269.976 190.678ZM269.64 190.726L269.015 191.507L269.098 191.573L269.193 191.621L269.64 190.726ZM271.128 185.542L270.848 186.502L270.858 186.505L271.128 185.542ZM273.384 186.262L273.748 185.331L273.737 185.327L273.726 185.322L273.384 186.262ZM275.448 187.03L275.778 186.086L275.448 187.03ZM277.08 188.366C277.505 188.366 278.003 188.296 278.417 188C278.893 187.66 279.088 187.149 279.088 186.646H277.088C277.088 186.65 277.088 186.605 277.119 186.538C277.153 186.466 277.204 186.408 277.255 186.372C277.299 186.341 277.321 186.341 277.289 186.348C277.258 186.356 277.192 186.366 277.08 186.366V188.366ZM279.088 186.646C279.088 185.853 278.721 185.114 278.201 184.455C277.676 183.789 276.925 183.115 275.991 182.431L274.809 184.045C275.667 184.673 276.26 185.224 276.631 185.693C277.007 186.17 277.088 186.48 277.088 186.646H279.088ZM275.998 182.436C274.12 181.036 271.482 179.78 268.138 178.643L267.494 180.537C270.742 181.641 273.16 182.816 274.802 184.04L275.998 182.436ZM268.132 178.642C268.238 178.677 268.304 178.727 268.331 178.751C268.357 178.774 268.36 178.783 268.345 178.762C268.331 178.741 268.306 178.703 268.275 178.64C268.243 178.579 268.208 178.5 268.168 178.403L266.312 179.146C266.422 179.423 266.552 179.69 266.711 179.915C266.858 180.122 267.108 180.408 267.5 180.539L268.132 178.642ZM268.182 178.438C268.055 178.083 268 177.764 268 177.478H266C266 178.024 266.105 178.57 266.298 179.111L268.182 178.438ZM268 177.478C268 177.438 268.004 177.452 267.992 177.498C267.979 177.545 267.937 177.667 267.815 177.789C267.679 177.925 267.509 177.996 267.353 178.013C267.218 178.028 267.13 178 267.116 177.995L267.748 176.098C267.442 175.996 266.862 175.914 266.401 176.375C266.032 176.744 266 177.231 266 177.478H268ZM267.116 177.995C267.678 178.182 268.386 178.434 269.245 178.752L269.939 176.876C269.07 176.554 268.338 176.294 267.748 176.098L267.116 177.995ZM269.215 178.74C270.102 179.102 271.006 179.431 271.926 179.726L272.538 177.822C271.666 177.542 270.81 177.23 269.969 176.888L269.215 178.74ZM271.906 179.72C272.849 180.045 273.732 180.323 274.554 180.553L275.094 178.627C274.316 178.409 273.471 178.144 272.558 177.829L271.906 179.72ZM274.564 180.556C275.418 180.786 276.161 180.926 276.744 180.926V178.926C276.431 178.926 275.894 178.843 275.084 178.625L274.564 180.556ZM276.744 180.926C277.249 180.926 277.797 180.853 278.249 180.568C278.778 180.235 279.04 179.699 279.04 179.11H277.04C277.04 179.112 277.04 179.065 277.075 178.999C277.112 178.931 277.159 178.891 277.183 178.876C277.2 178.865 277.184 178.88 277.106 178.897C277.028 178.913 276.911 178.926 276.744 178.926V180.926ZM279.04 179.11C279.04 178.356 278.658 177.662 278.166 177.061C277.661 176.443 276.94 175.803 276.043 175.139L274.853 176.746C275.684 177.361 276.259 177.889 276.618 178.327C276.99 178.783 277.04 179.032 277.04 179.11H279.04ZM276.041 175.137C274.227 173.802 271.575 172.547 268.146 171.35L267.486 173.238C270.841 174.409 273.277 175.586 274.855 176.748L276.041 175.137ZM268.132 171.346C268.227 171.377 268.286 171.42 268.312 171.442C268.338 171.463 268.342 171.472 268.328 171.454C268.315 171.437 268.292 171.403 268.262 171.347C268.232 171.292 268.197 171.221 268.159 171.132L266.321 171.92C266.434 172.183 266.566 172.439 266.728 172.654C266.881 172.858 267.128 173.119 267.5 173.243L268.132 171.346ZM268.182 171.19C268.048 170.814 268 170.531 268 170.326H266C266 170.825 266.112 171.342 266.298 171.863L268.182 171.19ZM268 170.326C268 170.29 268.008 170.376 267.928 170.497L266.264 169.387C266.056 169.7 266 170.043 266 170.326H268ZM267.928 170.497C267.875 170.576 267.797 170.661 267.69 170.729C267.582 170.797 267.47 170.834 267.369 170.848C267.184 170.875 267.065 170.824 267.061 170.823L267.803 168.966C267.639 168.9 267.384 168.826 267.087 168.868C266.743 168.917 266.45 169.108 266.264 169.387L267.928 170.497ZM267.09 170.834C267.8 171.092 268.573 171.366 269.409 171.655L270.063 169.765C269.235 169.479 268.472 169.208 267.774 168.954L267.09 170.834ZM269.42 171.659C270.284 171.947 271.148 172.235 272.012 172.523L272.644 170.626C271.78 170.338 270.916 170.05 270.052 169.762L269.42 171.659ZM272.012 172.523C272.893 172.817 273.76 173.078 274.612 173.308L275.132 171.377C274.32 171.158 273.491 170.908 272.644 170.626L272.012 172.523ZM274.578 173.298C275.422 173.558 276.22 173.786 276.972 173.982L277.476 172.047C276.756 171.859 275.986 171.639 275.166 171.386L274.578 173.298ZM277.06 174.001C277.386 174.055 277.804 174.091 278.188 173.963C278.402 173.892 278.647 173.755 278.834 173.506C279.024 173.253 279.088 172.97 279.088 172.726H277.088C277.088 172.626 277.116 172.464 277.234 172.306C277.349 172.153 277.486 172.089 277.556 172.066C277.619 172.044 277.644 172.05 277.602 172.05C277.564 172.05 277.496 172.046 277.388 172.028L277.06 174.001ZM279.088 172.726C279.088 172.045 278.651 171.491 278.267 171.107L276.853 172.521C276.991 172.659 277.06 172.755 277.091 172.807C277.122 172.861 277.088 172.828 277.088 172.726H279.088ZM278.267 171.107C277.873 170.713 277.417 170.328 276.903 169.952L275.721 171.565C276.167 171.892 276.543 172.211 276.853 172.521L278.267 171.107ZM277.144 170.203C277.199 170.286 277.264 170.428 277.264 170.614C277.264 170.8 277.199 170.942 277.144 171.025L275.48 169.915C275.361 170.094 275.264 170.332 275.264 170.614C275.264 170.896 275.361 171.134 275.48 171.313L277.144 170.203ZM277.019 171.177C276.976 171.22 276.845 171.335 276.62 171.373C276.372 171.414 276.167 171.335 276.045 171.254L277.155 169.59C276.937 169.445 276.636 169.342 276.292 169.4C275.971 169.453 275.744 169.624 275.605 169.763L277.019 171.177ZM276.054 171.26C276.698 171.68 277.237 172.179 277.677 172.756L279.267 171.544C278.683 170.778 277.974 170.124 277.146 169.585L276.054 171.26ZM277.695 172.779C278.114 173.297 278.288 173.8 278.288 174.31H280.288C280.288 173.284 279.918 172.347 279.249 171.521L277.695 172.779ZM278.288 174.31C278.288 174.387 278.282 174.441 278.275 174.476C278.269 174.51 278.263 174.521 278.265 174.516C278.268 174.51 278.278 174.492 278.299 174.47C278.321 174.448 278.343 174.432 278.361 174.424L279.255 176.213C280.053 175.814 280.288 175.015 280.288 174.31H278.288ZM278.294 174.461C278.238 174.494 278.125 174.54 277.866 174.484L277.446 176.44C278.083 176.576 278.738 176.526 279.322 176.176L278.294 174.461ZM277.835 174.478C277.147 174.353 276.583 174.231 276.138 174.112L275.622 176.044C276.137 176.182 276.757 176.315 277.477 176.446L277.835 174.478ZM276.138 174.112C275.695 173.994 275.181 173.828 274.594 173.612L273.902 175.489C274.531 175.72 275.105 175.907 275.622 176.044L276.138 174.112ZM273.756 175.421C275.16 176.214 276.274 177.067 277.118 177.969L278.578 176.603C277.566 175.521 276.28 174.55 274.74 173.68L273.756 175.421ZM277.118 177.97C277.945 178.851 278.288 179.705 278.288 180.55H280.288C280.288 179.091 279.671 177.769 278.578 176.602L277.118 177.97ZM278.288 180.55C278.288 180.943 278.184 181.063 278.139 181.103L279.477 182.589C280.072 182.054 280.288 181.309 280.288 180.55H278.288ZM278.101 181.139C277.966 181.274 277.836 181.326 277.656 181.326V183.326C278.372 183.326 279.01 183.059 279.515 182.553L278.101 181.139ZM277.656 181.326C276.53 181.326 275.377 181.124 274.194 180.71L273.534 182.598C274.911 183.08 276.286 183.326 277.656 183.326V181.326ZM273.361 182.519C275.079 183.518 276.337 184.456 277.177 185.325L278.615 183.935C277.599 182.884 276.169 181.839 274.367 180.79L273.361 182.519ZM277.166 185.313C277.918 186.117 278.288 187.056 278.288 188.182H280.288C280.288 186.556 279.73 185.127 278.626 183.947L277.166 185.313ZM278.288 188.182C278.288 188.416 278.255 188.556 278.225 188.633C278.199 188.699 278.178 188.713 278.172 188.717L279.348 190.335C280.065 189.814 280.288 188.984 280.288 188.182H278.288ZM278.091 188.783C277.912 188.944 277.805 188.958 277.752 188.958V190.958C278.403 190.958 278.968 190.684 279.429 190.269L278.091 188.783ZM277.752 188.958C277.362 188.958 276.877 188.866 276.284 188.64L275.572 190.509C276.323 190.795 277.054 190.958 277.752 190.958V188.958ZM276.258 188.63C275.645 188.416 274.98 188.153 274.263 187.841L273.465 189.675C274.22 190.003 274.931 190.285 275.598 190.518L276.258 188.63ZM274.243 187.833C273.522 187.538 272.785 187.259 272.033 186.998L271.375 188.887C272.095 189.137 272.798 189.403 273.485 189.684L274.243 187.833ZM272.007 186.989C271.215 186.737 270.425 186.606 269.64 186.606V188.606C270.199 188.606 270.785 188.699 271.401 188.895L272.007 186.989ZM269.64 186.606C269.165 186.606 268.638 186.676 268.201 186.956C267.688 187.284 267.44 187.809 267.44 188.374H269.44C269.44 188.378 269.439 188.43 269.402 188.5C269.364 188.574 269.312 188.62 269.279 188.64C269.253 188.657 269.258 188.646 269.324 188.632C269.388 188.618 269.49 188.606 269.64 188.606V186.606ZM267.44 188.374C267.44 188.957 267.729 189.474 268.043 189.883C268.372 190.312 268.833 190.756 269.391 191.212L270.657 189.664C270.159 189.257 269.828 188.924 269.629 188.665C269.415 188.386 269.44 188.303 269.44 188.374H267.44ZM269.192 190.993C269.138 190.913 269.017 190.686 269.079 190.374C269.142 190.062 269.341 189.9 269.421 189.846L270.531 191.51C270.707 191.393 270.962 191.158 271.041 190.766C271.119 190.375 270.974 190.06 270.856 189.883L269.192 190.993ZM269.269 189.971C269.342 189.898 269.48 189.801 269.679 189.772C269.871 189.745 270.018 189.797 270.087 189.832L269.193 191.621C269.39 191.719 269.657 191.796 269.961 191.752C270.272 191.708 270.514 191.555 270.683 191.385L269.269 189.971ZM270.265 189.945C269.52 189.35 268.949 188.759 268.534 188.177L266.906 189.339C267.451 190.102 268.16 190.823 269.015 191.507L270.265 189.945ZM268.534 188.177C268.14 187.625 268 187.169 268 186.79H266C266 187.692 266.34 188.547 266.906 189.339L268.534 188.177ZM268 186.79C268 186.456 268.09 186.376 268.112 186.357C268.161 186.315 268.338 186.206 268.824 186.206V184.206C268.094 184.206 267.359 184.362 266.8 184.847C266.214 185.356 266 186.068 266 186.79H268ZM268.824 186.206C269.493 186.206 270.167 186.304 270.848 186.502L271.408 184.582C270.553 184.333 269.691 184.206 268.824 184.206V186.206ZM270.858 186.505C271.637 186.723 272.364 186.955 273.042 187.202L273.726 185.322C272.996 185.057 272.219 184.809 271.398 184.579L270.858 186.505ZM273.02 187.193C273.765 187.485 274.465 187.745 275.118 187.974L275.778 186.086C275.151 185.867 274.475 185.615 273.748 185.331L273.02 187.193ZM275.118 187.974C275.815 188.218 276.477 188.366 277.08 188.366V186.366C276.787 186.366 276.361 186.29 275.778 186.086L275.118 187.974ZM270.024 205.506L270.731 204.799L270.694 204.761L270.652 204.728L270.024 205.506ZM270.024 205.746L269.192 205.191H269.192L270.024 205.746ZM269.736 205.842L269.167 206.664L269.317 206.768L269.493 206.812L269.736 205.842ZM267.72 203.922L266.894 204.485L266.902 204.498L266.911 204.51L267.72 203.922ZM268.536 200.466L268.357 199.482L268.34 199.485L268.322 199.489L268.536 200.466ZM272.28 200.802L272.002 201.763L272.812 199.955L272.28 200.802ZM268.728 197.97L268.009 198.665L268.01 198.666L268.728 197.97ZM267 194.802H266V194.887L266.014 194.971L267 194.802ZM268.056 193.026L268.565 193.887L268.056 193.026ZM273.624 193.17L273.177 194.065L273.188 194.07L273.624 193.17ZM276.456 195.186L277.176 194.492L277.17 194.486L277.163 194.479L276.456 195.186ZM278.472 198.018L277.578 198.465L277.583 198.476L278.472 198.018ZM278.472 203.826L277.71 203.178L277.21 203.767L277.653 204.4L278.472 203.826ZM279.048 205.026L280.002 204.728L280 204.719L279.997 204.71L279.048 205.026ZM279.048 206.562L278.413 207.335L278.69 207.562H279.048V206.562ZM276.072 204.642L276.519 203.748L276.508 203.742L276.072 204.642ZM273 203.442L272.713 204.4L272.721 204.402L273 203.442ZM270.408 202.914L270.491 201.918L270.408 202.914ZM268.824 203.106L268.269 202.274L268.225 202.304L268.184 202.338L268.824 203.106ZM268.632 203.922L267.646 204.086L267.652 204.126L267.662 204.165L268.632 203.922ZM269.496 197.682L270.264 197.042L270.255 197.031L270.246 197.02L269.496 197.682ZM271.416 199.458L272.021 198.662L271.416 199.458ZM274.104 201.234L274.627 200.381L274.616 200.375L274.606 200.369L274.104 201.234ZM277.128 202.818L276.727 203.734L277.067 203.883L277.422 203.774L277.128 202.818ZM278.136 201.906L277.268 201.41L277.261 201.423L277.254 201.435L278.136 201.906ZM277.944 198.258L277.068 198.74L277.077 198.756L277.087 198.773L277.944 198.258ZM276.408 196.578L276.989 195.764L276.981 195.759L276.408 196.578ZM274.056 195.474L274.352 194.519L274.342 194.516L274.331 194.513L274.056 195.474ZM269.4 195.426L268.926 194.546L268.9 194.559L268.876 194.574L269.4 195.426ZM269.317 206.213C269.188 206.084 269.072 205.875 269.072 205.614C269.072 205.387 269.161 205.238 269.192 205.191L270.856 206.301C270.951 206.158 271.072 205.921 271.072 205.614C271.072 205.273 270.924 204.992 270.731 204.799L269.317 206.213ZM269.192 205.191C269.265 205.082 269.396 204.957 269.588 204.893C269.767 204.833 269.913 204.856 269.979 204.872L269.493 206.812C269.687 206.861 269.945 206.883 270.22 206.791C270.508 206.695 270.719 206.507 270.856 206.301L269.192 205.191ZM270.305 205.02C269.551 204.498 268.965 203.934 268.529 203.334L266.911 204.51C267.499 205.319 268.257 206.034 269.167 206.664L270.305 205.02ZM268.546 203.359C268.143 202.767 268 202.288 268 201.906H266C266 202.804 266.337 203.669 266.894 204.485L268.546 203.359ZM268 201.906C268 201.84 268.011 201.806 268.018 201.79C268.024 201.775 268.036 201.754 268.068 201.724C268.143 201.653 268.333 201.534 268.75 201.443L268.322 199.489C267.715 199.622 267.137 199.855 266.7 200.265C266.232 200.704 266 201.277 266 201.906H268ZM268.715 201.45C269.571 201.294 270.655 201.374 272.002 201.763L272.558 199.841C271.025 199.398 269.613 199.254 268.357 199.482L268.715 201.45ZM272.812 199.955C271.495 199.128 270.375 198.233 269.446 197.274L268.01 198.666C269.065 199.755 270.313 200.748 271.748 201.649L272.812 199.955ZM269.447 197.275C268.596 196.396 268.137 195.516 267.986 194.633L266.014 194.971C266.247 196.329 266.94 197.56 268.009 198.665L269.447 197.275ZM268 194.802C268 194.415 268.141 194.137 268.565 193.887L267.547 192.165C266.563 192.747 266 193.653 266 194.802H268ZM268.565 193.887C269.095 193.574 269.73 193.402 270.504 193.402V191.402C269.422 191.402 268.425 191.646 267.547 192.165L268.565 193.887ZM270.504 193.402C271.392 193.402 272.28 193.616 273.177 194.064L274.071 192.276C272.92 191.7 271.728 191.402 270.504 191.402V193.402ZM273.188 194.07C274.143 194.533 274.996 195.14 275.749 195.893L277.163 194.479C276.252 193.568 275.217 192.831 274.06 192.27L273.188 194.07ZM275.736 195.88C276.501 196.674 277.113 197.536 277.578 198.465L279.366 197.571C278.807 196.452 278.075 195.426 277.176 194.492L275.736 195.88ZM277.583 198.476C278.063 199.408 278.288 200.308 278.288 201.186H280.288C280.288 199.952 279.969 198.74 279.361 197.56L277.583 198.476ZM278.288 201.186C278.288 202.149 278.056 202.772 277.71 203.178L279.234 204.474C279.976 203.6 280.288 202.464 280.288 201.186H278.288ZM277.653 204.4C277.808 204.621 277.961 204.928 278.099 205.342L279.997 204.71C279.815 204.164 279.584 203.671 279.291 203.253L277.653 204.4ZM278.094 205.324C278.234 205.775 278.288 206.118 278.288 206.37H280.288C280.288 205.854 280.182 205.301 280.002 204.728L278.094 205.324ZM278.288 206.37C278.288 206.213 278.348 205.937 278.603 205.733C278.816 205.563 279.021 205.562 279.048 205.562V207.562C279.235 207.562 279.56 207.529 279.853 207.295C280.188 207.027 280.288 206.655 280.288 206.37H278.288ZM279.683 205.789C278.726 205.004 277.671 204.323 276.519 203.748L275.625 205.536C276.649 206.049 277.578 206.649 278.413 207.335L279.683 205.789ZM276.508 203.742C275.408 203.209 274.332 202.787 273.279 202.482L272.721 204.402C273.652 204.673 274.624 205.051 275.636 205.542L276.508 203.742ZM273.287 202.484C272.279 202.182 271.345 201.989 270.491 201.918L270.325 203.911C271.007 203.967 271.801 204.126 272.713 204.4L273.287 202.484ZM270.491 201.918C270.067 201.882 269.67 201.878 269.316 201.921C268.972 201.963 268.595 202.057 268.269 202.274L269.379 203.938C269.341 203.963 269.372 203.929 269.556 203.907C269.73 203.886 269.981 203.882 270.325 203.911L270.491 201.918ZM268.184 202.338C267.588 202.834 267.558 203.561 267.646 204.086L269.618 203.758C269.6 203.649 269.613 203.626 269.605 203.659C269.601 203.679 269.59 203.714 269.564 203.757C269.538 203.8 269.504 203.841 269.464 203.874L268.184 202.338ZM267.662 204.165C267.768 204.589 268.033 204.962 268.301 205.266C268.584 205.589 268.956 205.929 269.396 206.284L270.652 204.728C270.26 204.411 269.984 204.151 269.803 203.946C269.607 203.722 269.592 203.639 269.602 203.68L267.662 204.165ZM267.776 196.29C267.776 197.057 268.231 197.759 268.746 198.344L270.246 197.02C270.041 196.788 269.915 196.604 269.844 196.467C269.772 196.328 269.776 196.275 269.776 196.29H267.776ZM268.728 198.322C269.269 198.972 269.97 199.615 270.811 200.254L272.021 198.662C271.262 198.085 270.683 197.544 270.264 197.042L268.728 198.322ZM270.811 200.254C271.648 200.89 272.579 201.505 273.602 202.099L274.606 200.369C273.645 199.811 272.784 199.242 272.021 198.662L270.811 200.254ZM273.581 202.087C274.611 202.718 275.66 203.267 276.727 203.734L277.529 201.902C276.548 201.473 275.581 200.966 274.627 200.381L273.581 202.087ZM277.422 203.774C278.15 203.55 278.671 203.028 279.018 202.377L277.254 201.435C277.089 201.744 276.938 201.83 276.834 201.862L277.422 203.774ZM279.004 202.402C279.361 201.778 279.52 201.073 279.52 200.322H277.52C277.52 200.787 277.423 201.138 277.268 201.41L279.004 202.402ZM279.52 200.322C279.52 199.402 279.277 198.537 278.801 197.744L277.087 198.773C277.379 199.259 277.52 199.77 277.52 200.322H279.52ZM278.82 197.776C278.387 196.989 277.767 196.32 276.989 195.764L275.827 197.392C276.393 197.796 276.797 198.248 277.068 198.74L278.82 197.776ZM276.981 195.759C276.239 195.239 275.356 194.831 274.352 194.519L273.76 196.429C274.612 196.694 275.297 197.021 275.835 197.397L276.981 195.759ZM274.331 194.513C273.332 194.227 272.246 194.09 271.08 194.09V196.09C272.09 196.09 272.988 196.209 273.781 196.436L274.331 194.513ZM271.08 194.09C270.285 194.09 269.542 194.214 268.926 194.546L269.874 196.307C270.09 196.19 270.467 196.09 271.08 196.09V194.09ZM268.876 194.574C268.33 194.91 267.776 195.464 267.776 196.29H269.776C269.776 196.321 269.771 196.352 269.761 196.38C269.752 196.407 269.742 196.42 269.743 196.42C269.743 196.418 269.754 196.404 269.784 196.378C269.814 196.352 269.859 196.318 269.924 196.278L268.876 194.574ZM270.36 221.689L271.067 220.982L271.023 220.938L270.974 220.9L270.36 221.689ZM270.312 221.929L269.605 221.222L269.535 221.292L269.48 221.374L270.312 221.929ZM270.024 222.025L269.44 222.837L269.595 222.949L269.781 222.995L270.024 222.025ZM267.912 220.009L268.696 219.388L268.69 219.38L268.683 219.372L267.912 220.009ZM267.528 216.505L266.895 215.731L266.875 215.748L266.855 215.765L267.528 216.505ZM272.568 216.649L272.87 215.696L272.86 215.693L272.849 215.689L272.568 216.649ZM276.552 218.281L276.105 219.176L276.131 219.189L276.158 219.2L276.552 218.281ZM275.304 214.057L274.635 214.801L274.642 214.807L275.304 214.057ZM267.624 210.073L267.951 209.128L267.94 209.125L267.624 210.073ZM267.336 209.737L266.408 210.109L266.423 210.147L266.442 210.184L267.336 209.737ZM267.144 209.161L266.154 209.303L266.164 209.37L266.182 209.436L267.144 209.161ZM267.048 208.489L268.038 208.348L267.048 208.489ZM267.096 207.577L266.389 206.87L266.319 206.94L266.264 207.022L267.096 207.577ZM267.432 207.577L267.061 208.506L267.064 208.507L267.432 207.577ZM271.944 209.209L272.271 208.264L272.26 208.261L271.944 209.209ZM276.936 210.697L277.223 209.739L277.201 209.733L277.179 209.727L276.936 210.697ZM277.608 210.745L277.237 209.817L277.198 209.832L277.161 209.851L277.608 210.745ZM277.368 209.401L276.625 210.07L276.642 210.09L276.661 210.108L277.368 209.401ZM276.408 208.537L275.576 209.092L275.675 209.241L275.82 209.346L276.408 208.537ZM276.456 208.249L275.901 207.417L275.819 207.472L275.749 207.542L276.456 208.249ZM276.744 208.201L277.325 207.387L277.203 207.3L277.06 207.253L276.744 208.201ZM277.512 208.825L278.219 208.118L278.198 208.097L278.176 208.078L277.512 208.825ZM278.328 209.785L277.519 210.373L277.536 210.396L277.554 210.418L278.328 209.785ZM279 210.889L278.077 211.274L278.09 211.306L278.106 211.336L279 210.889ZM278.76 213.097L278.346 212.187L278.294 212.21L278.246 212.24L278.76 213.097ZM277.56 213.241L277.338 214.216L277.351 214.219L277.364 214.222L277.56 213.241ZM275.544 212.713L275.831 211.755L275.815 211.75L275.798 211.746L275.544 212.713ZM273.48 212.089L273.796 211.141L273.001 212.967L273.48 212.089ZM275.544 213.481L276.177 212.707L276.173 212.704L275.544 213.481ZM277.416 215.353L276.639 215.982L276.642 215.986L277.416 215.353ZM278.76 217.609L277.832 217.981L277.838 217.996L277.845 218.012L278.76 217.609ZM279 221.017L278.293 220.31L278.266 220.337L278.241 220.366L279 221.017ZM277.128 221.017L277.665 220.174L277.639 220.157L277.612 220.142L277.128 221.017ZM273.336 219.289L273.68 218.35L273.666 218.345L273.336 219.289ZM269.064 220.489L269.838 219.856L269.064 220.489ZM269.653 222.396C269.58 222.323 269.496 222.211 269.444 222.056C269.391 221.897 269.388 221.739 269.415 221.601C269.464 221.357 269.597 221.23 269.605 221.222L271.019 222.636C271.123 222.532 271.312 222.317 271.377 221.993C271.458 221.585 271.305 221.22 271.067 220.982L269.653 222.396ZM269.48 221.374C269.553 221.265 269.684 221.141 269.876 221.077C270.055 221.017 270.201 221.039 270.267 221.055L269.781 222.995C269.975 223.044 270.233 223.066 270.508 222.974C270.796 222.878 271.007 222.69 271.144 222.484L269.48 221.374ZM270.608 221.214C269.883 220.691 269.246 220.083 268.696 219.388L267.128 220.63C267.794 221.471 268.565 222.207 269.44 222.837L270.608 221.214ZM268.683 219.372C268.178 218.761 268 218.243 268 217.801H266C266 218.831 266.43 219.785 267.141 220.646L268.683 219.372ZM268 217.801C268 217.494 268.088 217.348 268.201 217.245L266.855 215.765C266.264 216.303 266 217.02 266 217.801H268ZM268.161 217.279C268.291 217.173 268.512 217.073 268.92 217.073V215.073C268.176 215.073 267.469 215.262 266.895 215.731L268.161 217.279ZM268.92 217.073C269.927 217.073 271.047 217.246 272.287 217.609L272.849 215.689C271.465 215.284 270.153 215.073 268.92 215.073V217.073ZM272.266 217.602C273.524 218.001 274.803 218.525 276.105 219.176L276.999 217.387C275.613 216.694 274.236 216.129 272.87 215.696L272.266 217.602ZM276.158 219.2C276.513 219.352 276.888 219.425 277.272 219.425V217.425C277.144 217.425 277.039 217.402 276.946 217.362L276.158 219.2ZM277.272 219.425C277.562 219.425 277.966 219.362 278.301 219.06C278.656 218.741 278.752 218.32 278.752 217.993H276.752C276.752 217.954 276.768 217.75 276.963 217.574C277.138 217.416 277.302 217.425 277.272 217.425V219.425ZM278.752 217.993C278.752 216.357 277.647 214.791 275.966 213.307L274.642 214.807C276.225 216.204 276.752 217.261 276.752 217.993H278.752ZM275.973 213.314C274.226 211.742 271.518 210.36 267.951 209.128L267.297 211.018C270.77 212.218 273.182 213.493 274.635 214.8L275.973 213.314ZM267.94 209.125C268.125 209.186 268.22 209.292 268.239 209.314C268.263 209.342 268.257 209.343 268.23 209.29L266.442 210.184C266.511 210.324 266.601 210.477 266.721 210.616C266.836 210.75 267.027 210.928 267.308 211.022L267.94 209.125ZM268.264 209.366C268.217 209.246 268.163 209.088 268.106 208.886L266.182 209.436C266.253 209.682 266.327 209.908 266.408 210.109L268.264 209.366ZM268.134 209.02C268.102 208.796 268.07 208.572 268.038 208.348L266.058 208.631C266.09 208.855 266.122 209.079 266.154 209.303L268.134 209.02ZM268.038 208.348C268.008 208.141 268 208.019 268 207.961H266C266 208.159 266.024 208.389 266.058 208.631L268.038 208.348ZM268 207.961C268 207.925 268.008 208.011 267.928 208.132L266.264 207.022C266.056 207.335 266 207.678 266 207.961H268ZM267.803 208.284C267.605 208.482 267.37 208.529 267.228 208.529C267.107 208.529 267.042 208.498 267.061 208.506L267.803 206.649C267.616 206.574 266.928 206.331 266.389 206.87L267.803 208.284ZM267.064 208.507C268.46 209.059 269.981 209.609 271.628 210.158L272.26 208.261C270.643 207.721 269.156 207.184 267.8 206.647L267.064 208.507ZM271.617 210.154C273.308 210.74 275 211.244 276.693 211.667L277.179 209.727C275.544 209.318 273.908 208.831 272.271 208.264L271.617 210.154ZM276.649 211.655C276.848 211.715 277.061 211.764 277.273 211.779C277.471 211.793 277.764 211.785 278.055 211.64L277.161 209.851C277.247 209.808 277.319 209.793 277.359 209.787C277.398 209.782 277.42 209.784 277.415 209.784C277.412 209.783 277.394 209.782 277.36 209.775C277.326 209.768 277.281 209.757 277.223 209.739L276.649 211.655ZM277.979 211.674C278.192 211.588 278.426 211.441 278.602 211.194C278.782 210.942 278.848 210.663 278.848 210.409H276.848C276.848 210.316 276.874 210.172 276.974 210.032C277.07 209.897 277.184 209.838 277.237 209.817L277.979 211.674ZM278.848 210.409C278.848 209.722 278.527 209.146 278.075 208.694L276.661 210.108C276.849 210.297 276.848 210.392 276.848 210.409H278.848ZM278.111 208.732C277.776 208.36 277.404 208.025 276.996 207.728L275.82 209.346C276.116 209.561 276.384 209.803 276.625 210.07L278.111 208.732ZM277.24 207.982C277.321 208.104 277.4 208.31 277.358 208.558C277.321 208.782 277.206 208.913 277.163 208.956L275.749 207.542C275.61 207.681 275.439 207.908 275.386 208.229C275.328 208.573 275.431 208.874 275.576 209.092L277.24 207.982ZM277.011 209.081C276.963 209.113 276.879 209.156 276.764 209.176C276.645 209.195 276.528 209.183 276.428 209.15L277.06 207.253C276.628 207.108 276.213 207.209 275.901 207.417L277.011 209.081ZM276.163 209.015C276.349 209.148 276.577 209.332 276.848 209.573L278.176 208.078C277.871 207.807 277.587 207.574 277.325 207.387L276.163 209.015ZM276.805 209.532C277.054 209.781 277.292 210.061 277.519 210.373L279.137 209.197C278.852 208.806 278.546 208.445 278.219 208.118L276.805 209.532ZM277.554 210.418C277.786 210.702 277.958 210.987 278.077 211.274L279.923 210.505C279.722 210.023 279.446 209.572 279.102 209.152L277.554 210.418ZM278.106 211.336C278.236 211.598 278.288 211.83 278.288 212.041H280.288C280.288 211.484 280.148 210.948 279.894 210.442L278.106 211.336ZM278.288 212.041C278.288 212.124 278.281 212.183 278.274 212.22C278.266 212.258 278.259 212.27 278.262 212.266C278.264 212.26 278.274 212.243 278.295 212.223C278.315 212.203 278.335 212.192 278.346 212.187L279.174 214.008C280.026 213.62 280.288 212.791 280.288 212.041H278.288ZM278.246 212.24C278.198 212.268 278.07 212.323 277.756 212.261L277.364 214.222C278.01 214.351 278.682 214.31 279.274 213.955L278.246 212.24ZM277.782 212.266C277.098 212.111 276.448 211.94 275.831 211.755L275.257 213.671C275.92 213.87 276.614 214.052 277.338 214.216L277.782 212.266ZM275.798 211.746C275.216 211.593 274.549 211.392 273.796 211.141L273.164 213.038C273.947 213.299 274.656 213.514 275.29 213.68L275.798 211.746ZM273.001 212.967C273.648 213.32 274.286 213.75 274.915 214.258L276.173 212.704C275.458 212.125 274.72 211.626 273.959 211.211L273.001 212.967ZM274.911 214.255C275.565 214.79 276.14 215.366 276.639 215.982L278.193 214.724C277.604 213.996 276.931 213.324 276.177 212.707L274.911 214.255ZM276.642 215.986C277.157 216.616 277.551 217.28 277.832 217.981L279.688 217.238C279.329 216.338 278.827 215.498 278.19 214.72L276.642 215.986ZM277.845 218.012C278.139 218.682 278.288 219.392 278.288 220.153H280.288C280.288 219.122 280.085 218.137 279.675 217.206L277.845 218.012ZM278.288 220.153C278.288 220.265 278.274 220.322 278.267 220.341C278.263 220.355 278.267 220.336 278.293 220.31L279.707 221.724C280.153 221.279 280.288 220.691 280.288 220.153H278.288ZM278.241 220.366C278.216 220.395 278.214 220.388 278.241 220.375C278.254 220.368 278.269 220.362 278.287 220.358C278.304 220.354 278.318 220.353 278.328 220.353V222.353C278.922 222.353 279.409 222.076 279.759 221.668L278.241 220.366ZM278.328 220.353C278.056 220.353 277.845 220.288 277.665 220.174L276.591 221.861C277.115 222.195 277.704 222.353 278.328 222.353V220.353ZM277.612 220.142C276.35 219.445 275.04 218.848 273.68 218.35L272.992 220.228C274.256 220.691 275.474 221.245 276.644 221.892L277.612 220.142ZM273.666 218.345C272.313 217.871 271.046 217.617 269.88 217.617V219.617C270.762 219.617 271.799 219.811 273.006 220.233L273.666 218.345ZM269.88 217.617C269.387 217.617 268.844 217.692 268.397 217.984C267.876 218.325 267.632 218.861 267.632 219.433H269.632C269.632 219.426 269.633 219.468 269.601 219.53C269.567 219.597 269.52 219.639 269.491 219.658C269.469 219.673 269.478 219.66 269.547 219.645C269.616 219.63 269.723 219.617 269.88 219.617V217.617ZM267.632 219.433C267.632 220.076 267.899 220.645 268.29 221.122L269.838 219.856C269.653 219.63 269.632 219.494 269.632 219.433H267.632ZM268.29 221.122C268.645 221.556 269.142 222.009 269.746 222.479L270.974 220.9C270.426 220.474 270.059 220.126 269.838 219.856L268.29 221.122ZM281.352 229.718L280.645 230.425L280.749 230.529L280.878 230.598L281.352 229.718ZM281.352 229.382L280.645 228.675L280.595 228.725L280.552 228.782L281.352 229.382ZM281.736 229.142L281.42 228.193L281.392 228.203L281.365 228.213L281.736 229.142ZM282.888 229.19L283.506 228.404L283.456 228.365L283.402 228.332L282.888 229.19ZM284.568 230.726L285.275 230.019L284.568 230.726ZM286.344 232.886L287.238 232.439L287.213 232.388L287.182 232.34L286.344 232.886ZM286.248 233.126L285.541 232.419L285.471 232.489L285.416 232.571L286.248 233.126ZM286.056 233.222L285.314 233.893L285.441 234.032L285.609 234.116L286.056 233.222ZM283.848 231.302L283.258 232.109L283.265 232.115L283.273 232.12L283.848 231.302ZM275.928 224.582L275.096 225.137L275.134 225.194L275.181 225.246L275.928 224.582ZM275.976 224.342L275.529 223.448L275.473 223.475L275.421 223.51L275.976 224.342ZM276.312 224.294L277.089 223.664L276.905 223.438L276.628 223.345L276.312 224.294ZM279.288 229.238H280.288V229.008L280.188 228.802L279.288 229.238ZM278.856 229.622L278.364 230.493L278.593 230.622H278.856V229.622ZM276.456 228.374L276.89 227.473L276.876 227.466L276.862 227.46L276.456 228.374ZM273.864 227.318L274.211 226.38L274.201 226.376L274.191 226.373L273.864 227.318ZM271.416 226.598L271.173 227.568L271.183 227.57L271.416 226.598ZM268.968 227.99L268.225 228.659L268.228 228.663L268.968 227.99ZM270.168 229.19L270.875 228.483L270.863 228.471L270.85 228.459L270.168 229.19ZM270.12 229.43L269.413 228.723L269.343 228.793L269.288 228.875L270.12 229.43ZM269.784 229.478L269.138 230.241L269.262 230.346L269.413 230.406L269.784 229.478ZM267.768 227.366L268.577 226.778L268.57 226.769L268.563 226.76L267.768 227.366ZM270.6 223.958L270.833 222.986L270.819 222.982L270.804 222.979L270.6 223.958ZM273 224.678L273.359 223.745L273.349 223.741L273.339 223.737L273 224.678ZM275.4 225.686L275.833 224.784L275.825 224.781L275.817 224.777L275.4 225.686ZM277.464 226.838L276.909 227.67L278.342 226.359L277.464 226.838ZM276.744 225.638L277.585 225.097L277.576 225.083L277.566 225.069L276.744 225.638ZM282.059 229.011C282.156 229.108 282.28 229.298 282.28 229.562C282.28 229.798 282.18 229.945 282.152 229.982L280.552 228.782C280.428 228.947 280.28 229.214 280.28 229.562C280.28 229.938 280.452 230.232 280.645 230.425L282.059 229.011ZM282.059 230.089C282.037 230.111 282.041 230.097 282.107 230.07L281.365 228.213C281.111 228.315 280.859 228.461 280.645 228.675L282.059 230.089ZM282.052 230.091C282.148 230.059 282.233 230.046 282.312 230.046V228.046C282.007 228.046 281.708 228.097 281.42 228.193L282.052 230.091ZM282.312 230.046C282.353 230.046 282.374 230.05 282.381 230.052C282.388 230.054 282.383 230.053 282.374 230.047L283.402 228.332C283.059 228.126 282.681 228.046 282.312 228.046V230.046ZM282.27 229.976C282.673 230.293 283.201 230.773 283.861 231.433L285.275 230.019C284.591 229.335 283.999 228.791 283.506 228.404L282.27 229.976ZM283.861 231.433C284.522 232.094 285.069 232.761 285.506 233.432L287.182 232.34C286.659 231.539 286.022 230.765 285.275 230.019L283.861 231.433ZM285.45 233.333C285.312 233.058 285.349 232.789 285.416 232.623C285.445 232.549 285.479 232.497 285.499 232.469C285.52 232.44 285.537 232.423 285.541 232.419L286.955 233.833C287.05 233.738 287.186 233.583 287.272 233.365C287.371 233.119 287.408 232.778 287.238 232.439L285.45 233.333ZM285.416 232.571C285.427 232.554 285.513 232.423 285.705 232.328C285.811 232.274 285.947 232.234 286.104 232.234C286.261 232.234 286.397 232.274 286.503 232.328L285.609 234.116C285.922 234.273 286.286 234.273 286.599 234.116C286.855 233.989 287.005 233.794 287.08 233.681L285.416 232.571ZM286.798 232.551C286.132 231.816 285.338 231.128 284.423 230.484L283.273 232.12C284.086 232.692 284.764 233.284 285.314 233.893L286.798 232.551ZM284.438 230.495C283.572 229.862 282.702 229.309 281.826 228.837L280.878 230.598C281.666 231.023 282.46 231.526 283.258 232.109L284.438 230.495ZM276.76 224.027C276.814 224.107 276.935 224.334 276.873 224.646C276.81 224.958 276.611 225.12 276.531 225.174L275.421 223.51C275.245 223.627 274.99 223.862 274.911 224.254C274.833 224.646 274.978 224.96 275.096 225.137L276.76 224.027ZM276.423 225.236C276.413 225.241 276.24 225.324 275.996 225.243L276.628 223.345C276.192 223.2 275.795 223.315 275.529 223.448L276.423 225.236ZM275.535 224.924C276.428 226.025 277.382 227.598 278.388 229.674L280.188 228.802C279.146 226.653 278.116 224.931 277.089 223.664L275.535 224.924ZM278.288 229.238C278.288 229.179 278.31 228.961 278.516 228.779C278.606 228.698 278.698 228.658 278.761 228.639C278.792 228.63 278.816 228.626 278.831 228.624C278.847 228.622 278.855 228.622 278.856 228.622V230.622C279.127 230.622 279.517 230.564 279.844 230.273C280.194 229.962 280.288 229.553 280.288 229.238H278.288ZM279.348 228.751C278.591 228.323 277.771 227.897 276.89 227.473L276.022 229.275C276.869 229.683 277.649 230.089 278.364 230.493L279.348 228.751ZM276.862 227.46C275.979 227.068 275.096 226.708 274.211 226.38L273.517 228.256C274.36 228.568 275.205 228.912 276.05 229.288L276.862 227.46ZM274.191 226.373C273.33 226.075 272.483 225.826 271.649 225.626L271.183 227.57C271.949 227.754 272.734 227.985 273.537 228.263L274.191 226.373ZM271.659 225.628C270.849 225.425 270.121 225.31 269.496 225.31V227.31C269.895 227.31 270.447 227.386 271.173 227.568L271.659 225.628ZM269.496 225.31C269.09 225.31 268.607 225.375 268.203 225.659C267.733 225.987 267.536 226.487 267.536 226.982H269.536C269.536 226.989 269.535 227.043 269.499 227.118C269.461 227.198 269.404 227.259 269.349 227.297C269.302 227.331 269.276 227.332 269.303 227.326C269.33 227.319 269.391 227.31 269.496 227.31V225.31ZM267.536 226.982C267.536 227.633 267.81 228.198 268.225 228.659L269.711 227.321C269.55 227.142 269.536 227.035 269.536 226.982H267.536ZM268.228 228.663C268.572 229.041 268.993 229.461 269.486 229.921L270.85 228.459C270.383 228.023 270.004 227.643 269.708 227.317L268.228 228.663ZM269.461 229.897C269.388 229.824 269.304 229.712 269.252 229.557C269.199 229.398 269.196 229.239 269.223 229.102C269.272 228.858 269.405 228.731 269.413 228.723L270.827 230.137C270.931 230.033 271.12 229.818 271.185 229.494C271.266 229.086 271.113 228.721 270.875 228.483L269.461 229.897ZM269.288 228.875C269.341 228.796 269.419 228.712 269.526 228.643C269.634 228.575 269.746 228.538 269.847 228.524C270.032 228.498 270.151 228.548 270.155 228.549L269.413 230.406C269.577 230.472 269.832 230.546 270.129 230.504C270.473 230.455 270.766 230.264 270.952 229.985L269.288 228.875ZM270.43 228.715C269.644 228.05 269.032 227.403 268.577 226.778L266.959 227.954C267.528 228.737 268.26 229.498 269.138 230.241L270.43 228.715ZM268.563 226.76C268.142 226.206 268 225.758 268 225.398H266C266 226.318 266.37 227.181 266.973 227.972L268.563 226.76ZM268 225.398C268 224.978 268.1 224.849 268.124 224.824C268.137 224.81 268.226 224.718 268.584 224.718V222.718C267.886 222.718 267.183 222.906 266.668 223.452C266.164 223.987 266 224.698 266 225.398H268ZM268.584 224.718C269.072 224.718 269.673 224.786 270.396 224.937L270.804 222.979C269.991 222.81 269.248 222.718 268.584 222.718V224.718ZM270.367 224.93C271.13 225.113 271.895 225.343 272.661 225.619L273.339 223.737C272.505 223.437 271.67 223.186 270.833 222.986L270.367 224.93ZM272.641 225.611C273.455 225.924 274.235 226.252 274.983 226.595L275.817 224.777C275.029 224.416 274.209 224.072 273.359 223.745L272.641 225.611ZM274.967 226.587C275.736 226.957 276.381 227.318 276.909 227.67L278.019 226.006C277.395 225.59 276.664 225.183 275.833 224.784L274.967 226.587ZM278.342 226.359C278.135 225.98 277.882 225.559 277.585 225.097L275.903 226.179C276.182 226.613 276.409 226.991 276.586 227.317L278.342 226.359ZM277.566 225.069C277.262 224.629 276.965 224.243 276.675 223.918L275.181 225.246C275.403 225.496 275.65 225.815 275.922 226.207L277.566 225.069ZM273.336 238.503L274.332 238.416L274.235 237.295L273.133 237.524L273.336 238.503ZM269.4 239.847L268.894 238.984L268.877 238.994L268.859 239.006L269.4 239.847ZM268.296 242.871L267.422 243.356L268.296 242.871ZM269.208 243.831L270.157 243.514L270.062 243.23L269.826 243.044L269.208 243.831ZM269.112 244.071L268.557 243.239L268.391 243.35L268.28 243.516L269.112 244.071ZM268.872 244.167L268.25 244.95L268.388 245.059L268.556 245.115L268.872 244.167ZM268.584 237.639L268.096 236.766L268.081 236.774L268.066 236.783L268.584 237.639ZM273.432 236.151L273.608 237.135L273.698 237.119L273.783 237.087L273.432 236.151ZM273.912 236.343L274.888 236.56L274.943 236.312L274.874 236.068L273.912 236.343ZM273.864 238.071L272.878 238.235L273.864 238.071ZM274.392 239.607L275.274 239.136L275.267 239.123L275.26 239.111L274.392 239.607ZM275.4 240.711L275.969 239.888L275.947 239.873L275.924 239.859L275.4 240.711ZM276.36 236.823L275.687 237.563L275.693 237.568L275.698 237.573L276.36 236.823ZM271.656 234.711L271.374 235.67L271.409 235.68L271.445 235.688L271.656 234.711ZM269.928 234.279L269.711 235.255L269.722 235.257L269.928 234.279ZM268.392 233.943L268.149 234.913L268.166 234.917L268.182 234.92L268.392 233.943ZM267.816 233.751L267.261 234.583L267.313 234.617L267.369 234.645L267.816 233.751ZM267.48 233.319L266.586 233.766L266.598 233.791L266.612 233.815L267.48 233.319ZM267.144 232.359L268.114 232.116L267.144 232.359ZM267.48 231.207L267.666 230.224L267.623 230.216L267.58 230.212L267.48 231.207ZM277.512 233.751L277.828 232.802L277.822 232.8L277.512 233.751ZM286.248 237.255L286.682 236.354L286.248 237.255ZM293.4 241.335L293.972 240.514L293.963 240.508L293.4 241.335ZM298.728 245.751L298.013 246.45L298.021 246.458L298.728 245.751ZM302.088 250.119L301.206 250.589L301.21 250.597L301.214 250.604L302.088 250.119ZM302.808 256.071L301.994 255.489L301.985 255.503L301.976 255.516L302.808 256.071ZM301.56 257.031L301.262 256.076L301.253 256.079L301.244 256.082L301.56 257.031ZM299.976 257.079L300.193 256.102L300.167 256.097L300.14 256.092L299.976 257.079ZM298.392 256.407L297.685 257.114L297.739 257.168L297.801 257.213L298.392 256.407ZM298.536 255.975L298.779 255.005L298.56 254.95L298.34 254.994L298.536 255.975ZM299.784 248.055L298.934 248.582L298.937 248.586L299.784 248.055ZM295.08 243.399L294.5 244.213L294.506 244.217L295.08 243.399ZM286.92 239.079L287.302 238.155L287.298 238.153L286.92 239.079ZM275.064 235.287L275.313 234.318L274.607 236.176L275.064 235.287ZM278.04 237.687L277.262 238.314L277.264 238.317L278.04 237.687ZM278.568 243.111L278.054 242.253L278.019 242.274L277.987 242.297L278.568 243.111ZM274.584 242.151L273.778 242.742L273.784 242.751L273.79 242.759L274.584 242.151ZM273.133 237.524C271.387 237.886 269.956 238.362 268.894 238.984L269.906 240.709C270.7 240.244 271.893 239.823 273.539 239.482L273.133 237.524ZM268.859 239.006C267.783 239.697 267.056 240.661 267.056 241.911H269.056C269.056 241.56 269.225 241.148 269.941 240.688L268.859 239.006ZM267.056 241.911C267.056 242.421 267.174 242.91 267.422 243.356L269.17 242.385C269.098 242.256 269.056 242.105 269.056 241.911H267.056ZM267.422 243.356C267.677 243.816 268.103 244.234 268.59 244.617L269.826 243.044C269.417 242.723 269.235 242.501 269.17 242.385L267.422 243.356ZM268.259 244.147C268.214 244.012 268.193 243.808 268.28 243.591C268.36 243.389 268.493 243.281 268.557 243.239L269.667 244.903C269.827 244.796 270.024 244.616 270.136 244.334C270.255 244.037 270.234 243.746 270.157 243.514L268.259 244.147ZM268.28 243.516C268.323 243.452 268.431 243.319 268.633 243.238C268.849 243.151 269.053 243.173 269.188 243.218L268.556 245.115C268.787 245.192 269.079 245.214 269.375 245.095C269.657 244.982 269.837 244.786 269.944 244.625L268.28 243.516ZM269.494 243.384C268.468 242.568 268 241.601 268 240.423H266C266 242.252 266.78 243.781 268.25 244.95L269.494 243.384ZM268 240.423C268 239.563 268.34 238.956 269.102 238.494L268.066 236.783C266.716 237.601 266 238.85 266 240.423H268ZM269.072 238.512C270.016 237.984 271.505 237.512 273.608 237.135L273.256 235.166C271.071 235.558 269.328 236.078 268.096 236.766L269.072 238.512ZM273.783 237.087C273.782 237.087 273.774 237.09 273.758 237.094C273.742 237.098 273.717 237.103 273.683 237.106C273.614 237.111 273.502 237.107 273.373 237.055C273.072 236.935 272.971 236.691 272.95 236.617L274.874 236.068C274.789 235.771 274.576 235.382 274.115 235.198C273.701 235.032 273.312 235.128 273.081 235.214L273.783 237.087ZM272.936 236.126C272.78 236.826 272.76 237.531 272.878 238.235L274.85 237.906C274.776 237.458 274.788 237.012 274.888 236.56L272.936 236.126ZM272.878 238.235C272.991 238.913 273.202 239.539 273.524 240.103L275.26 239.111C275.07 238.778 274.929 238.381 274.85 237.906L272.878 238.235ZM273.51 240.077C273.839 240.696 274.292 241.203 274.876 241.562L275.924 239.859C275.676 239.706 275.457 239.478 275.274 239.136L273.51 240.077ZM274.831 241.533C275.416 241.938 276.079 242.143 276.792 242.143V240.143C276.481 240.143 276.216 240.059 275.969 239.888L274.831 241.533ZM276.792 242.143C277.346 242.143 277.945 242.003 278.399 241.55C278.853 241.096 278.992 240.497 278.992 239.943H276.992C276.992 240.189 276.931 240.189 276.985 240.136C277.039 240.082 277.038 240.143 276.792 240.143V242.143ZM278.992 239.943C278.992 238.456 278.257 237.163 277.022 236.073L275.698 237.573C276.639 238.402 276.992 239.189 276.992 239.943H278.992ZM277.033 236.083C275.797 234.96 274.04 234.201 271.867 233.733L271.445 235.688C273.432 236.116 274.811 236.766 275.687 237.563L277.033 236.083ZM271.938 233.751C271.367 233.583 270.765 233.433 270.134 233.3L269.722 235.257C270.307 235.38 270.857 235.518 271.374 235.67L271.938 233.751ZM270.145 233.302C269.567 233.174 269.053 233.062 268.602 232.965L268.182 234.92C268.627 235.016 269.137 235.127 269.711 235.255L270.145 233.302ZM268.635 232.973C268.401 232.914 268.293 232.871 268.263 232.856L267.369 234.645C267.595 234.758 267.871 234.843 268.149 234.913L268.635 232.973ZM268.371 232.919C268.414 232.948 268.44 232.972 268.448 232.981C268.457 232.99 268.458 232.991 268.449 232.981C268.441 232.97 268.428 232.953 268.411 232.925C268.393 232.898 268.372 232.864 268.348 232.823L266.612 233.815C266.744 234.046 266.953 234.377 267.261 234.583L268.371 232.919ZM268.374 232.871C268.289 232.7 268.199 232.454 268.114 232.116L266.174 232.601C266.281 233.031 266.415 233.425 266.586 233.766L268.374 232.871ZM268.114 232.116C268.022 231.746 268 231.558 268 231.495H266C266 231.816 266.074 232.203 266.174 232.601L268.114 232.116ZM268 231.495C268 231.556 267.989 231.668 267.924 231.798C267.856 231.936 267.75 232.043 267.634 232.112C267.438 232.23 267.296 232.193 267.38 232.202L267.58 230.212C267.344 230.188 266.962 230.183 266.606 230.397C266.16 230.665 266 231.114 266 231.495H268ZM267.294 232.189C270.808 232.854 274.11 233.692 277.202 234.701L277.822 232.8C274.642 231.762 271.256 230.903 267.666 230.224L267.294 232.189ZM277.196 234.699C280.329 235.744 283.201 236.896 285.814 238.156L286.682 236.354C283.983 235.053 281.031 233.87 277.828 232.802L277.196 234.699ZM285.814 238.156C288.432 239.417 290.771 240.753 292.837 242.161L293.963 240.508C291.805 239.037 289.376 237.652 286.682 236.354L285.814 238.156ZM292.828 242.155C294.901 243.6 296.626 245.032 298.013 246.45L299.443 245.051C297.95 243.525 296.123 242.014 293.972 240.514L292.828 242.155ZM298.021 246.458C299.441 247.878 300.495 249.256 301.206 250.589L302.97 249.648C302.145 248.101 300.959 246.567 299.435 245.044L298.021 246.458ZM301.214 250.604C301.954 251.937 302.288 253.131 302.288 254.199H304.288C304.288 252.707 303.822 251.18 302.962 249.633L301.214 250.604ZM302.288 254.199C302.288 254.881 302.149 255.272 301.994 255.489L303.622 256.652C304.107 255.973 304.288 255.117 304.288 254.199H302.288ZM301.976 255.516C301.773 255.821 301.538 255.99 301.262 256.076L301.858 257.985C302.606 257.752 303.203 257.28 303.64 256.625L301.976 255.516ZM301.244 256.082C300.963 256.176 300.622 256.198 300.193 256.102L299.759 258.055C300.482 258.216 301.197 258.206 301.876 257.979L301.244 256.082ZM300.14 256.092C299.722 256.023 299.34 255.862 298.983 255.6L297.801 257.213C298.404 257.656 299.078 257.943 299.812 258.065L300.14 256.092ZM299.099 255.7C299.084 255.684 299.131 255.726 299.177 255.822C299.228 255.928 299.304 256.162 299.209 256.447C299.116 256.724 298.924 256.86 298.839 256.908C298.757 256.955 298.706 256.961 298.732 256.955L298.34 254.994C298.206 255.021 298.029 255.069 297.855 255.167C297.678 255.267 297.428 255.465 297.311 255.814C297.192 256.171 297.278 256.488 297.373 256.685C297.463 256.874 297.588 257.017 297.685 257.114L299.099 255.7ZM298.293 256.945C299.288 257.194 300.224 256.914 301.028 256.28L299.788 254.71C299.376 255.035 299.064 255.076 298.779 255.005L298.293 256.945ZM301.028 256.28C301.969 255.536 302.32 254.379 302.32 253.095H300.32C300.32 254.051 300.063 254.493 299.788 254.71L301.028 256.28ZM302.32 253.095C302.32 251.158 301.743 249.296 300.631 247.523L298.937 248.586C299.873 250.078 300.32 251.576 300.32 253.095H302.32ZM300.634 247.528C299.549 245.777 297.869 244.133 295.654 242.58L294.506 244.217C296.579 245.672 298.035 247.132 298.934 248.582L300.634 247.528ZM295.66 242.584C293.468 241.023 290.675 239.549 287.302 238.155L286.538 240.003C289.821 241.36 292.468 242.766 294.5 244.213L295.66 242.584ZM287.298 238.153C283.948 236.787 279.951 235.51 275.313 234.318L274.815 236.255C279.393 237.431 283.3 238.682 286.542 240.005L287.298 238.153ZM274.607 236.176C275.673 236.723 276.553 237.436 277.262 238.314L278.818 237.059C277.927 235.953 276.823 235.066 275.521 234.397L274.607 236.176ZM277.264 238.317C277.944 239.155 278.288 240.13 278.288 241.287H280.288C280.288 239.692 279.8 238.266 278.816 237.056L277.264 238.317ZM278.288 241.287C278.288 242.102 278.072 242.242 278.054 242.253L279.082 243.968C280.024 243.404 280.288 242.327 280.288 241.287H278.288ZM277.987 242.297C277.669 242.524 277.42 242.591 277.224 242.591V244.591C277.924 244.591 278.571 244.337 279.149 243.924L277.987 242.297ZM277.224 242.591C276.569 242.591 275.963 242.306 275.378 241.542L273.79 242.759C274.677 243.916 275.831 244.591 277.224 244.591V242.591ZM275.39 241.559C274.818 240.779 274.448 239.749 274.332 238.416L272.34 238.589C272.48 240.2 272.942 241.603 273.778 242.742L275.39 241.559ZM270.024 258.615L270.731 257.908L270.694 257.871L270.652 257.837L270.024 258.615ZM270.024 258.855L269.192 258.301H269.192L270.024 258.855ZM269.736 258.951L269.167 259.774L269.317 259.877L269.493 259.922L269.736 258.951ZM267.72 257.031L266.894 257.595L266.902 257.607L266.911 257.62L267.72 257.031ZM268.536 253.575L268.357 252.592L268.34 252.595L268.322 252.599L268.536 253.575ZM272.28 253.911L272.002 254.872L272.812 253.065L272.28 253.911ZM268.728 251.079L268.009 251.775L268.01 251.775L268.728 251.079ZM267 247.911H266V247.997L266.014 248.08L267 247.911ZM268.056 246.135L268.565 246.996L268.056 246.135ZM273.624 246.279L273.177 247.174L273.188 247.179L273.624 246.279ZM276.456 248.295L277.176 247.602L277.17 247.595L277.163 247.588L276.456 248.295ZM278.472 251.127L277.578 251.575L277.583 251.585L278.472 251.127ZM278.472 256.935L277.71 256.288L277.21 256.876L277.653 257.509L278.472 256.935ZM279.048 258.135L280.002 257.837L280 257.828L279.997 257.819L279.048 258.135ZM279.048 259.671L278.413 260.444L278.69 260.671H279.048V259.671ZM276.072 257.751L276.519 256.857L276.508 256.852L276.072 257.751ZM273 256.551L272.713 257.509L272.721 257.512L273 256.551ZM270.408 256.023L270.491 255.027L270.408 256.023ZM268.824 256.215L268.269 255.383L268.225 255.413L268.184 255.447L268.824 256.215ZM268.632 257.031L267.646 257.196L267.652 257.235L267.662 257.274L268.632 257.031ZM269.496 250.791L270.264 250.151L270.255 250.14L270.246 250.13L269.496 250.791ZM271.416 252.567L272.021 251.771L271.416 252.567ZM274.104 254.343L274.627 253.491L274.616 253.485L274.606 253.479L274.104 254.343ZM277.128 255.927L276.727 256.844L277.067 256.992L277.422 256.883L277.128 255.927ZM278.136 255.015L277.268 254.519L277.261 254.532L277.254 254.545L278.136 255.015ZM277.944 251.367L277.068 251.849L277.077 251.866L277.087 251.882L277.944 251.367ZM276.408 249.687L276.989 248.874L276.981 248.868L276.408 249.687ZM274.056 248.583L274.352 247.628L274.342 247.625L274.331 247.622L274.056 248.583ZM269.4 248.535L268.926 247.655L268.9 247.669L268.876 247.684L269.4 248.535ZM269.317 259.323C269.188 259.194 269.072 258.984 269.072 258.723C269.072 258.497 269.161 258.348 269.192 258.301L270.856 259.41C270.951 259.267 271.072 259.03 271.072 258.723C271.072 258.383 270.924 258.101 270.731 257.908L269.317 259.323ZM269.192 258.301C269.265 258.191 269.396 258.067 269.588 258.003C269.767 257.943 269.913 257.965 269.979 257.981L269.493 259.922C269.687 259.97 269.945 259.992 270.22 259.9C270.508 259.804 270.719 259.616 270.856 259.41L269.192 258.301ZM270.305 258.129C269.551 257.607 268.965 257.043 268.529 256.443L266.911 257.62C267.499 258.428 268.257 259.144 269.167 259.774L270.305 258.129ZM268.546 256.468C268.143 255.876 268 255.398 268 255.015H266C266 255.913 266.337 256.779 266.894 257.595L268.546 256.468ZM268 255.015C268 254.949 268.011 254.915 268.018 254.899C268.024 254.885 268.036 254.863 268.068 254.833C268.143 254.763 268.333 254.643 268.75 254.552L268.322 252.599C267.715 252.731 267.137 252.964 266.7 253.374C266.232 253.813 266 254.386 266 255.015H268ZM268.715 254.559C269.571 254.404 270.655 254.483 272.002 254.872L272.558 252.951C271.025 252.508 269.613 252.363 268.357 252.592L268.715 254.559ZM272.812 253.065C271.495 252.237 270.375 251.343 269.446 250.384L268.01 251.775C269.065 252.864 270.313 253.857 271.748 254.758L272.812 253.065ZM269.447 250.384C268.596 249.505 268.137 248.625 267.986 247.742L266.014 248.08C266.247 249.438 266.94 250.67 268.009 251.775L269.447 250.384ZM268 247.911C268 247.524 268.141 247.247 268.565 246.996L267.547 245.274C266.563 245.856 266 246.763 266 247.911H268ZM268.565 246.996C269.095 246.683 269.73 246.511 270.504 246.511V244.511C269.422 244.511 268.425 244.756 267.547 245.274L268.565 246.996ZM270.504 246.511C271.392 246.511 272.28 246.725 273.177 247.174L274.071 245.385C272.92 244.81 271.728 244.511 270.504 244.511V246.511ZM273.188 247.179C274.143 247.642 274.996 248.249 275.749 249.003L277.163 247.588C276.252 246.678 275.217 245.94 274.06 245.38L273.188 247.179ZM275.736 248.989C276.501 249.784 277.113 250.645 277.578 251.575L279.366 250.68C278.807 249.561 278.075 248.535 277.176 247.602L275.736 248.989ZM277.583 251.585C278.063 252.518 278.288 253.418 278.288 254.295H280.288C280.288 253.061 279.969 251.849 279.361 250.669L277.583 251.585ZM278.288 254.295C278.288 255.258 278.056 255.881 277.71 256.288L279.234 257.583C279.976 256.71 280.288 255.573 280.288 254.295H278.288ZM277.653 257.509C277.808 257.731 277.961 258.038 278.099 258.452L279.997 257.819C279.815 257.273 279.584 256.78 279.291 256.362L277.653 257.509ZM278.094 258.434C278.234 258.884 278.288 259.228 278.288 259.479H280.288C280.288 258.963 280.182 258.41 280.002 257.837L278.094 258.434ZM278.288 259.479C278.288 259.323 278.348 259.047 278.603 258.843C278.816 258.672 279.021 258.671 279.048 258.671V260.671C279.235 260.671 279.56 260.638 279.853 260.404C280.188 260.136 280.288 259.764 280.288 259.479H278.288ZM279.683 258.899C278.726 258.113 277.671 257.433 276.519 256.857L275.625 258.646C276.649 259.158 277.578 259.758 278.413 260.444L279.683 258.899ZM276.508 256.852C275.408 256.318 274.332 255.897 273.279 255.591L272.721 257.512C273.652 257.782 274.624 258.161 275.636 258.651L276.508 256.852ZM273.287 255.594C272.279 255.291 271.345 255.098 270.491 255.027L270.325 257.02C271.007 257.077 271.801 257.236 272.713 257.509L273.287 255.594ZM270.491 255.027C270.067 254.992 269.67 254.988 269.316 255.031C268.972 255.072 268.595 255.166 268.269 255.383L269.379 257.047C269.341 257.072 269.372 257.039 269.556 257.016C269.73 256.995 269.981 256.991 270.325 257.02L270.491 255.027ZM268.184 255.447C267.588 255.943 267.558 256.67 267.646 257.196L269.618 256.867C269.6 256.758 269.613 256.735 269.605 256.768C269.601 256.788 269.59 256.824 269.564 256.866C269.538 256.91 269.504 256.95 269.464 256.984L268.184 255.447ZM267.662 257.274C267.768 257.698 268.033 258.071 268.301 258.376C268.584 258.698 268.956 259.038 269.396 259.393L270.652 257.837C270.26 257.521 269.984 257.261 269.803 257.055C269.607 256.832 269.592 256.749 269.602 256.789L267.662 257.274ZM267.776 249.399C267.776 250.167 268.231 250.869 268.746 251.453L270.246 250.13C270.041 249.897 269.915 249.713 269.844 249.576C269.772 249.437 269.776 249.384 269.776 249.399H267.776ZM268.728 251.432C269.269 252.081 269.97 252.724 270.811 253.364L272.021 251.771C271.262 251.195 270.683 250.653 270.264 250.151L268.728 251.432ZM270.811 253.364C271.648 254 272.579 254.614 273.602 255.208L274.606 253.479C273.645 252.921 272.784 252.351 272.021 251.771L270.811 253.364ZM273.581 255.196C274.611 255.827 275.66 256.376 276.727 256.844L277.529 255.011C276.548 254.582 275.581 254.076 274.627 253.491L273.581 255.196ZM277.422 256.883C278.15 256.659 278.671 256.138 279.018 255.486L277.254 254.545C277.089 254.853 276.938 254.94 276.834 254.972L277.422 256.883ZM279.004 255.512C279.361 254.888 279.52 254.182 279.52 253.431H277.52C277.52 253.897 277.423 254.247 277.268 254.519L279.004 255.512ZM279.52 253.431C279.52 252.512 279.277 251.646 278.801 250.853L277.087 251.882C277.379 252.369 277.52 252.879 277.52 253.431H279.52ZM278.82 250.886C278.387 250.098 277.767 249.429 276.989 248.874L275.827 250.501C276.393 250.905 276.797 251.357 277.068 251.849L278.82 250.886ZM276.981 248.868C276.239 248.348 275.356 247.94 274.352 247.628L273.76 249.538C274.612 249.803 275.297 250.13 275.835 250.507L276.981 248.868ZM274.331 247.622C273.332 247.337 272.246 247.199 271.08 247.199V249.199C272.09 249.199 272.988 249.318 273.781 249.545L274.331 247.622ZM271.08 247.199C270.285 247.199 269.542 247.323 268.926 247.655L269.874 249.416C270.09 249.299 270.467 249.199 271.08 249.199V247.199ZM268.876 247.684C268.33 248.02 267.776 248.574 267.776 249.399H269.776C269.776 249.43 269.771 249.461 269.761 249.489C269.752 249.516 269.742 249.529 269.743 249.529C269.743 249.528 269.754 249.513 269.784 249.487C269.814 249.461 269.859 249.427 269.924 249.387L268.876 247.684Z" fill="black"/>
</g>
<defs>
<filter id="filter0_d" x="55" y="31" width="258" height="298.228" filterUnits="userSpaceOnUse" color-interpolation-filters="sRGB">
<feFlood flood-opacity="0" result="BackgroundImageFix"/>
<feColorMatrix in="SourceAlpha" type="matrix" values="0 0 0 0 0 0 0 0 0 0 0 0 0 0 0 0 0 0 127 0"/>
<feOffset dy="4"/>
<feGaussianBlur stdDeviation="2"/>
<feColorMatrix type="matrix" values="0 0 0 0 0 0 0 0 0 0 0 0 0 0 0 0 0 0 0.25 0"/>
<feBlend mode="normal" in2="BackgroundImageFix" result="effect1_dropShadow"/>
<feBlend mode="normal" in="SourceGraphic" in2="effect1_dropShadow" result="shape"/>
</filter>
<filter id="filter1_d" x="262" y="112.673" width="46.288" height="155.998" filterUnits="userSpaceOnUse" color-interpolation-filters="sRGB">
<feFlood flood-opacity="0" result="BackgroundImageFix"/>
<feColorMatrix in="SourceAlpha" type="matrix" values="0 0 0 0 0 0 0 0 0 0 0 0 0 0 0 0 0 0 127 0"/>
<feOffset dy="4"/>
<feGaussianBlur stdDeviation="2"/>
<feColorMatrix type="matrix" values="0 0 0 0 0 0 0 0 0 0 0 0 0 0 0 0 0 0 0.25 0"/>
<feBlend mode="normal" in2="BackgroundImageFix" result="effect1_dropShadow"/>
<feBlend mode="normal" in="SourceGraphic" in2="effect1_dropShadow" result="shape"/>
</filter>
</defs>
</svg>
