<svg width="887" height="465" viewBox="0 0 887 465" fill="none" xmlns="http://www.w3.org/2000/svg">
<rect width="887" height="465" fill="#F15C5A"/>
<path d="M341.604 334.756C341.604 334.204 341.784 333.76 342.144 333.424C342.504 333.064 342.948 332.884 343.476 332.884C344.028 332.884 344.472 333.064 344.808 333.424C345.168 333.76 345.348 334.204 345.348 334.756V359.128C345.348 359.656 345.168 360.1 344.808 360.46C344.472 360.82 344.028 361 343.476 361C342.948 361 342.504 360.82 342.144 360.46C341.784 360.1 341.604 359.656 341.604 359.128V334.756ZM351.566 332.38C352.286 332.38 352.85 332.692 353.258 333.316C353.69 333.916 353.906 334.696 353.906 335.656C353.906 336.472 353.678 337.468 353.222 338.644C352.79 339.796 352.262 340.804 351.638 341.668C351.038 342.508 350.486 342.928 349.982 342.928C349.67 342.928 349.418 342.82 349.226 342.604C349.034 342.388 348.938 342.124 348.938 341.812C348.938 341.644 348.974 341.476 349.046 341.308C349.622 339.988 349.91 338.884 349.91 337.996C349.91 337.54 349.814 336.952 349.622 336.232C349.454 335.44 349.37 334.876 349.37 334.54C349.37 333.94 349.586 333.436 350.018 333.028C350.45 332.596 350.966 332.38 351.566 332.38ZM379.663 341.128C381.751 341.128 383.431 341.812 384.703 343.18C385.999 344.548 386.647 346.456 386.647 348.904V359.2C386.647 359.728 386.479 360.172 386.143 360.532C385.807 360.868 385.363 361.036 384.811 361.036C384.283 361.036 383.839 360.868 383.479 360.532C383.143 360.172 382.975 359.728 382.975 359.2V348.904C382.975 347.44 382.603 346.336 381.859 345.592C381.139 344.824 380.167 344.44 378.943 344.44C377.695 344.44 376.663 344.872 375.847 345.736C375.055 346.6 374.659 347.704 374.659 349.048V359.2C374.659 359.728 374.491 360.172 374.155 360.532C373.819 360.868 373.375 361.036 372.823 361.036C372.295 361.036 371.851 360.868 371.491 360.532C371.155 360.172 370.987 359.728 370.987 359.2V348.904C370.987 347.44 370.615 346.336 369.871 345.592C369.151 344.824 368.179 344.44 366.955 344.44C365.683 344.44 364.639 344.872 363.823 345.736C363.031 346.6 362.635 347.704 362.635 349.048V359.2C362.635 359.728 362.467 360.172 362.131 360.532C361.795 360.868 361.351 361.036 360.799 361.036C360.271 361.036 359.827 360.868 359.467 360.532C359.131 360.172 358.963 359.728 358.963 359.2V343.18C358.963 342.628 359.131 342.184 359.467 341.848C359.827 341.512 360.271 341.344 360.799 341.344C361.327 341.344 361.759 341.512 362.095 341.848C362.431 342.16 362.611 342.58 362.635 343.108C363.259 342.484 364.003 342.004 364.867 341.668C365.731 341.308 366.667 341.128 367.675 341.128C368.899 341.128 369.991 341.38 370.951 341.884C371.935 342.364 372.739 343.06 373.363 343.972C374.083 343.084 374.983 342.388 376.063 341.884C377.143 341.38 378.343 341.128 379.663 341.128ZM431.987 332.884C432.467 332.884 432.827 333.028 433.067 333.316C433.307 333.604 433.427 333.988 433.427 334.468C433.427 334.828 433.379 335.164 433.283 335.476L426.047 359.488C425.879 359.944 425.627 360.316 425.291 360.604C424.979 360.868 424.607 361 424.175 361C423.743 361 423.359 360.868 423.023 360.604C422.687 360.316 422.447 359.956 422.303 359.524L416.939 338.788L411.503 359.488C411.335 359.944 411.083 360.316 410.747 360.604C410.435 360.868 410.063 361 409.631 361C409.199 361 408.815 360.868 408.479 360.604C408.143 360.34 407.903 359.98 407.759 359.524L400.523 335.476C400.427 335.164 400.379 334.84 400.379 334.504C400.379 334 400.511 333.604 400.775 333.316C401.063 333.028 401.447 332.884 401.927 332.884C402.359 332.884 402.731 333.004 403.043 333.244C403.379 333.484 403.619 333.832 403.763 334.288L409.667 354.808L415.103 334.504C415.199 334.144 415.415 333.844 415.751 333.604C416.087 333.364 416.471 333.244 416.903 333.244C417.311 333.244 417.683 333.352 418.019 333.568C418.355 333.784 418.571 334.084 418.667 334.468L424.175 354.952L430.151 334.108C430.271 333.676 430.475 333.364 430.763 333.172C431.075 332.98 431.483 332.884 431.987 332.884ZM444.197 341.092C445.469 341.092 446.465 341.284 447.185 341.668C447.905 342.052 448.265 342.532 448.265 343.108C448.265 343.276 448.253 343.396 448.229 343.468C448.013 344.236 447.533 344.62 446.789 344.62C446.669 344.62 446.489 344.596 446.249 344.548C445.289 344.38 444.509 344.296 443.909 344.296C442.181 344.296 440.789 344.692 439.733 345.484C438.677 346.276 438.149 347.344 438.149 348.688V359.2C438.149 359.776 437.993 360.22 437.681 360.532C437.393 360.844 436.949 361 436.349 361C435.773 361 435.329 360.856 435.017 360.568C434.705 360.256 434.549 359.8 434.549 359.2V343.108C434.549 342.532 434.705 342.088 435.017 341.776C435.329 341.464 435.773 341.308 436.349 341.308C437.549 341.308 438.149 341.908 438.149 343.108V343.792C438.869 342.952 439.757 342.292 440.813 341.812C441.869 341.332 442.997 341.092 444.197 341.092ZM452.416 343.144C452.416 342.592 452.584 342.148 452.92 341.812C453.28 341.476 453.724 341.308 454.252 341.308C454.804 341.308 455.248 341.476 455.584 341.812C455.92 342.148 456.088 342.592 456.088 343.144V359.164C456.088 359.692 455.92 360.136 455.584 360.496C455.248 360.832 454.804 361 454.252 361C453.724 361 453.28 360.832 452.92 360.496C452.584 360.136 452.416 359.692 452.416 359.164V343.144ZM454.252 333.352C454.9 333.352 455.452 333.592 455.908 334.072C456.388 334.528 456.628 335.08 456.628 335.728C456.628 336.376 456.388 336.94 455.908 337.42C455.452 337.876 454.9 338.104 454.252 338.104C453.604 338.104 453.04 337.876 452.56 337.42C452.104 336.94 451.876 336.376 451.876 335.728C451.876 335.08 452.104 334.528 452.56 334.072C453.04 333.592 453.604 333.352 454.252 333.352ZM471.308 357.4C471.74 357.4 472.1 357.568 472.388 357.904C472.7 358.24 472.856 358.672 472.856 359.2C472.856 359.728 472.652 360.16 472.244 360.496C471.86 360.832 471.356 361 470.732 361H470.084C468.908 361 467.828 360.7 466.844 360.1C465.884 359.476 465.128 358.636 464.576 357.58C464.024 356.524 463.748 355.336 463.748 354.016V345.124H462.092C461.588 345.124 461.18 344.98 460.868 344.692C460.556 344.404 460.4 344.044 460.4 343.612C460.4 343.132 460.556 342.748 460.868 342.46C461.18 342.172 461.588 342.028 462.092 342.028H463.748V336.844C463.748 336.316 463.916 335.884 464.252 335.548C464.588 335.212 465.02 335.044 465.548 335.044C466.076 335.044 466.508 335.212 466.844 335.548C467.18 335.884 467.348 336.316 467.348 336.844V342.028H470.408C470.912 342.028 471.32 342.172 471.632 342.46C471.944 342.748 472.1 343.132 472.1 343.612C472.1 344.044 471.944 344.404 471.632 344.692C471.32 344.98 470.912 345.124 470.408 345.124H467.348V354.016C467.348 354.976 467.612 355.78 468.14 356.428C468.668 357.076 469.316 357.4 470.084 357.4H471.308ZM495.045 350.848C495.045 351.304 494.889 351.688 494.577 352C494.265 352.288 493.869 352.432 493.389 352.432H479.709C479.973 354.112 480.729 355.468 481.977 356.5C483.249 357.532 484.797 358.048 486.621 358.048C487.341 358.048 488.085 357.916 488.853 357.652C489.645 357.388 490.293 357.064 490.797 356.68C491.133 356.416 491.529 356.284 491.985 356.284C492.441 356.284 492.801 356.404 493.065 356.644C493.497 357.004 493.713 357.412 493.713 357.868C493.713 358.3 493.521 358.66 493.137 358.948C492.321 359.596 491.301 360.124 490.077 360.532C488.877 360.94 487.725 361.144 486.621 361.144C484.653 361.144 482.889 360.724 481.329 359.884C479.769 359.02 478.545 357.832 477.657 356.32C476.793 354.808 476.361 353.092 476.361 351.172C476.361 349.252 476.769 347.536 477.585 346.024C478.425 344.488 479.577 343.3 481.041 342.46C482.529 341.596 484.209 341.164 486.081 341.164C487.929 341.164 489.525 341.572 490.869 342.388C492.213 343.204 493.245 344.344 493.965 345.808C494.685 347.272 495.045 348.952 495.045 350.848ZM486.081 344.26C484.329 344.26 482.901 344.74 481.797 345.7C480.717 346.66 480.033 347.944 479.745 349.552H491.733C491.517 347.944 490.917 346.66 489.933 345.7C488.949 344.74 487.665 344.26 486.081 344.26ZM509.376 341.092C510.648 341.092 511.644 341.284 512.364 341.668C513.084 342.052 513.444 342.532 513.444 343.108C513.444 343.276 513.432 343.396 513.408 343.468C513.192 344.236 512.712 344.62 511.968 344.62C511.848 344.62 511.668 344.596 511.428 344.548C510.468 344.38 509.688 344.296 509.088 344.296C507.36 344.296 505.968 344.692 504.912 345.484C503.856 346.276 503.328 347.344 503.328 348.688V359.2C503.328 359.776 503.172 360.22 502.86 360.532C502.572 360.844 502.128 361 501.528 361C500.952 361 500.508 360.856 500.196 360.568C499.884 360.256 499.728 359.8 499.728 359.2V343.108C499.728 342.532 499.884 342.088 500.196 341.776C500.508 341.464 500.952 341.308 501.528 341.308C502.728 341.308 503.328 341.908 503.328 343.108V343.792C504.048 342.952 504.936 342.292 505.992 341.812C507.048 341.332 508.176 341.092 509.376 341.092Z" fill="#323232"/>
<path d="M289.562 97.3734C288.111 87.6998 295.603 79 305.385 79H546.615C556.397 79 563.889 87.6998 562.438 97.3734L532.738 295.373C531.563 303.206 524.835 309 516.915 309H335.085C327.165 309 320.437 303.206 319.262 295.373L289.562 97.3734Z" stroke="#323232" stroke-width="10"/>
<path d="M457.584 312.896C442.608 312.896 435.12 306.464 435.12 293.6C435.12 289.376 435.696 284.576 436.848 279.2C438.192 273.632 440.016 266.528 442.32 257.888C445.008 248.864 447.024 241.184 448.368 234.848C449.712 228.512 450.384 222.848 450.384 217.856C450.384 204.8 444.624 198.272 433.104 198.272C430.032 198.272 426.864 198.656 423.6 199.424L400.56 308H359.088L398.256 124.832L440.88 119.072L426.768 185.6H429.072C436.56 185.6 443.472 183.008 449.808 177.824C456.144 172.64 461.04 166.208 464.496 158.528C468.144 150.656 469.968 142.976 469.968 135.488C469.968 126.656 467.28 119.456 461.904 113.888C456.72 108.128 448.848 105.248 438.288 105.248C422.736 105.248 409.104 108.032 397.392 113.6C385.68 119.168 376.56 127.232 370.032 137.792C363.696 148.352 360.528 160.832 360.528 175.232C360.528 182.336 361.2 187.328 362.544 190.208C363.888 192.896 364.56 194.432 364.56 194.816C354.192 194.816 346.416 192.704 341.232 188.48C336.24 184.064 333.744 176.864 333.744 166.88C333.744 154.592 338.736 142.688 348.72 131.168C358.896 119.456 371.856 110.048 387.6 102.944C403.344 95.648 419.088 92 434.832 92C449.232 92 461.328 94.112 471.12 98.336C480.912 102.56 488.208 108.224 493.008 115.328C497.808 122.24 500.208 129.824 500.208 138.08C500.208 147.104 497.424 156.128 491.856 165.152C486.288 174.176 478.704 181.568 469.104 187.328C476.4 189.44 481.488 192.992 484.368 197.984C487.44 202.784 488.976 208.832 488.976 216.128C488.976 221.696 488.304 227.648 486.96 233.984C485.616 240.128 483.696 247.808 481.2 257.024C479.664 262.976 478.224 268.832 476.88 274.592C475.536 280.352 474.864 285.152 474.864 288.992C474.864 293.408 475.824 297.344 477.744 300.8C479.856 304.256 482.64 306.656 486.096 308C474.384 311.264 464.88 312.896 457.584 312.896Z" fill="#323232"/>
</svg>
