<svg width="567" height="460" viewBox="0 0 567 460" fill="none" xmlns="http://www.w3.org/2000/svg">
<path d="M565.647 219.354L108.536 398.523L108.841 459.637L538.589 290.046L565.647 219.354Z" fill="#6C6C6C"/>
<path d="M23.0571 247.996L23.6462 179.996L109.1 393.036L108.545 457.122L23.0571 247.996Z" fill="#545252"/>
<path d="M23.2439 179.496L474.244 9.99584L566.244 219.496L109.505 398.992C75.8176 313.273 56.9308 265.214 23.2439 179.496Z" fill="#D0AA22"/>
<g filter="url(#filter0_d)">
<path d="M222.834 151.529L339.799 198.018L258.072 233.256L222.834 151.529Z" fill="#494747"/>
</g>
<path d="M222.868 152.01L304.073 117.1L281.573 174.873L222.868 152.01Z" fill="#545252"/>
<g filter="url(#filter1_d)">
<path d="M269.174 260.098C269.631 261.156 269.823 262.263 269.748 263.42C269.686 264.545 269.399 265.663 268.886 266.774C268.363 267.863 267.65 268.904 266.746 269.897C265.842 270.89 264.768 271.76 263.522 272.509C264.282 273.357 265.122 274.209 266.042 275.066C266.974 275.892 267.926 276.67 268.896 277.401C269.866 278.131 270.825 278.775 271.772 279.333C272.72 279.89 273.594 280.31 274.396 280.59C274.381 280.858 274.311 281.15 274.186 281.466C274.083 281.772 273.927 282.075 273.717 282.375C273.538 282.687 273.319 282.966 273.058 283.209C272.829 283.465 272.582 283.651 272.318 283.765C271.833 283.975 271.271 283.944 270.63 283.672C269.989 283.4 269.223 282.869 268.331 282.078C267.452 281.255 266.416 280.161 265.223 278.794C264.043 277.396 262.669 275.702 261.102 273.713C260.86 273.818 260.617 273.923 260.375 274.028C260.133 274.133 259.936 274.192 259.785 274.205C259.592 274.184 259.361 274.101 259.089 273.957C259.047 275.492 259.038 276.921 259.062 278.245C259.086 279.568 259.139 280.839 259.222 282.059C259.318 283.246 259.437 284.398 259.58 285.513C259.735 286.596 259.933 287.688 260.173 288.787C259.348 288.935 258.56 288.896 257.809 288.672C257.058 288.448 256.26 288.022 255.413 287.395C255.415 287.159 255.422 286.933 255.434 286.719C255.458 286.473 255.476 286.152 255.487 285.755C255.489 285.335 255.485 284.814 255.477 284.19C255.49 283.557 255.494 282.718 255.487 281.675C255.502 280.623 255.497 279.343 255.473 277.837C255.47 276.321 255.459 274.482 255.439 272.32C255.438 271.353 255.426 270.508 255.401 269.787C255.398 269.056 255.377 268.372 255.337 267.736C255.287 267.077 255.22 266.439 255.136 265.822C255.064 265.173 254.959 264.447 254.821 263.644C253.96 264.435 253.185 265.241 252.495 266.063C251.817 266.853 251.296 267.615 250.933 268.347C250.678 268.301 250.383 268.193 250.048 268.024C249.736 267.846 249.424 267.64 249.115 267.408C248.796 267.154 248.498 266.891 248.223 266.617C247.948 266.344 247.742 266.08 247.606 265.826C248.076 265.099 248.703 264.344 249.488 263.559C250.296 262.765 251.181 262.003 252.146 261.271C253.102 260.518 254.107 259.821 255.164 259.18C256.221 258.54 257.233 258.01 258.202 257.59C260.845 256.446 263.132 256.11 265.063 256.582C266.983 257.032 268.354 258.204 269.174 260.098ZM259.911 260.813C259.843 261.078 259.772 261.579 259.699 262.317C259.626 263.054 259.551 263.937 259.472 264.965C259.407 265.961 259.341 267.048 259.276 268.227C259.233 269.396 259.196 270.55 259.166 271.688C260.818 270.973 262.271 270.161 263.525 269.252C264.779 268.343 265.793 267.394 266.568 266.404C267.333 265.393 267.829 264.394 268.056 263.407C268.295 262.388 268.214 261.416 267.814 260.491C267.337 259.39 266.578 258.724 265.537 258.495C264.487 258.244 263.136 258.475 261.484 259.19C261.11 259.352 260.745 259.537 260.389 259.743C260.025 259.927 259.642 260.131 259.243 260.357L259.911 260.813ZM281.725 260.432C281.945 260.337 282.217 260.271 282.542 260.235C282.879 260.168 283.197 260.148 283.496 260.175C283.786 260.18 284.037 260.216 284.248 260.281C284.482 260.337 284.622 260.42 284.67 260.53C284.63 261.646 284.628 262.758 284.663 263.867C284.689 264.955 284.756 265.985 284.864 266.958C284.971 267.932 285.11 268.826 285.28 269.642C285.472 270.448 285.687 271.126 285.925 271.677C286.192 272.293 286.482 272.782 286.796 273.144C287.099 273.483 287.444 273.674 287.828 273.717C287.64 274.007 287.361 274.298 286.99 274.589C286.619 274.881 286.269 275.098 285.938 275.241C284.749 275.756 283.801 275.198 283.096 273.568C282.553 272.313 282.227 270.414 282.12 267.871C282.119 269.075 282.027 270.252 281.845 271.403C281.654 272.532 281.408 273.567 281.109 274.507C280.81 275.447 280.448 276.271 280.022 276.978C279.608 277.654 279.167 278.146 278.699 278.453C277.865 278.762 277.037 278.662 276.216 278.155C275.385 277.625 274.722 276.788 274.226 275.643C273.692 274.409 273.394 272.995 273.331 271.401C273.269 269.806 273.393 268.249 273.702 266.729C274.034 265.2 274.517 263.84 275.153 262.649C275.779 261.437 276.534 260.613 277.417 260.178C277.666 260.149 277.966 260.176 278.316 260.26C278.688 260.334 279.052 260.451 279.409 260.611C279.788 260.76 280.127 260.94 280.427 261.151C280.718 261.339 280.917 261.527 281.025 261.716C280.201 262.229 279.473 263.054 278.841 264.191C278.23 265.318 277.764 266.566 277.441 267.935C277.131 269.273 276.986 270.63 277.007 272.007C277.027 273.384 277.257 274.579 277.696 275.592C277.877 276.011 278.145 276.208 278.501 276.185C279.083 275.776 279.587 274.917 280.014 273.608C280.432 272.276 280.801 270.351 281.123 267.832C281.172 267.34 281.223 266.795 281.278 266.196C281.354 265.587 281.421 264.957 281.479 264.304C281.536 263.652 281.583 263.004 281.618 262.361C281.666 261.686 281.702 261.043 281.725 260.432ZM306.328 253.587C305.985 253.762 305.656 254.179 305.34 254.839C305.015 255.476 304.703 256.265 304.403 257.205C304.117 258.114 303.83 259.114 303.544 260.206C303.281 261.287 303.028 262.365 302.786 263.437C302.556 264.478 302.341 265.46 302.139 266.384C301.938 267.308 301.751 268.056 301.58 268.627C301.01 268.638 300.467 268.533 299.953 268.311C299.429 268.067 298.966 267.692 298.564 267.187C298.378 266.456 298.227 265.685 298.111 264.872C297.985 264.037 297.905 263.157 297.87 262.23C297.857 261.294 297.896 260.297 297.987 259.238C298.09 258.147 298.273 256.969 298.536 255.705C298.216 255.87 297.869 256.307 297.496 257.018C297.114 257.706 296.75 258.557 296.404 259.57C296.049 260.56 295.714 261.66 295.4 262.868C295.076 264.054 294.792 265.21 294.547 266.336C294.228 267.834 293.979 269.132 293.801 270.229C293.644 271.317 293.478 271.99 293.302 272.249C292.548 272.079 291.956 271.799 291.526 271.41C291.096 271.02 290.698 270.552 290.33 270.005C290.123 269.467 289.914 268.773 289.703 267.923C289.514 267.063 289.371 266.158 289.273 265.207C289.083 263.379 289.042 261.501 289.148 259.572C289.277 257.634 289.429 255.842 289.606 254.196C290.28 254.061 290.921 254.032 291.53 254.109C292.16 254.176 292.87 254.365 293.659 254.678C293.734 255.456 293.708 256.33 293.579 257.301C293.44 258.25 293.299 259.253 293.155 260.309C293.01 261.366 292.92 262.425 292.883 263.487C292.846 264.549 292.956 265.56 293.215 266.521C293.45 265.373 293.739 264.045 294.08 262.537C294.443 261.02 294.846 259.564 295.288 258.17C295.753 256.766 296.273 255.521 296.849 254.434C297.425 253.348 298.065 252.653 298.77 252.348C299.034 252.233 299.34 252.153 299.686 252.108C300.033 252.063 300.367 252.049 300.688 252.066C301.01 252.084 301.287 252.121 301.521 252.177C301.744 252.211 301.882 252.256 301.932 252.312C302.013 252.801 302.011 253.521 301.926 254.473C301.854 255.393 301.767 256.372 301.667 257.409C301.567 258.446 301.49 259.447 301.437 260.412C301.374 261.354 301.41 262.071 301.544 262.562C301.984 260.619 302.421 258.848 302.853 257.249C303.276 255.628 303.72 254.206 304.185 252.985C304.65 251.764 305.135 250.769 305.639 250.002C306.166 249.225 306.749 248.698 307.387 248.421C307.828 248.231 308.288 248.175 308.767 248.256C309.259 248.304 309.677 248.515 310.022 248.889C310.11 249.636 310.123 250.572 310.061 251.697C310.021 252.813 309.993 253.988 309.979 255.224C309.955 256.437 309.97 257.62 310.025 258.773C310.101 259.917 310.311 260.885 310.655 261.678C310.855 262.141 311.054 262.421 311.253 262.518C311.443 262.592 311.658 262.577 311.901 262.473C312.165 262.358 312.388 262.209 312.57 262.026C312.765 261.811 312.917 261.68 313.027 261.632C313.198 261.663 313.322 261.739 313.402 261.862C313.481 261.985 313.544 262.101 313.592 262.211C313.304 262.754 312.976 263.236 312.609 263.657C312.252 264.099 311.787 264.444 311.214 264.692C310.685 264.921 310.207 265.023 309.778 265C309.371 264.967 308.991 264.844 308.637 264.631C308.284 264.418 307.977 264.132 307.717 263.774C307.458 263.415 307.228 263.005 307.027 262.542C306.703 261.793 306.483 261.013 306.367 260.2C306.241 259.365 306.167 258.56 306.145 257.785C306.136 256.979 306.161 256.222 306.222 255.516C306.273 254.788 306.308 254.145 306.328 253.587ZM322.506 242.779C322.726 242.684 322.998 242.618 323.323 242.583C323.66 242.515 323.978 242.495 324.277 242.522C324.567 242.528 324.818 242.563 325.029 242.628C325.263 242.684 325.403 242.767 325.451 242.877C325.411 243.993 325.409 245.106 325.444 246.215C325.47 247.302 325.537 248.332 325.644 249.305C325.752 250.279 325.891 251.173 326.061 251.989C326.253 252.795 326.468 253.473 326.706 254.024C326.973 254.641 327.263 255.13 327.577 255.491C327.88 255.83 328.224 256.021 328.609 256.064C328.421 256.354 328.142 256.645 327.771 256.937C327.4 257.228 327.049 257.445 326.719 257.588C325.53 258.103 324.582 257.545 323.877 255.916C323.333 254.66 323.008 252.761 322.901 250.218C322.899 251.422 322.807 252.599 322.626 253.75C322.434 254.879 322.189 255.914 321.89 256.854C321.591 257.794 321.228 258.618 320.802 259.325C320.389 260.001 319.948 260.493 319.479 260.8C318.645 261.109 317.818 261.01 316.997 260.502C316.166 259.973 315.503 259.135 315.007 257.99C314.473 256.756 314.175 255.343 314.112 253.748C314.05 252.154 314.173 250.597 314.483 249.076C314.815 247.547 315.298 246.187 315.934 244.996C316.559 243.784 317.314 242.96 318.198 242.525C318.447 242.496 318.747 242.523 319.097 242.607C319.469 242.682 319.833 242.798 320.19 242.958C320.569 243.108 320.908 243.288 321.208 243.498C321.499 243.686 321.698 243.874 321.806 244.063C320.982 244.576 320.254 245.402 319.621 246.538C319.011 247.666 318.544 248.914 318.222 250.282C317.911 251.62 317.767 252.977 317.787 254.354C317.808 255.731 318.038 256.926 318.476 257.939C318.657 258.358 318.926 258.555 319.282 258.532C319.864 258.123 320.368 257.264 320.795 255.955C321.212 254.624 321.582 252.698 321.904 250.179C321.952 249.688 322.004 249.142 322.058 248.543C322.135 247.935 322.202 247.304 322.26 246.652C322.317 245.999 322.364 245.351 322.399 244.708C322.447 244.034 322.483 243.391 322.506 242.779ZM330.82 236.003C331.469 235.931 332.18 236.094 332.954 236.491C333.718 236.867 334.378 237.365 334.935 237.987C334.95 238.687 334.886 239.565 334.741 240.621C334.597 241.677 334.462 242.756 334.337 243.856C334.202 244.934 334.097 245.96 334.022 246.934C333.959 247.877 334.004 248.616 334.158 249.151C334.348 248.624 334.547 248.028 334.756 247.362C334.977 246.665 335.181 245.988 335.368 245.332C335.567 244.644 335.757 244.026 335.938 243.477C336.109 242.906 336.251 242.478 336.364 242.194C336.591 241.572 336.868 240.851 337.192 240.031C337.508 239.188 337.864 238.38 338.261 237.607C338.671 236.802 339.119 236.085 339.606 235.456C340.082 234.805 340.585 234.365 341.113 234.136C341.686 233.888 342.245 233.881 342.791 234.116C343.35 234.319 343.83 234.582 344.231 234.905C344.25 234.949 344.191 235.053 344.053 235.217C343.927 235.35 343.787 235.66 343.631 236.145C343.494 236.675 343.38 237.379 343.289 238.255C343.21 239.1 343.159 240.011 343.138 240.988C343.129 241.933 343.184 242.877 343.304 243.819C343.424 244.76 343.632 245.573 343.927 246.256C344.166 246.806 344.384 247.13 344.583 247.227C344.804 247.314 345.047 247.301 345.311 247.187C345.553 247.082 345.783 246.917 345.999 246.692C346.216 246.468 346.402 246.322 346.556 246.255C346.663 246.261 346.772 246.332 346.883 246.467C347.006 246.571 347.091 246.677 347.139 246.788C347.03 247.018 346.887 247.263 346.712 247.522C346.536 247.781 346.345 248.034 346.138 248.28C345.93 248.527 345.714 248.751 345.488 248.954C345.284 249.147 345.082 249.286 344.884 249.372C344.245 249.648 343.674 249.778 343.17 249.761C342.697 249.756 342.273 249.652 341.897 249.449C341.543 249.236 341.232 248.939 340.962 248.559C340.684 248.157 340.439 247.713 340.23 247.229C340.115 246.964 340.009 246.657 339.91 246.308C339.811 245.958 339.732 245.535 339.673 245.037C339.605 244.517 339.559 243.897 339.534 243.175C339.5 242.432 339.48 241.538 339.473 240.495C339.429 240.514 339.198 240.797 338.781 241.344C338.364 241.891 337.974 242.622 337.612 243.537C337.006 244.976 336.494 246.361 336.076 247.693C335.681 249.015 335.311 250.456 334.967 252.017C334.778 252.91 334.596 253.668 334.422 254.293C334.279 254.93 334.109 255.383 333.912 255.651C333.335 255.587 332.831 255.361 332.401 254.972C331.981 254.604 331.606 254.191 331.277 253.732C331.095 253.314 330.922 252.761 330.755 252.075C330.611 251.379 330.471 250.603 330.336 249.746C330.213 248.858 330.119 247.918 330.056 246.925C329.992 245.933 329.962 244.926 329.965 243.905C329.963 241.604 330.065 239.756 330.271 238.359C330.499 236.953 330.682 236.167 330.82 236.003ZM349.32 244.392C349.234 244.194 349.141 243.947 349.039 243.651C348.949 243.323 348.844 242.898 348.722 242.376C348.591 241.831 348.439 241.178 348.266 240.416C348.115 239.644 347.935 238.715 347.726 237.629C347.675 237.389 347.622 236.994 347.566 236.443C347.511 235.891 347.489 235.299 347.503 234.665C347.529 234 347.608 233.338 347.742 232.679C347.897 232.011 348.175 231.445 348.577 230.984C348.989 230.91 349.585 230.927 350.364 231.034C351.133 231.12 351.876 231.386 352.593 231.834C352.334 232.626 352.153 233.385 352.048 234.11C351.966 234.826 351.915 235.554 351.896 236.295C351.898 237.026 351.921 237.774 351.965 238.54C352.031 239.296 352.078 240.099 352.106 240.95C352.131 241.672 352.187 242.406 352.275 243.152C352.353 243.877 352.486 244.486 352.674 244.98C352.846 245.377 352.954 245.657 352.998 245.82C353.075 245.997 353.058 246.108 352.948 246.156C352.86 246.194 352.659 246.215 352.347 246.22C352.036 246.224 351.689 246.178 351.307 246.082C350.938 245.954 350.567 245.761 350.194 245.504C349.821 245.247 349.53 244.876 349.32 244.392ZM349.424 227.322C349.367 227.19 349.314 226.977 349.266 226.685C349.108 226.622 348.937 226.5 348.754 226.318C348.592 226.126 348.473 225.942 348.397 225.766C348.311 225.568 348.219 225.294 348.12 224.944C348.034 224.563 347.949 224.156 347.865 223.721C347.782 223.286 347.715 222.831 347.666 222.356C347.608 221.858 347.568 221.404 347.548 220.995C347.812 220.88 348.165 220.819 348.606 220.811C349.06 220.772 349.537 220.787 350.039 220.858C350.53 220.907 351.003 221.003 351.458 221.146C351.903 221.267 352.265 221.411 352.547 221.577C352.409 221.924 352.238 222.404 352.032 223.016C351.816 223.606 351.626 224.224 351.462 224.871C351.288 225.495 351.137 226.084 351.01 226.636C350.882 227.188 350.813 227.571 350.801 227.785C350.518 227.855 350.239 227.845 349.964 227.755C349.68 227.643 349.5 227.498 349.424 227.322ZM356.775 240.106C356.432 239.313 356.153 238.126 355.939 236.545C355.748 234.954 355.62 233.179 355.556 231.219C355.492 229.259 355.493 227.206 355.558 225.059C355.622 222.913 355.739 220.888 355.909 218.984C356.101 217.07 356.339 215.385 356.623 213.928C356.93 212.461 357.273 211.411 357.652 210.776C357.97 210.665 358.357 210.654 358.815 210.743C359.294 210.824 359.764 210.973 360.225 211.192C360.676 211.389 361.082 211.632 361.442 211.92C361.825 212.199 362.083 212.493 362.216 212.802C361.568 214.023 360.998 215.486 360.507 217.19C360.027 218.862 359.649 220.647 359.373 222.545C359.086 224.421 358.909 226.368 358.841 228.385C358.785 230.37 358.841 232.281 359.008 234.118C359.188 232.602 359.45 231.181 359.791 229.856C360.133 228.531 360.537 227.35 361.003 226.311C361.469 225.273 361.984 224.409 362.549 223.72C363.126 222.999 363.74 222.485 364.391 222.177C365.666 222.462 366.555 223.189 367.061 224.356C367.366 225.061 367.532 225.838 367.561 226.689C367.579 227.518 367.48 228.346 367.262 229.172C367.057 229.967 366.742 230.718 366.316 231.426C365.902 232.101 365.394 232.648 364.79 233.067C365.344 233.742 365.958 234.405 366.631 235.055C367.327 235.695 368.068 236.29 368.855 236.838C369.664 237.377 370.504 237.838 371.375 238.219C372.268 238.591 373.195 238.83 374.157 238.937C374.142 239.205 374.072 239.496 373.947 239.812C373.822 240.128 373.639 240.429 373.397 240.717C373.165 241.027 372.881 241.306 372.545 241.557C372.24 241.819 371.912 242.027 371.559 242.179C370.965 242.437 370.274 242.383 369.488 242.017C368.724 241.641 367.89 240.983 366.985 240.041C366.264 239.28 365.477 238.34 364.626 237.218C363.774 236.096 362.931 234.904 362.098 233.644C362.32 233.312 362.582 232.859 362.882 232.284C363.173 231.687 363.462 231.026 363.75 230.3C364.877 227.589 365.146 225.551 364.555 224.185C364.478 224.009 364.319 223.973 364.077 224.078C363.646 224.291 363.219 224.724 362.796 225.378C362.373 226.032 361.972 226.859 361.595 227.86C361.239 228.85 360.914 229.972 360.619 231.224C360.346 232.467 360.129 233.777 359.967 235.155C359.893 235.709 359.87 236.321 359.898 236.989C359.925 237.657 359.984 238.337 360.075 239.03C360.178 239.692 360.315 240.339 360.484 240.972C360.653 241.604 360.848 242.174 361.067 242.681C361.2 242.989 361.343 243.228 361.495 243.398C360.784 243.627 360.289 243.632 360.011 243.413C359.72 243.225 359.471 243.071 359.262 242.952C359.085 242.846 358.907 242.766 358.727 242.713C358.462 242.645 358.154 242.386 357.803 241.936C357.451 241.487 357.109 240.877 356.775 240.106ZM379.934 217.92C380.154 217.825 380.427 217.759 380.751 217.723C381.088 217.656 381.406 217.636 381.706 217.663C381.996 217.669 382.247 217.704 382.458 217.769C382.691 217.825 382.832 217.908 382.88 218.018C382.839 219.134 382.837 220.246 382.873 221.356C382.899 222.443 382.965 223.473 383.073 224.446C383.181 225.42 383.319 226.314 383.489 227.13C383.681 227.936 383.896 228.614 384.135 229.165C384.402 229.782 384.692 230.271 385.005 230.632C385.309 230.971 385.653 231.162 386.038 231.205C385.85 231.495 385.57 231.786 385.199 232.078C384.829 232.369 384.478 232.586 384.148 232.729C382.958 233.244 382.011 232.686 381.305 231.057C380.762 229.801 380.437 227.902 380.33 225.359C380.328 226.563 380.236 227.74 380.054 228.891C379.863 230.02 379.618 231.055 379.319 231.995C379.02 232.935 378.657 233.759 378.231 234.466C377.817 235.142 377.376 235.634 376.908 235.941C376.074 236.25 375.246 236.151 374.425 235.643C373.595 235.114 372.931 234.276 372.435 233.131C371.902 231.897 371.603 230.483 371.541 228.889C371.478 227.295 371.602 225.738 371.912 224.217C372.243 222.688 372.727 221.328 373.362 220.137C373.988 218.925 374.743 218.101 375.627 217.666C375.876 217.637 376.175 217.664 376.525 217.748C376.898 217.823 377.262 217.939 377.619 218.099C377.997 218.249 378.337 218.429 378.637 218.639C378.927 218.827 379.127 219.015 379.235 219.204C378.411 219.717 377.683 220.542 377.05 221.679C376.44 222.807 375.973 224.055 375.65 225.423C375.34 226.761 375.195 228.118 375.216 229.495C375.237 230.872 375.466 232.067 375.905 233.08C376.086 233.499 376.355 233.696 376.711 233.673C377.292 233.264 377.797 232.405 378.223 231.096C378.641 229.765 379.011 227.839 379.332 225.32C379.381 224.829 379.433 224.283 379.487 223.684C379.564 223.076 379.631 222.445 379.688 221.793C379.746 221.14 379.792 220.492 379.828 219.849C379.876 219.175 379.911 218.532 379.934 217.92Z" fill="#494747"/>
</g>
<path d="M465.363 26.698L542.469 213.118L115.028 384.951L39.4795 189.06L465.363 26.698Z" stroke="#545252" stroke-width="5"/>
<defs>
<filter id="filter0_d" x="222.834" y="112.291" width="128.965" height="124.965" filterUnits="userSpaceOnUse" color-interpolation-filters="sRGB">
<feFlood flood-opacity="0" result="BackgroundImageFix"/>
<feColorMatrix in="SourceAlpha" type="matrix" values="0 0 0 0 0 0 0 0 0 0 0 0 0 0 0 0 0 0 127 0"/>
<feOffset dx="8"/>
<feGaussianBlur stdDeviation="2"/>
<feColorMatrix type="matrix" values="0 0 0 0 0 0 0 0 0 0 0 0 0 0 0 0 0 0 0.25 0"/>
<feBlend mode="normal" in2="BackgroundImageFix" result="effect1_dropShadow"/>
<feBlend mode="normal" in="SourceGraphic" in2="effect1_dropShadow" result="shape"/>
</filter>
<filter id="filter1_d" x="240.606" y="199.683" width="160.432" height="100.191" filterUnits="userSpaceOnUse" color-interpolation-filters="sRGB">
<feFlood flood-opacity="0" result="BackgroundImageFix"/>
<feColorMatrix in="SourceAlpha" type="matrix" values="0 0 0 0 0 0 0 0 0 0 0 0 0 0 0 0 0 0 127 0"/>
<feOffset dx="4"/>
<feGaussianBlur stdDeviation="5.5"/>
<feColorMatrix type="matrix" values="0 0 0 0 0 0 0 0 0 0 0 0 0 0 0 0 0 0 0.25 0"/>
<feBlend mode="normal" in2="BackgroundImageFix" result="effect1_dropShadow"/>
<feBlend mode="normal" in="SourceGraphic" in2="effect1_dropShadow" result="shape"/>
</filter>
</defs>
</svg>
