<svg width="1033" height="403" viewBox="0 0 1033 403" fill="none" xmlns="http://www.w3.org/2000/svg">
<rect width="1033" height="403" rx="21" fill="#3A3A39"/>
<path d="M95.879 79.2961C95.9971 65.2967 107.717 53.6833 120.984 58.1529C134.767 62.7965 147.419 71.1681 157.704 82.6912C173.954 100.9 182.963 125.485 182.747 151.04C182.532 176.595 173.11 201.026 156.554 218.957C146.077 230.305 133.286 238.462 119.426 242.873C106.085 247.118 94.5631 235.308 94.6812 221.309C94.7993 207.31 107.302 196.454 118.515 188.072C120.574 186.533 122.516 184.783 124.315 182.835C132.16 174.338 136.625 162.761 136.727 150.652C136.829 138.543 132.56 126.893 124.86 118.264C123.094 116.286 121.181 114.504 119.149 112.93C108.078 104.361 95.761 93.2955 95.879 79.2961Z" fill="#800000"/>
<path d="M95.879 79.2961C95.9971 65.2967 107.717 53.6833 120.984 58.1529C134.767 62.7965 147.419 71.1681 157.704 82.6912C173.954 100.9 182.963 125.485 182.747 151.04C182.532 176.595 173.11 201.026 156.554 218.957C146.077 230.305 133.286 238.462 119.426 242.873C106.085 247.118 94.5631 235.308 94.6812 221.309C94.7993 207.31 107.302 196.454 118.515 188.072C120.574 186.533 122.516 184.783 124.315 182.835C132.16 174.338 136.625 162.761 136.727 150.652C136.829 138.543 132.56 126.893 124.86 118.264C123.094 116.286 121.181 114.504 119.149 112.93C108.078 104.361 95.761 93.2955 95.879 79.2961Z" fill="url(#paint0_linear)"/>
<g filter="url(#filter0_d)">
<rect x="50.677" y="192.018" width="42.1693" height="179.397" rx="21.0846" transform="rotate(-29.8955 50.677 192.018)" fill="#C4C4C4"/>
<rect x="50.677" y="192.018" width="42.1693" height="179.397" rx="21.0846" transform="rotate(-29.8955 50.677 192.018)" fill="url(#paint1_linear)"/>
</g>
<circle cx="299.177" cy="39.5" r="0.5" fill="#C4C4C4"/>
<path d="M563.04 115.152C563.04 110.736 564.384 107.184 567.072 104.496C569.952 101.808 573.504 100.464 577.728 100.464C582.144 100.464 585.696 101.808 588.384 104.496C591.072 107.184 592.416 110.736 592.416 115.152V243.312C592.416 247.536 591.072 251.088 588.384 253.968C585.696 256.656 582.144 258 577.728 258C573.504 258 569.952 256.656 567.072 253.968C564.384 251.088 563.04 247.536 563.04 243.312V115.152ZM577.728 36.816C582.912 36.816 587.328 38.736 590.976 42.576C594.816 46.224 596.736 50.64 596.736 55.824C596.736 61.008 594.816 65.52 590.976 69.36C587.328 73.008 582.912 74.832 577.728 74.832C572.544 74.832 568.032 73.008 564.192 69.36C560.544 65.52 558.72 61.008 558.72 55.824C558.72 50.64 560.544 46.224 564.192 42.576C568.032 38.736 572.544 36.816 577.728 36.816ZM766.01 237.264C768.122 239.568 769.178 242.448 769.178 245.904C769.178 250.128 767.45 253.68 763.994 256.56C761.114 258.864 758.042 260.016 754.778 260.016C750.554 260.016 747.098 258.288 744.41 254.832L689.69 187.152L675.29 199.824V243.888C675.29 248.112 673.946 251.568 671.258 254.256C668.762 256.752 665.402 258 661.178 258C656.954 258 653.498 256.752 650.81 254.256C648.314 251.568 647.066 248.112 647.066 243.888V47.184C647.066 42.96 648.314 39.6 650.81 37.104C653.498 34.416 656.954 33.072 661.178 33.072C665.402 33.072 668.762 34.416 671.258 37.104C673.946 39.6 675.29 42.96 675.29 47.184V164.4L745.274 101.904C747.77 99.408 750.746 98.16 754.202 98.16C758.234 98.16 761.498 99.696 763.994 102.768C766.49 105.264 767.738 108.24 767.738 111.696C767.738 115.728 766.202 118.992 763.13 121.488L710.138 168.72L766.01 237.264ZM868.115 99.312C882.899 99.312 896.243 102.864 908.147 109.968C920.243 116.88 929.747 126.48 936.659 138.768C943.763 150.864 947.315 164.4 947.315 179.376V243.6C947.315 247.824 945.875 251.376 942.995 254.256C940.307 256.944 936.851 258.288 932.627 258.288C928.403 258.288 924.851 256.944 921.971 254.256C919.283 251.376 917.939 247.824 917.939 243.6V232.944C911.219 241.2 903.059 247.632 893.459 252.24C883.859 256.848 873.491 259.152 862.355 259.152C848.531 259.152 835.955 255.696 824.627 248.784C813.491 241.872 804.659 232.368 798.131 220.272C791.795 207.984 788.627 194.352 788.627 179.376C788.627 164.4 792.083 150.864 798.995 138.768C805.907 126.48 815.411 116.88 827.507 109.968C839.795 102.864 853.331 99.312 868.115 99.312ZM868.115 233.232C877.715 233.232 886.355 230.928 894.035 226.32C901.907 221.52 908.051 215.088 912.467 207.024C916.883 198.768 919.091 189.552 919.091 179.376C919.091 169.2 916.883 159.984 912.467 151.728C908.051 143.472 901.907 137.04 894.035 132.432C886.355 127.632 877.715 125.232 868.115 125.232C858.515 125.232 849.779 127.632 841.907 132.432C834.227 137.04 828.083 143.472 823.475 151.728C819.059 159.984 816.851 169.2 816.851 179.376C816.851 189.552 819.059 198.768 823.475 207.024C828.083 215.088 834.227 221.52 841.907 226.32C849.779 230.928 858.515 233.232 868.115 233.232Z" fill="#F7F7F7"/>
<path d="M567.072 104.496L562.295 99.3786L562.207 99.4609L562.122 99.5462L567.072 104.496ZM588.384 253.968L593.333 258.918L593.419 258.832L593.501 258.744L588.384 253.968ZM567.072 253.968L561.954 258.744L562.119 258.921L562.295 259.085L567.072 253.968ZM590.976 42.576L585.901 47.3972L586.024 47.5274L586.154 47.651L590.976 42.576ZM590.976 69.36L595.925 74.3097L590.976 69.36ZM564.192 69.36L559.117 74.1812L559.24 74.3114L559.37 74.435L564.192 69.36ZM564.192 42.576L559.242 37.6262L559.242 37.6262L564.192 42.576ZM570.04 115.152C570.04 112.268 570.859 110.608 572.021 109.446L562.122 99.5462C557.908 103.76 556.04 109.204 556.04 115.152H570.04ZM571.848 109.613C573.333 108.228 575.136 107.464 577.728 107.464V93.464C571.871 93.464 566.57 95.3884 562.295 99.3786L571.848 109.613ZM577.728 107.464C580.612 107.464 582.271 108.283 583.434 109.446L593.333 99.5462C589.12 95.3326 583.676 93.464 577.728 93.464V107.464ZM583.434 109.446C584.596 110.608 585.416 112.268 585.416 115.152H599.416C599.416 109.204 597.547 103.76 593.333 99.5462L583.434 109.446ZM585.416 115.152V243.312H599.416V115.152H585.416ZM585.416 243.312C585.416 245.903 584.652 247.707 583.266 249.192L593.501 258.744C597.491 254.469 599.416 249.169 599.416 243.312H585.416ZM583.434 249.018C582.271 250.181 580.612 251 577.728 251V265C583.676 265 589.12 263.131 593.333 258.918L583.434 249.018ZM577.728 251C575.136 251 573.333 250.236 571.848 248.851L562.295 259.085C566.57 263.076 571.871 265 577.728 265V251ZM572.189 249.192C570.803 247.707 570.04 245.903 570.04 243.312H556.04C556.04 249.169 557.964 254.469 561.954 258.744L572.189 249.192ZM570.04 243.312V115.152H556.04V243.312H570.04ZM577.728 43.816C580.946 43.816 583.542 44.9142 585.901 47.3972L596.05 37.7547C591.113 32.5578 584.877 29.816 577.728 29.816V43.816ZM586.154 47.651C588.637 50.0099 589.736 52.6053 589.736 55.824H603.736C603.736 48.6746 600.994 42.4381 595.797 37.501L586.154 47.651ZM589.736 55.824C589.736 59.0554 588.623 61.8135 586.026 64.4102L595.925 74.3097C601.008 69.2265 603.736 62.9606 603.736 55.824H589.736ZM586.026 64.4102C583.698 66.7384 581.065 67.832 577.728 67.832V81.832C584.758 81.832 590.957 79.2776 595.925 74.3097L586.026 64.4102ZM577.728 67.832C574.381 67.832 571.583 66.7269 569.013 64.285L559.37 74.435C564.48 79.289 570.706 81.832 577.728 81.832V67.832ZM569.266 64.5387C566.825 61.9683 565.72 59.1707 565.72 55.824H551.72C551.72 62.8453 554.262 69.0717 559.117 74.1812L569.266 64.5387ZM565.72 55.824C565.72 52.4864 566.813 49.8539 569.141 47.5257L559.242 37.6262C554.274 42.5941 551.72 48.7936 551.72 55.824H565.72ZM569.141 47.5257C571.738 44.929 574.496 43.816 577.728 43.816V29.816C570.591 29.816 564.325 32.543 559.242 37.6262L569.141 47.5257ZM766.01 237.264L760.584 241.687L760.712 241.844L760.85 241.994L766.01 237.264ZM763.994 256.56L768.367 262.026L768.421 261.982L768.475 261.938L763.994 256.56ZM744.41 254.832L749.935 250.534L749.895 250.482L749.853 250.431L744.41 254.832ZM689.69 187.152L695.133 182.751L690.544 177.075L685.065 181.897L689.69 187.152ZM675.29 199.824L670.665 194.569L668.29 196.66V199.824H675.29ZM671.258 254.256L666.308 249.306L671.258 254.256ZM650.81 254.256L645.68 259.019L645.857 259.209L646.047 259.386L650.81 254.256ZM650.81 37.104L645.86 32.1542V32.1542L650.81 37.104ZM671.258 37.104L666.128 41.8672L666.305 42.0571L666.495 42.2335L671.258 37.104ZM675.29 164.4H668.29V180.036L679.952 169.621L675.29 164.4ZM745.274 101.904L749.936 107.125L750.084 106.994L750.223 106.854L745.274 101.904ZM763.994 102.768L758.561 107.182L758.789 107.462L759.044 107.718L763.994 102.768ZM763.13 121.488L758.716 116.055L758.592 116.156L758.472 116.262L763.13 121.488ZM710.138 168.72L705.48 163.494L700.48 167.951L704.712 173.143L710.138 168.72ZM760.85 241.994C761.649 242.867 762.178 243.999 762.178 245.904H776.178C776.178 240.897 774.594 236.269 771.17 232.534L760.85 241.994ZM762.178 245.904C762.178 247.901 761.491 249.534 759.512 251.182L768.475 261.938C773.408 257.826 776.178 252.355 776.178 245.904H762.178ZM759.621 251.094C757.812 252.541 756.247 253.016 754.778 253.016V267.016C759.836 267.016 764.416 265.187 768.367 262.026L759.621 251.094ZM754.778 253.016C752.804 253.016 751.353 252.358 749.935 250.534L738.884 259.13C742.842 264.218 748.303 267.016 754.778 267.016V253.016ZM749.853 250.431L695.133 182.751L684.246 191.553L738.966 259.233L749.853 250.431ZM685.065 181.897L670.665 194.569L679.914 205.079L694.314 192.407L685.065 181.897ZM668.29 199.824V243.888H682.29V199.824H668.29ZM668.29 243.888C668.29 246.482 667.532 248.083 666.308 249.306L676.208 259.206C680.36 255.053 682.29 249.742 682.29 243.888H668.29ZM666.308 249.306C665.378 250.237 663.936 251 661.178 251V265C666.867 265 672.146 263.267 676.208 259.206L666.308 249.306ZM661.178 251C658.434 251 656.77 250.238 655.573 249.126L646.047 259.386C650.225 263.266 655.474 265 661.178 265V251ZM655.939 249.493C654.828 248.296 654.066 246.632 654.066 243.888H640.066C640.066 249.592 641.8 254.84 645.68 259.019L655.939 249.493ZM654.066 243.888V47.184H640.066V243.888H654.066ZM654.066 47.184C654.066 44.4254 654.829 42.9841 655.76 42.0537L645.86 32.1542C641.798 36.2159 640.066 41.4946 640.066 47.184H654.066ZM655.759 42.0537C656.983 40.8302 658.584 40.072 661.178 40.072V26.072C655.323 26.072 650.012 28.0018 645.86 32.1542L655.759 42.0537ZM661.178 40.072C663.779 40.072 665.162 40.8265 666.128 41.8672L676.387 32.3408C672.362 28.0055 667.025 26.072 661.178 26.072V40.072ZM666.495 42.2335C667.535 43.1999 668.29 44.5829 668.29 47.184H682.29C682.29 41.3371 680.356 36.0001 676.021 31.9744L666.495 42.2335ZM668.29 47.184V164.4H682.29V47.184H668.29ZM679.952 169.621L749.936 107.125L740.611 96.6828L670.627 159.179L679.952 169.621ZM750.223 106.854C751.438 105.639 752.646 105.16 754.202 105.16V91.16C748.845 91.16 744.101 93.1769 740.324 96.9542L750.223 106.854ZM754.202 105.16C756.172 105.16 757.423 105.781 758.561 107.182L769.427 98.3538C765.573 93.6108 760.296 91.16 754.202 91.16V105.16ZM759.044 107.718C760.259 108.932 760.738 110.141 760.738 111.696H774.738C774.738 106.339 772.721 101.596 768.944 97.8182L759.044 107.718ZM760.738 111.696C760.738 113.666 760.117 114.917 758.716 116.055L767.544 126.921C772.287 123.067 774.738 117.79 774.738 111.696H760.738ZM758.472 116.262L705.48 163.494L714.795 173.946L767.787 126.714L758.472 116.262ZM704.712 173.143L760.584 241.687L771.436 232.841L715.564 164.297L704.712 173.143ZM908.147 109.968L904.56 115.979L904.616 116.013L904.674 116.046L908.147 109.968ZM936.659 138.768L930.558 142.2L930.59 142.257L930.623 142.313L936.659 138.768ZM942.995 254.256L947.945 259.206L942.995 254.256ZM921.971 254.256L916.853 259.032L917.018 259.209L917.195 259.373L921.971 254.256ZM917.939 232.944H924.939V213.255L912.51 228.525L917.939 232.944ZM893.459 252.24L896.488 258.551L893.459 252.24ZM824.627 248.784L820.935 254.731L820.958 254.746L820.981 254.759L824.627 248.784ZM798.131 220.272L791.909 223.48L791.939 223.539L791.971 223.597L798.131 220.272ZM798.995 138.768L805.072 142.241L805.084 142.22L805.096 142.2L798.995 138.768ZM827.507 109.968L830.98 116.046L830.995 116.037L831.01 116.028L827.507 109.968ZM894.035 226.32L897.636 232.322L897.658 232.31L897.679 232.297L894.035 226.32ZM912.467 207.024L918.606 210.386L918.623 210.356L918.639 210.326L912.467 207.024ZM912.467 151.728L906.294 155.03L912.467 151.728ZM894.035 132.432L890.325 138.368L890.411 138.422L890.499 138.473L894.035 132.432ZM841.907 132.432L845.508 138.434L845.53 138.422L845.551 138.409L841.907 132.432ZM823.475 151.728L817.362 148.316L817.332 148.371L817.302 148.426L823.475 151.728ZM823.475 207.024L817.302 210.326L817.348 210.412L817.397 210.497L823.475 207.024ZM841.907 226.32L838.197 232.256L838.283 232.31L838.371 232.361L841.907 226.32ZM868.115 106.312C881.723 106.312 893.813 109.566 904.56 115.979L911.734 103.957C898.673 96.1625 884.075 92.312 868.115 92.312V106.312ZM904.674 116.046C915.657 122.322 924.259 131.001 930.558 142.2L942.76 135.336C935.235 121.959 924.829 111.438 911.62 103.89L904.674 116.046ZM930.623 142.313C937.053 153.261 940.315 165.559 940.315 179.376H954.315C954.315 163.241 950.473 148.467 942.695 135.223L930.623 142.313ZM940.315 179.376V243.6H954.315V179.376H940.315ZM940.315 243.6C940.315 246.044 939.559 247.792 938.045 249.306L947.945 259.206C952.191 254.96 954.315 249.604 954.315 243.6H940.315ZM938.045 249.306C936.821 250.53 935.22 251.288 932.627 251.288V265.288C938.481 265.288 943.792 263.358 947.945 259.206L938.045 249.306ZM932.627 251.288C930.036 251.288 928.232 250.524 926.747 249.139L917.195 259.373C921.47 263.364 926.77 265.288 932.627 265.288V251.288ZM927.088 249.48C925.702 247.995 924.939 246.191 924.939 243.6H910.939C910.939 249.457 912.863 254.757 916.853 259.032L927.088 249.48ZM924.939 243.6V232.944H910.939V243.6H924.939ZM912.51 228.525C906.441 235.981 899.1 241.767 890.43 245.929L896.488 258.551C907.017 253.497 915.997 246.419 923.368 237.363L912.51 228.525ZM890.43 245.929C881.818 250.063 872.491 252.152 862.355 252.152V266.152C874.49 266.152 885.899 263.633 896.488 258.551L890.43 245.929ZM862.355 252.152C849.761 252.152 838.456 249.022 828.273 242.809L820.981 254.759C833.454 262.37 847.301 266.152 862.355 266.152V252.152ZM828.318 242.837C818.271 236.6 810.268 228.023 804.291 216.947L791.971 223.597C799.049 236.713 808.71 247.144 820.935 254.731L828.318 242.837ZM804.352 217.064C798.57 205.849 795.627 193.331 795.627 179.376H781.627C781.627 195.373 785.02 210.119 791.909 223.48L804.352 217.064ZM795.627 179.376C795.627 165.524 798.81 153.2 805.072 142.241L792.917 135.295C785.356 148.528 781.627 163.276 781.627 179.376H795.627ZM805.096 142.2C811.395 131.001 819.997 122.322 830.98 116.046L824.034 103.89C810.825 111.438 800.419 121.959 792.894 135.336L805.096 142.2ZM831.01 116.028C842.188 109.566 854.508 106.312 868.115 106.312V92.312C852.154 92.312 837.401 96.162 824.003 103.908L831.01 116.028ZM868.115 240.232C878.889 240.232 888.79 237.63 897.636 232.322L890.433 220.318C883.92 224.226 876.541 226.232 868.115 226.232V240.232ZM897.679 232.297C906.594 226.86 913.6 219.528 918.606 210.386L906.327 203.662C902.501 210.648 897.219 216.18 890.391 220.343L897.679 232.297ZM918.639 210.326C923.645 200.967 926.091 190.601 926.091 179.376H912.091C912.091 188.503 910.121 196.569 906.294 203.722L918.639 210.326ZM926.091 179.376C926.091 168.151 923.645 157.785 918.639 148.426L906.294 155.03C910.121 162.183 912.091 170.249 912.091 179.376H926.091ZM918.639 148.426C913.631 139.063 906.588 131.669 897.571 126.391L890.499 138.473C897.225 142.411 902.47 147.881 906.294 155.03L918.639 148.426ZM897.745 126.496C888.884 120.958 878.944 118.232 868.115 118.232V132.232C876.485 132.232 883.825 134.306 890.325 138.368L897.745 126.496ZM868.115 118.232C857.285 118.232 847.279 120.958 838.263 126.455L845.551 138.409C852.279 134.306 859.745 132.232 868.115 132.232V118.232ZM838.305 126.43C829.517 131.702 822.532 139.054 817.362 148.316L829.587 155.14C833.633 147.89 838.936 142.378 845.508 138.434L838.305 126.43ZM817.302 148.426C812.297 157.785 809.851 168.151 809.851 179.376H823.851C823.851 170.249 825.821 162.183 829.647 155.03L817.302 148.426ZM809.851 179.376C809.851 190.601 812.297 200.967 817.302 210.326L829.647 203.722C825.821 196.569 823.851 188.503 823.851 179.376H809.851ZM817.397 210.497C822.564 219.538 829.51 226.827 838.197 232.256L845.617 220.384C838.943 216.213 833.602 210.638 829.552 203.551L817.397 210.497ZM838.371 232.361C847.372 237.63 857.34 240.232 868.115 240.232V226.232C859.69 226.232 852.185 224.226 845.443 220.279L838.371 232.361Z" fill="#F7F7F7"/>
<rect x="301.677" y="210" width="43" height="49" rx="21.5" transform="rotate(-90 301.677 210)" fill="#F7F7F7"/>
<path d="M322.677 216.5C322.677 243.838 300.515 266 273.177 266C245.839 266 223.677 243.838 223.677 216.5C223.677 189.162 245.839 167 273.177 167C300.515 167 322.677 189.162 322.677 216.5ZM264.501 216.5C264.501 221.292 268.385 225.177 273.177 225.177C277.969 225.177 281.853 221.292 281.853 216.5C281.853 211.708 277.969 207.824 273.177 207.824C268.385 207.824 264.501 211.708 264.501 216.5Z" fill="#F7F7F7"/>
<rect x="280.677" y="92.0002" width="42" height="150" rx="21" fill="#F7F7F7"/>
<path d="M391.286 156.023C391.492 147.485 393.285 139.068 396.564 131.253C399.844 123.439 404.544 116.38 410.398 110.479C416.252 104.579 423.144 99.9521 430.682 96.8638C438.219 93.7755 446.254 92.2859 454.327 92.4801C462.4 92.6742 470.354 94.5482 477.734 97.9952C485.114 101.442 491.776 106.395 497.34 112.57C502.903 118.745 507.259 126.022 510.159 133.985C513.059 141.948 514.446 150.441 514.241 158.98L472.707 157.981C472.773 155.211 472.323 152.456 471.383 149.873C470.442 147.29 469.029 144.929 467.224 142.926C465.419 140.923 463.258 139.316 460.864 138.198C458.47 137.08 455.89 136.472 453.271 136.409C450.652 136.346 448.045 136.829 445.6 137.831C443.155 138.833 440.919 140.333 439.02 142.248C437.121 144.162 435.596 146.452 434.533 148.987C433.469 151.522 432.887 154.252 432.82 157.022L391.286 156.023Z" fill="#F7F7F7"/>
<rect x="390.677" y="136" width="42" height="130" rx="21" fill="#F7F7F7"/>
<rect x="472.677" y="136" width="42" height="130" rx="21" fill="#F7F7F7"/>
<path d="M677.337 243.839L645.353 243.088C642.406 243.018 639.982 245.345 639.931 248.293L639.643 264.666L682.291 265.672L682.575 249.295C682.626 246.355 680.281 243.912 677.337 243.839Z" fill="#F7F7F7"/>
<path d="M665.169 330.407C665.22 327.467 662.872 325.02 659.932 324.951C656.995 324.878 654.56 327.215 654.505 330.159C654.458 333.096 656.81 335.547 659.747 335.612C662.687 335.689 665.118 333.348 665.169 330.407Z" fill="#F7F7F7"/>
<path d="M639.255 287.287L681.902 288.293L682.109 276.335L639.462 275.329L639.255 287.287Z" fill="#F7F7F7"/>
<path d="M682.295 298.967L638.487 297.934C635.737 309.945 624.859 318.793 612.046 318.487C609.981 318.446 608.087 319.581 607.176 321.427C606.262 323.261 606.495 325.476 607.772 327.098L653.552 385.376L654.253 345.17C648.094 342.815 643.729 336.847 643.845 329.907C643.998 321.085 651.3 314.084 660.116 314.288C668.933 314.5 675.982 321.843 675.837 330.658C675.753 335.068 673.893 339.026 670.944 341.857C669.256 343.476 667.181 344.668 664.912 345.422L664.212 385.628L711.978 329.56C713.31 327.993 713.62 325.797 712.77 323.914C711.92 322.031 710.06 320.799 708.002 320.75C695.186 320.448 684.627 311.099 682.295 298.967Z" fill="#F7F7F7"/>
<circle cx="54" cy="48" r="20" fill="white"/>
<circle cx="54" cy="358" r="20" fill="white"/>
<circle cx="989" cy="358" r="20" fill="white"/>
<circle cx="989" cy="48" r="20" fill="white"/>
<defs>
<filter id="filter0_d" x="50.677" y="169" width="129.973" height="180.544" filterUnits="userSpaceOnUse" color-interpolation-filters="sRGB">
<feFlood flood-opacity="0" result="BackgroundImageFix"/>
<feColorMatrix in="SourceAlpha" type="matrix" values="0 0 0 0 0 0 0 0 0 0 0 0 0 0 0 0 0 0 127 0"/>
<feOffset dx="2"/>
<feGaussianBlur stdDeviation="1"/>
<feColorMatrix type="matrix" values="0 0 0 0 0 0 0 0 0 0 0 0 0 0 0 0 0 0 0.25 0"/>
<feBlend mode="normal" in2="BackgroundImageFix" result="effect1_dropShadow"/>
<feBlend mode="normal" in="SourceGraphic" in2="effect1_dropShadow" result="shape"/>
</filter>
<linearGradient id="paint0_linear" x1="7.81273" y1="149.565" x2="182.747" y2="151.04" gradientUnits="userSpaceOnUse">
<stop stop-color="#FF0000"/>
<stop offset="1" stop-color="#880000"/>
</linearGradient>
<linearGradient id="paint1_linear" x1="71.7616" y1="192.018" x2="71.7616" y2="371.415" gradientUnits="userSpaceOnUse">
<stop stop-color="#FF0000"/>
<stop offset="0.9999" stop-color="#800000"/>
<stop offset="1" stop-color="#080A20"/>
</linearGradient>
</defs>
</svg>
