<svg width="462" height="300" viewBox="0 0 462 300" fill="none" xmlns="http://www.w3.org/2000/svg">
<mask id="mask0" mask-type="alpha" maskUnits="userSpaceOnUse" x="0" y="0" width="300" height="300">
<path d="M295 150C295 230.081 230.081 295 150 295C69.9187 295 5 230.081 5 150C5 69.9187 69.9187 5 150 5C230.081 5 295 69.9187 295 150Z" fill="#C4C4C4" stroke="black" stroke-width="10"/>
</mask>
<g mask="url(#mask0)">
<path d="M295 150C295 230.081 230.081 295 150 295C69.9187 295 5 230.081 5 150C5 69.9187 69.9187 5 150 5C230.081 5 295 69.9187 295 150Z" stroke="black" stroke-width="10"/>
<path d="M295 150C295 230.081 230.081 295 150 295C69.9187 295 5 230.081 5 150C5 69.9187 69.9187 5 150 5C230.081 5 295 69.9187 295 150Z" fill="white" stroke="black" stroke-width="10"/>
<path d="M251.755 53.4795L-45.4476 346.855L-49.9152 342.522L247.288 49.1457L251.755 53.4795Z" fill="black"/>
<path d="M233.885 36.144L-63.3176 329.52L-67.7852 325.186L229.418 31.8102L233.885 36.144Z" fill="black"/>
<path d="M242.82 44.8118L-54.3826 338.188L-58.8502 333.854L238.353 40.478L242.82 44.8118Z" fill="black"/>
<path d="M224.95 27.4762L-72.2526 320.852L-76.7201 316.518L220.483 23.1423L224.95 27.4762Z" fill="black"/>
<path d="M207.08 10.1406L-90.1225 303.516L-94.5901 299.183L202.613 5.80681L207.08 10.1406Z" fill="black"/>
<path d="M216.015 18.8084L-81.1875 312.184L-85.6551 307.85L211.548 14.4745L216.015 18.8084Z" fill="black"/>
<path d="M198.145 1.47282L-99.0575 294.849L-103.525 290.515L193.678 -2.861L198.145 1.47282Z" fill="black"/>
<path d="M180.276 -15.8628L-116.927 277.513L-121.395 273.179L175.808 -20.1966L180.276 -15.8628Z" fill="black"/>
<path d="M189.21 -7.19498L-107.992 286.181L-112.46 281.847L184.743 -11.5288L189.21 -7.19498Z" fill="black"/>
<path d="M171.341 -24.5306L-125.862 268.845L-130.33 264.511L166.873 -28.8644L171.341 -24.5306Z" fill="black"/>
<path d="M153.471 -41.8661L-143.732 251.51L-148.2 247.176L149.003 -46.2L153.471 -41.8661Z" fill="black"/>
<path d="M162.406 -33.1983L-134.797 260.178L-139.265 255.844L157.938 -37.5321L162.406 -33.1983Z" fill="black"/>
<path d="M351.105 346.764L48.5698 53.5728L52.9636 49.2398L355.499 342.431L351.105 346.764Z" fill="black"/>
<path d="M368.681 329.432L66.1456 36.2411L70.5395 31.9081L373.075 325.099L368.681 329.432Z" fill="black"/>
<path d="M359.893 338.098L57.3577 44.9069L61.7515 40.574L364.287 333.765L359.893 338.098Z" fill="black"/>
<path d="M377.469 320.766L74.9335 27.5753L79.3274 23.2423L381.863 316.433L377.469 320.766Z" fill="black"/>
<path d="M395.045 303.435L92.5093 10.2437L96.9032 5.91071L399.439 299.102L395.045 303.435Z" fill="black"/>
<path d="M386.257 312.1L83.7215 18.9095L88.1153 14.5765L390.651 307.767L386.257 312.1Z" fill="black"/>
<path d="M403.833 294.769L101.297 1.57788L105.691 -2.7551L408.226 290.436L403.833 294.769Z" fill="black"/>
<path d="M421.408 277.437L118.873 -15.7537L123.267 -20.0867L425.802 273.104L421.408 277.437Z" fill="black"/>
<path d="M412.621 286.103L110.085 -7.08793L114.479 -11.4209L417.014 281.77L412.621 286.103Z" fill="black"/>
<path d="M430.196 268.771L127.661 -24.4196L132.055 -28.7525L434.59 264.438L430.196 268.771Z" fill="black"/>
<path d="M447.772 251.44L145.237 -41.7512L149.631 -46.0842L452.166 247.107L447.772 251.44Z" fill="black"/>
<path d="M438.984 260.106L136.449 -33.0854L140.843 -37.4184L443.378 255.773L438.984 260.106Z" fill="black"/>
<path d="M359.504 288.931L-61.7902 288.886L-61.6497 282.716L359.644 282.761L359.504 288.931Z" fill="black"/>
<path d="M360.066 264.253L-61.2278 264.208L-61.0873 258.039L360.207 258.084L360.066 264.253Z" fill="black"/>
<path d="M359.785 276.592L-61.509 276.547L-61.3685 270.378L359.925 270.423L359.785 276.592Z" fill="black"/>
<path d="M360.347 251.914L-60.9465 251.87L-60.8061 245.7L360.488 245.745L360.347 251.914Z" fill="black"/>
<path d="M360.91 227.237L-60.3841 227.192L-60.2437 221.023L361.05 221.068L360.91 227.237Z" fill="black"/>
<path d="M360.629 239.576L-60.6653 239.531L-60.5248 233.361L360.769 233.406L360.629 239.576Z" fill="black"/>
<path d="M361.191 214.898L-60.1029 214.853L-59.9624 208.684L361.331 208.729L361.191 214.898Z" fill="black"/>
<path d="M361.753 190.221L-59.5405 190.176L-59.4 184.006L361.894 184.051L361.753 190.221Z" fill="black"/>
<path d="M361.472 202.559L-59.8217 202.515L-59.6812 196.345L361.613 196.39L361.472 202.559Z" fill="black"/>
<path d="M362.035 177.882L-59.2593 177.837L-59.1188 171.668L362.175 171.713L362.035 177.882Z" fill="black"/>
<path d="M362.597 153.204L-58.6969 153.16L-58.5564 146.99L362.737 147.035L362.597 153.204Z" fill="black"/>
<path d="M362.316 165.543L-58.9781 165.498L-58.8376 159.329L362.456 159.374L362.316 165.543Z" fill="black"/>
</g>
<path d="M369.152 76.6406H347.707L342.891 90H335.93L355.477 38.8125H361.383L380.965 90H374.039L369.152 76.6406ZM349.746 71.0859H367.148L358.43 47.1445L349.746 71.0859ZM400.863 66.1992L394.605 72.7031V90H387.855V38.8125H394.605V64.125L417.352 38.8125H425.508L405.363 61.418L427.09 90H419.004L400.863 66.1992ZM354.984 152.184C349.195 150.52 344.977 148.48 342.328 146.066C339.703 143.629 338.391 140.629 338.391 137.066C338.391 133.035 339.996 129.707 343.207 127.082C346.441 124.434 350.637 123.109 355.793 123.109C359.309 123.109 362.438 123.789 365.18 125.148C367.945 126.508 370.078 128.383 371.578 130.773C373.102 133.164 373.863 135.777 373.863 138.613H367.078C367.078 135.52 366.094 133.094 364.125 131.336C362.156 129.555 359.379 128.664 355.793 128.664C352.465 128.664 349.863 129.402 347.988 130.879C346.137 132.332 345.211 134.359 345.211 136.961C345.211 139.047 346.09 140.816 347.848 142.27C349.629 143.699 352.641 145.012 356.883 146.207C361.148 147.402 364.477 148.727 366.867 150.18C369.281 151.609 371.062 153.285 372.211 155.207C373.383 157.129 373.969 159.391 373.969 161.992C373.969 166.141 372.352 169.469 369.117 171.977C365.883 174.461 361.559 175.703 356.145 175.703C352.629 175.703 349.348 175.035 346.301 173.699C343.254 172.34 340.898 170.488 339.234 168.145C337.594 165.801 336.773 163.141 336.773 160.164H343.559C343.559 163.258 344.695 165.707 346.969 167.512C349.266 169.293 352.324 170.184 356.145 170.184C359.707 170.184 362.438 169.457 364.336 168.004C366.234 166.551 367.184 164.57 367.184 162.062C367.184 159.555 366.305 157.621 364.547 156.262C362.789 154.879 359.602 153.52 354.984 152.184ZM421.992 175H415.207V151.34H389.402V175H382.652V123.812H389.402V145.82H415.207V123.812H421.992V175ZM373.969 207.812V242.617C373.945 247.445 372.422 251.395 369.398 254.465C366.398 257.535 362.32 259.258 357.164 259.633L355.371 259.703C349.77 259.703 345.305 258.191 341.977 255.168C338.648 252.145 336.961 247.984 336.914 242.688V207.812H343.594V242.477C343.594 246.18 344.613 249.062 346.652 251.125C348.691 253.164 351.598 254.184 355.371 254.184C359.191 254.184 362.109 253.164 364.125 251.125C366.164 249.086 367.184 246.215 367.184 242.512V207.812H373.969ZM423.961 259H417.176L391.406 219.555V259H384.621V207.812H391.406L417.246 247.434V207.812H423.961V259Z" fill="black"/>
<rect x="440" y="238" width="21" height="21" fill="black"/>
</svg>
