<svg width="500" height="500" viewBox="0 0 500 500" fill="none" xmlns="http://www.w3.org/2000/svg">
<mask id="mask0" mask-type="alpha" maskUnits="userSpaceOnUse" x="0" y="0" width="500" height="500">
<circle cx="250" cy="250" r="250" fill="#C4C4C4"/>
</mask>
<g mask="url(#mask0)">
<circle cx="250" cy="250" r="245" fill="white" stroke="black" stroke-width="10"/>
<circle cx="250" cy="250" r="245" stroke="black" stroke-width="10"/>
<path d="M516.514 542.147L243.863 -21.3567L234.861 -17.0012L507.513 546.503L516.514 542.147ZM532.717 534.308L260.066 -29.1965L251.064 -24.841L523.716 538.663L532.717 534.308ZM548.02 526.903L275.368 -36.6009L266.367 -32.2454L539.019 531.259L548.02 526.903ZM563.323 519.499L290.671 -44.0051L281.669 -39.6496L554.321 523.854L563.323 519.499ZM579.526 511.659L306.874 -51.8449L297.872 -47.4895L570.524 516.015L579.526 511.659ZM594.829 504.255L322.177 -59.2493L313.175 -54.8938L585.827 508.61L594.829 504.255ZM610.132 496.851L337.48 -66.6535L328.478 -62.2981L601.13 501.206L610.132 496.851ZM626.335 489.011L353.683 -74.4933L344.681 -70.1379L617.333 493.366L626.335 489.011ZM641.638 481.607L368.986 -81.8977L359.984 -77.5422L632.636 485.962L641.638 481.607ZM451.514 728.147L178.863 164.643L169.861 168.999L442.513 732.503L451.514 728.147ZM467.717 720.308L195.066 156.803L186.064 161.159L458.716 724.663L467.717 720.308ZM483.02 712.903L210.368 149.399L201.367 153.755L474.019 717.259L483.02 712.903ZM498.323 705.499L225.671 141.995L216.669 146.35L489.321 709.854L498.323 705.499ZM514.526 697.659L241.874 134.155L232.872 138.511L505.524 702.015L514.526 697.659ZM529.829 690.255L257.177 126.751L248.175 131.106L520.827 694.61L529.829 690.255ZM545.132 682.851L272.48 119.346L263.478 123.702L536.13 687.206L545.132 682.851ZM561.335 675.011L288.683 111.507L279.681 115.862L552.333 679.366L561.335 675.011ZM576.637 667.606L303.986 104.102L294.984 108.458L567.636 671.962L576.637 667.606ZM388.514 916.147L115.863 352.643L106.861 356.999L379.513 920.503L388.514 916.147ZM404.717 908.308L132.065 344.803L123.064 349.159L395.716 912.663L404.717 908.308ZM420.02 900.903L147.368 337.399L138.367 341.755L411.018 905.259L420.02 900.903ZM435.323 893.499L162.671 329.995L153.669 334.35L426.321 897.854L435.323 893.499ZM451.526 885.659L178.874 322.155L169.872 326.511L442.524 890.015L451.526 885.659ZM466.829 878.255L194.177 314.751L185.175 319.106L457.827 882.61L466.829 878.255ZM482.132 870.851L209.48 307.346L200.478 311.702L473.13 875.206L482.132 870.851ZM498.335 863.011L225.683 299.507L216.681 303.862L489.333 867.366L498.335 863.011ZM513.638 855.606L240.986 292.102L231.984 296.458L504.636 859.962L513.638 855.606ZM-318.843 254.69L246.645 -13.8234L242.355 -22.8567L-323.132 245.657L-318.843 254.69ZM-311.122 270.95L254.365 2.43661L250.076 -6.59673L-315.412 261.917L-311.122 270.95ZM-303.83 286.307L261.657 17.7934L257.368 8.76003L-308.12 277.274L-303.83 286.307ZM-296.538 301.664L268.949 33.15L264.66 24.1167L-300.828 292.631L-296.538 301.664ZM-288.818 317.924L276.67 49.41L272.381 40.3767L-293.107 308.891L-288.818 317.924ZM-281.526 333.281L283.962 64.7668L279.673 55.7335L-285.815 324.247L-281.526 333.281ZM-274.234 348.637L291.254 80.1235L286.965 71.0901L-278.523 339.604L-274.234 348.637ZM-266.513 364.897L298.975 96.3835L294.685 87.3501L-270.802 355.864L-266.513 364.897ZM-259.221 380.254L306.267 111.74L301.977 102.707L-263.51 371.221L-259.221 380.254ZM-389.843 442.69L175.645 174.177L171.355 165.143L-394.132 433.657L-389.843 442.69ZM-382.122 458.95L183.365 190.437L179.076 181.403L-386.412 449.917L-382.122 458.95ZM-374.83 474.307L190.657 205.793L186.368 196.76L-379.12 465.274L-374.83 474.307ZM-367.538 489.664L197.949 221.15L193.66 212.117L-371.828 480.63L-367.538 489.664ZM-359.818 505.924L205.67 237.41L201.381 228.377L-364.107 496.891L-359.818 505.924ZM-352.526 521.281L212.962 252.767L208.673 243.733L-356.815 512.247L-352.526 521.281ZM-345.234 536.637L220.254 268.123L215.965 259.09L-349.523 527.604L-345.234 536.637ZM-337.513 552.897L227.975 284.383L223.685 275.35L-341.802 543.864L-337.513 552.897ZM-330.221 568.254L235.267 299.74L230.977 290.707L-334.51 559.221L-330.221 568.254ZM-447.843 623.69L117.645 355.177L113.355 346.143L-452.132 614.657L-447.843 623.69ZM-440.122 639.95L125.365 371.437L121.076 362.403L-444.412 630.917L-440.122 639.95ZM-432.83 655.307L132.657 386.793L128.368 377.76L-437.12 646.274L-432.83 655.307ZM-425.538 670.664L139.949 402.15L135.66 393.117L-429.828 661.63L-425.538 670.664ZM-417.818 686.924L147.67 418.41L143.381 409.377L-422.107 677.891L-417.818 686.924ZM-410.526 702.281L154.962 433.767L150.673 424.733L-414.815 693.247L-410.526 702.281ZM-403.234 717.637L162.254 449.123L157.965 440.09L-407.523 708.604L-403.234 717.637ZM-395.513 733.897L169.975 465.383L165.685 456.35L-399.802 724.864L-395.513 733.897ZM-388.221 749.254L177.267 480.74L172.977 471.707L-392.51 740.221L-388.221 749.254Z" fill="black"/>
<path d="M339.152 127.641H317.707L312.891 141H305.93L325.477 89.8125H331.383L350.965 141H344.039L339.152 127.641ZM319.746 122.086H337.148L328.43 98.1445L319.746 122.086ZM370.863 117.199L364.605 123.703V141H357.855V89.8125H364.605V115.125L387.352 89.8125H395.508L375.363 112.418L397.09 141H389.004L370.863 117.199ZM324.984 203.184C319.195 201.52 314.977 199.48 312.328 197.066C309.703 194.629 308.391 191.629 308.391 188.066C308.391 184.035 309.996 180.707 313.207 178.082C316.441 175.434 320.637 174.109 325.793 174.109C329.309 174.109 332.438 174.789 335.18 176.148C337.945 177.508 340.078 179.383 341.578 181.773C343.102 184.164 343.863 186.777 343.863 189.613H337.078C337.078 186.52 336.094 184.094 334.125 182.336C332.156 180.555 329.379 179.664 325.793 179.664C322.465 179.664 319.863 180.402 317.988 181.879C316.137 183.332 315.211 185.359 315.211 187.961C315.211 190.047 316.09 191.816 317.848 193.27C319.629 194.699 322.641 196.012 326.883 197.207C331.148 198.402 334.477 199.727 336.867 201.18C339.281 202.609 341.062 204.285 342.211 206.207C343.383 208.129 343.969 210.391 343.969 212.992C343.969 217.141 342.352 220.469 339.117 222.977C335.883 225.461 331.559 226.703 326.145 226.703C322.629 226.703 319.348 226.035 316.301 224.699C313.254 223.34 310.898 221.488 309.234 219.145C307.594 216.801 306.773 214.141 306.773 211.164H313.559C313.559 214.258 314.695 216.707 316.969 218.512C319.266 220.293 322.324 221.184 326.145 221.184C329.707 221.184 332.438 220.457 334.336 219.004C336.234 217.551 337.184 215.57 337.184 213.062C337.184 210.555 336.305 208.621 334.547 207.262C332.789 205.879 329.602 204.52 324.984 203.184ZM391.992 226H385.207V202.34H359.402V226H352.652V174.812H359.402V196.82H385.207V174.812H391.992V226ZM343.969 258.812V293.617C343.945 298.445 342.422 302.395 339.398 305.465C336.398 308.535 332.32 310.258 327.164 310.633L325.371 310.703C319.77 310.703 315.305 309.191 311.977 306.168C308.648 303.145 306.961 298.984 306.914 293.688V258.812H313.594V293.477C313.594 297.18 314.613 300.062 316.652 302.125C318.691 304.164 321.598 305.184 325.371 305.184C329.191 305.184 332.109 304.164 334.125 302.125C336.164 300.086 337.184 297.215 337.184 293.512V258.812H343.969ZM393.961 310H387.176L361.406 270.555V310H354.621V258.812H361.406L387.246 298.434V258.812H393.961V310Z" fill="white"/>
<path d="M339.152 127.641L348.544 124.205L346.142 117.641H339.152V127.641ZM317.707 127.641V117.641H310.682L308.3 124.249L317.707 127.641ZM312.891 141V151H319.915L322.298 144.392L312.891 141ZM305.93 141L296.588 137.433L291.407 151H305.93V141ZM325.477 89.8125V79.8125H318.591L316.135 86.2451L325.477 89.8125ZM331.383 89.8125L340.723 86.2395L338.264 79.8125H331.383V89.8125ZM350.965 141V151H365.497L360.305 137.427L350.965 141ZM344.039 141L334.648 144.435L337.049 151H344.039V141ZM319.746 122.086L310.345 118.676L305.482 132.086H319.746V122.086ZM337.148 122.086V132.086H351.433L346.545 118.664L337.148 122.086ZM328.43 98.1445L337.826 94.7227L328.411 68.8685L319.029 94.7349L328.43 98.1445ZM339.152 117.641H317.707V137.641H339.152V117.641ZM308.3 124.249L303.483 137.608L322.298 144.392L327.114 131.032L308.3 124.249ZM312.891 131H305.93V151H312.891V131ZM315.272 144.567L334.819 93.3799L316.135 86.2451L296.588 137.433L315.272 144.567ZM325.477 99.8125H331.383V79.8125H325.477V99.8125ZM322.043 93.3855L341.625 144.573L360.305 137.427L340.723 86.2395L322.043 93.3855ZM350.965 131H344.039V151H350.965V131ZM353.43 137.565L348.544 124.205L329.761 131.076L334.648 144.435L353.43 137.565ZM319.746 132.086H337.148V112.086H319.746V132.086ZM346.545 118.664L337.826 94.7227L319.033 101.566L327.752 125.508L346.545 118.664ZM319.029 94.7349L310.345 118.676L329.147 125.496L337.83 101.554L319.029 94.7349ZM370.863 117.199L378.817 111.137L371.745 101.86L363.657 110.266L370.863 117.199ZM364.605 123.703L357.399 116.77L354.605 119.673V123.703H364.605ZM364.605 141V151H374.605V141H364.605ZM357.855 141H347.855V151H357.855V141ZM357.855 89.8125V79.8125H347.855V89.8125H357.855ZM364.605 89.8125H374.605V79.8125H364.605V89.8125ZM364.605 115.125H354.605V141.215L372.044 121.809L364.605 115.125ZM387.352 89.8125V79.8125H382.893L379.913 83.1286L387.352 89.8125ZM395.508 89.8125L402.974 96.4655L417.814 79.8125H395.508V89.8125ZM375.363 112.418L367.898 105.765L362.419 111.913L367.402 118.47L375.363 112.418ZM397.09 141V151H417.252L405.051 134.948L397.09 141ZM389.004 141L381.051 147.062L384.052 151H389.004V141ZM363.657 110.266L357.399 116.77L371.812 130.637L378.069 124.133L363.657 110.266ZM354.605 123.703V141H374.605V123.703H354.605ZM364.605 131H357.855V151H364.605V131ZM367.855 141V89.8125H347.855V141H367.855ZM357.855 99.8125H364.605V79.8125H357.855V99.8125ZM354.605 89.8125V115.125H374.605V89.8125H354.605ZM372.044 121.809L394.79 96.4964L379.913 83.1286L357.167 108.441L372.044 121.809ZM387.352 99.8125H395.508V79.8125H387.352V99.8125ZM388.042 83.1595L367.898 105.765L382.829 119.071L402.974 96.4655L388.042 83.1595ZM367.402 118.47L389.129 147.052L405.051 134.948L383.324 106.366L367.402 118.47ZM397.09 131H389.004V151H397.09V131ZM396.957 134.938L378.817 111.137L362.91 123.261L381.051 147.062L396.957 134.938ZM324.984 203.184L327.764 193.578L327.755 193.575L327.747 193.573L324.984 203.184ZM312.328 197.066L305.524 204.394L305.557 204.426L305.592 204.457L312.328 197.066ZM313.207 178.082L319.536 185.824L319.542 185.819L313.207 178.082ZM335.18 176.148L330.738 185.108L330.753 185.115L330.768 185.123L335.18 176.148ZM341.578 181.773L333.107 187.088L333.126 187.118L333.145 187.148L341.578 181.773ZM343.863 189.613V199.613H353.863V189.613H343.863ZM337.078 189.613H327.078V199.613H337.078V189.613ZM334.125 182.336L327.416 189.751L327.44 189.773L327.465 189.795L334.125 182.336ZM317.988 181.879L324.162 189.746L324.169 189.74L324.175 189.735L317.988 181.879ZM317.848 193.27L311.476 200.977L311.532 201.023L311.588 201.068L317.848 193.27ZM326.883 197.207L324.171 206.832L324.178 206.834L324.185 206.836L326.883 197.207ZM336.867 201.18L331.673 209.725L331.722 209.755L331.771 209.784L336.867 201.18ZM342.211 206.207L333.627 211.337L333.65 211.375L333.673 211.413L342.211 206.207ZM339.117 222.977L345.209 230.907L345.227 230.893L345.245 230.879L339.117 222.977ZM316.301 224.699L312.226 233.832L312.256 233.845L312.285 233.858L316.301 224.699ZM309.234 219.145L301.042 224.879L301.061 224.907L301.081 224.934L309.234 219.145ZM306.773 211.164V201.164H296.773V211.164H306.773ZM313.559 211.164H323.559V201.164H313.559V211.164ZM316.969 218.512L310.751 226.344L310.796 226.379L310.841 226.414L316.969 218.512ZM334.547 207.262L328.364 215.121L328.397 215.147L328.429 215.172L334.547 207.262ZM327.747 193.573C322.557 192.081 320.053 190.577 319.065 189.676L305.592 204.457C309.9 208.384 315.834 210.958 322.222 212.794L327.747 193.573ZM319.133 189.738C318.532 189.181 318.391 188.831 318.391 188.066H298.391C298.391 194.427 300.874 200.077 305.524 204.394L319.133 189.738ZM318.391 188.066C318.391 187.135 318.571 186.613 319.536 185.824L306.878 170.34C301.421 174.801 298.391 180.936 298.391 188.066H318.391ZM319.542 185.819C320.602 184.951 322.391 184.109 325.793 184.109V164.109C318.883 164.109 312.28 165.916 306.872 170.345L319.542 185.819ZM325.793 184.109C327.997 184.109 329.569 184.528 330.738 185.108L339.621 167.189C335.306 165.05 330.62 164.109 325.793 164.109V184.109ZM330.768 185.123C332.026 185.741 332.684 186.414 333.107 187.088L350.049 176.459C347.472 172.351 343.865 169.275 339.591 167.174L330.768 185.123ZM333.145 187.148C333.645 187.932 333.863 188.681 333.863 189.613H353.863C353.863 184.874 352.558 180.396 350.011 176.399L333.145 187.148ZM343.863 179.613H337.078V199.613H343.863V179.613ZM347.078 189.613C347.078 184.21 345.25 178.863 340.785 174.877L327.465 189.795C327.409 189.745 327.329 189.662 327.247 189.546C327.166 189.431 327.109 189.32 327.074 189.234C327.002 189.056 327.078 189.125 327.078 189.613H347.078ZM340.834 174.921C336.464 170.967 330.978 169.664 325.793 169.664V189.664C326.778 189.664 327.306 189.789 327.512 189.854C327.681 189.909 327.586 189.906 327.416 189.751L340.834 174.921ZM325.793 169.664C321.091 169.664 316.02 170.701 311.801 174.023L324.175 189.735C323.707 190.104 323.839 189.664 325.793 189.664V169.664ZM311.814 174.012C307.271 177.578 305.211 182.658 305.211 187.961H325.211C325.211 187.856 325.226 188.153 325.002 188.643C324.764 189.164 324.421 189.543 324.162 189.746L311.814 174.012ZM305.211 187.961C305.211 193.331 307.664 197.826 311.476 200.977L324.219 185.562C324.255 185.592 324.553 185.854 324.826 186.404C325.112 186.979 325.211 187.549 325.211 187.961H305.211ZM311.588 201.068C314.993 203.801 319.614 205.548 324.171 206.832L329.595 187.582C327.774 187.069 326.413 186.584 325.437 186.159C324.421 185.716 324.078 185.447 324.107 185.471L311.588 201.068ZM324.185 206.836C328.02 207.911 330.377 208.937 331.673 209.725L342.061 192.634C338.576 190.516 334.277 188.894 329.581 187.578L324.185 206.836ZM331.771 209.784C333.108 210.575 333.523 211.164 333.627 211.337L350.795 201.077C348.602 197.407 345.455 194.643 341.963 192.575L331.771 209.784ZM333.673 211.413C333.748 211.536 333.969 211.936 333.969 212.992H353.969C353.969 208.845 353.018 204.722 350.749 201.001L333.673 211.413ZM333.969 212.992C333.969 213.737 333.832 214.084 333.761 214.229C333.693 214.37 333.523 214.66 332.99 215.074L345.245 230.879C350.961 226.447 353.969 220.182 353.969 212.992H333.969ZM333.026 215.046C332.034 215.808 330.075 216.703 326.145 216.703V236.703C333.042 236.703 339.731 235.114 345.209 230.907L333.026 215.046ZM326.145 216.703C323.931 216.703 322.026 216.291 320.316 215.541L312.285 233.858C316.669 235.78 321.326 236.703 326.145 236.703V216.703ZM320.375 215.567C318.697 214.818 317.859 214.019 317.388 213.355L301.081 224.934C303.937 228.957 307.811 231.862 312.226 233.832L320.375 215.567ZM317.427 213.41C317.012 212.818 316.773 212.177 316.773 211.164H296.773C296.773 216.104 298.175 220.784 301.042 224.879L317.427 213.41ZM306.773 221.164H313.559V201.164H306.773V221.164ZM303.559 211.164C303.559 217.077 305.913 222.503 310.751 226.344L323.186 210.679C323.166 210.663 323.209 210.694 323.279 210.783C323.352 210.873 323.424 210.987 323.482 211.111C323.539 211.235 323.562 211.324 323.568 211.355C323.573 211.381 323.559 211.325 323.559 211.164H303.559ZM310.841 226.414C315.373 229.929 320.804 231.184 326.145 231.184V211.184C323.844 211.184 323.158 210.657 323.097 210.61L310.841 226.414ZM326.145 231.184C330.876 231.184 336.1 230.247 340.414 226.945L328.258 211.063C328.525 210.859 328.614 210.889 328.293 210.975C327.951 211.066 327.272 211.184 326.145 211.184V231.184ZM340.414 226.945C344.922 223.494 347.184 218.506 347.184 213.062H327.184C327.184 213.033 327.196 212.645 327.454 212.107C327.719 211.553 328.069 211.208 328.258 211.063L340.414 226.945ZM347.184 213.062C347.184 207.912 345.209 202.865 340.664 199.351L328.429 215.172C328.082 214.904 327.686 214.454 327.421 213.869C327.172 213.323 327.184 212.981 327.184 213.062H347.184ZM340.73 199.402C337.341 196.736 332.523 194.955 327.764 193.578L322.205 212.79C324.261 213.385 325.805 213.93 326.915 214.404C328.091 214.905 328.445 215.185 328.364 215.121L340.73 199.402ZM391.992 226V236H401.992V226H391.992ZM385.207 226H375.207V236H385.207V226ZM385.207 202.34H395.207V192.34H385.207V202.34ZM359.402 202.34V192.34H349.402V202.34H359.402ZM359.402 226V236H369.402V226H359.402ZM352.652 226H342.652V236H352.652V226ZM352.652 174.812V164.812H342.652V174.812H352.652ZM359.402 174.812H369.402V164.812H359.402V174.812ZM359.402 196.82H349.402V206.82H359.402V196.82ZM385.207 196.82V206.82H395.207V196.82H385.207ZM385.207 174.812V164.812H375.207V174.812H385.207ZM391.992 174.812H401.992V164.812H391.992V174.812ZM391.992 216H385.207V236H391.992V216ZM395.207 226V202.34H375.207V226H395.207ZM385.207 192.34H359.402V212.34H385.207V192.34ZM349.402 202.34V226H369.402V202.34H349.402ZM359.402 216H352.652V236H359.402V216ZM362.652 226V174.812H342.652V226H362.652ZM352.652 184.812H359.402V164.812H352.652V184.812ZM349.402 174.812V196.82H369.402V174.812H349.402ZM359.402 206.82H385.207V186.82H359.402V206.82ZM395.207 196.82V174.812H375.207V196.82H395.207ZM385.207 184.812H391.992V164.812H385.207V184.812ZM381.992 174.812V226H401.992V174.812H381.992ZM343.969 258.812H353.969V248.812H343.969V258.812ZM343.969 293.617L353.969 293.666L353.969 293.641V293.617H343.969ZM339.398 305.465L332.273 298.448L332.26 298.462L332.246 298.476L339.398 305.465ZM327.164 310.633L327.556 320.625L327.723 320.619L327.889 320.606L327.164 310.633ZM325.371 310.703V320.703H325.567L325.763 320.695L325.371 310.703ZM306.914 293.688H296.914V293.732L296.914 293.776L306.914 293.688ZM306.914 258.812V248.812H296.914V258.812H306.914ZM313.594 258.812H323.594V248.812H313.594V258.812ZM316.652 302.125L309.541 309.156L309.561 309.176L309.581 309.196L316.652 302.125ZM334.125 302.125L327.054 295.054L327.033 295.074L327.013 295.095L334.125 302.125ZM337.184 258.812V248.812H327.184V258.812H337.184ZM333.969 258.812V293.617H353.969V258.812H333.969ZM333.969 293.569C333.956 296.13 333.239 297.467 332.273 298.448L346.524 312.481C351.604 307.322 353.934 300.76 353.969 293.666L333.969 293.569ZM332.246 298.476C331.286 299.459 329.682 300.423 326.439 300.659L327.889 320.606C334.958 320.092 341.511 317.611 346.551 312.454L332.246 298.476ZM326.772 300.641L324.979 300.711L325.763 320.695L327.556 320.625L326.772 300.641ZM325.371 300.703C321.619 300.703 319.766 299.734 318.701 298.766L305.252 313.57C310.844 318.649 317.92 320.703 325.371 320.703V300.703ZM318.701 298.766C317.805 297.953 316.941 296.649 316.914 293.599L296.914 293.776C296.981 301.319 299.492 308.336 305.252 313.57L318.701 298.766ZM316.914 293.688V258.812H296.914V293.688H316.914ZM306.914 268.812H313.594V248.812H306.914V268.812ZM303.594 258.812V293.477H323.594V258.812H303.594ZM303.594 293.477C303.594 299.049 305.176 304.741 309.541 309.156L323.764 295.094C323.835 295.166 323.832 295.213 323.786 295.082C323.725 294.91 323.594 294.424 323.594 293.477H303.594ZM309.581 309.196C314.022 313.637 319.797 315.184 325.371 315.184V295.184C324.367 295.184 323.852 295.046 323.672 294.983C323.535 294.935 323.611 294.942 323.723 295.054L309.581 309.196ZM325.371 315.184C330.944 315.184 336.782 313.662 341.237 309.155L327.013 295.095C327.158 294.948 327.262 294.931 327.126 294.979C326.944 295.042 326.413 295.184 325.371 295.184V315.184ZM341.196 309.196C345.603 304.789 347.184 299.078 347.184 293.512H327.184C327.184 294.461 327.052 294.938 326.995 295.096C326.954 295.212 326.963 295.145 327.054 295.054L341.196 309.196ZM347.184 293.512V258.812H327.184V293.512H347.184ZM337.184 268.812H343.969V248.812H337.184V268.812ZM393.961 310V320H403.961V310H393.961ZM387.176 310L378.804 315.469L381.764 320H387.176V310ZM361.406 270.555L369.778 265.085L351.406 236.964V270.555H361.406ZM361.406 310V320H371.406V310H361.406ZM354.621 310H344.621V320H354.621V310ZM354.621 258.812V248.812H344.621V258.812H354.621ZM361.406 258.812L369.782 253.35L366.823 248.812H361.406V258.812ZM387.246 298.434L378.87 303.896L397.246 332.073V298.434H387.246ZM387.246 258.812V248.812H377.246V258.812H387.246ZM393.961 258.812H403.961V248.812H393.961V258.812ZM393.961 300H387.176V320H393.961V300ZM395.548 304.531L369.778 265.085L353.034 276.024L378.804 315.469L395.548 304.531ZM351.406 270.555V310H371.406V270.555H351.406ZM361.406 300H354.621V320H361.406V300ZM364.621 310V258.812H344.621V310H364.621ZM354.621 268.812H361.406V248.812H354.621V268.812ZM353.03 264.275L378.87 303.896L395.622 292.971L369.782 253.35L353.03 264.275ZM397.246 298.434V258.812H377.246V298.434H397.246ZM387.246 268.812H393.961V248.812H387.246V268.812ZM383.961 258.812V310H403.961V258.812H383.961Z" fill="black"/>
<rect x="306" y="337" width="89" height="89" fill="white" stroke="black" stroke-width="10"/>
</g>
</svg>
